<?xml version="1.0" encoding="utf-8"?>
<!-- Generator: Adobe Illustrator 24.0.1, SVG Export Plug-In . SVG Version: 6.00 Build 0)  -->
<svg version="1.1" id="Layer_2" xmlns="http://www.w3.org/2000/svg" xmlns:xlink="http://www.w3.org/1999/xlink" x="0px" y="0px"
	 viewBox="0 0 512 512" style="enable-background:new 0 0 512 512;" xml:space="preserve">
<g>
	<path style="fill:none;stroke:#FFFFFF;stroke-width:5;stroke-miterlimit:10;" d="M238.6,400h196.3c0,0,39.8,21.2,29,55
		c0,0-4,33-33,37H238.6c0,0-31.7-8-30.7-45S238.6,400,238.6,400z"/>
	<path style="fill:none;stroke:#FFFFFF;stroke-width:5;stroke-miterlimit:10;" d="M218.7,415c0,0,5.2,8.8-29.8-15c0,0-18.1-22-21-29
		c-2.9-7-37-15-40-4s3.8,20.2-8,22.1s-12,25.9-12,25.9s-14,13-36,8s-24,28-24,28s-31,5-30,20s-11,17,15,21s205.7,0,205.7,0"/>
	<circle style="fill:none;stroke:#FFFFFF;stroke-width:5;stroke-miterlimit:10;" cx="255.9" cy="447" r="18.5"/>
	<path style="fill:none;stroke:#FFFFFF;stroke-width:5;stroke-miterlimit:10;" d="M431.9,487v-32c0,0-1-8-16-8H274.4"/>
	<line style="fill:none;stroke:#FFFFFF;stroke-width:5;stroke-miterlimit:10;" x1="303.9" y1="492" x2="303.9" y2="447"/>
	<line style="fill:none;stroke:#FFFFFF;stroke-width:5;stroke-miterlimit:10;" x1="335.9" y1="492" x2="335.9" y2="447"/>
	<line style="fill:none;stroke:#FFFFFF;stroke-width:5;stroke-miterlimit:10;" x1="367.9" y1="492" x2="367.9" y2="447"/>
	<line style="fill:none;stroke:#FFFFFF;stroke-width:5;stroke-miterlimit:10;" x1="399.9" y1="492" x2="399.9" y2="447"/>
	<path style="fill:none;stroke:#FFFFFF;stroke-width:5;stroke-miterlimit:10;" d="M159.9,415"/>
	<line style="fill:none;stroke:#FFFFFF;stroke-width:5;stroke-miterlimit:10;" x1="175.9" y1="463" x2="171.9" y2="455"/>
	<line style="fill:none;stroke:#FFFFFF;stroke-width:5;stroke-miterlimit:10;" x1="95.9" y1="465.5" x2="95.9" y2="459"/>
	<line style="fill:none;stroke:#FFFFFF;stroke-width:5;stroke-miterlimit:10;" x1="120.3" y1="447" x2="129.4" y2="446"/>
	<path style="fill:none;stroke:#FFFFFF;stroke-width:5;stroke-miterlimit:10;" d="M238.6,400l4.3-145c0,0,6-26,31.5-33
		c0,0,117.5-1,117.5,0s0-1,0-1s26.9,5.3,36,34l4,88c0,0-3,9,8,9s56,0,56,0v39.5c0,0,22,8.5-61,8.5"/>
	<path style="fill:none;stroke:#FFFFFF;stroke-width:5;stroke-miterlimit:10;" d="M430.9,321c0,0,64-17,65,31"/>
	<path style="fill:none;stroke:#FFFFFF;stroke-width:5;stroke-miterlimit:10;" d="M303.9,255c0,0-29-7-29.5,18s-4.5,79-4.5,79
		s-1,20,17,18c18-2,97,0.1,97,0.1s19,2.9,16-18.1s-8-80-8-80s7.4-24.8-23.3-17.9L303.9,255z"/>
	<line style="fill:none;stroke:#FFFFFF;stroke-width:5;stroke-miterlimit:10;" x1="336.8" y1="252.9" x2="335.9" y2="369.3"/>
	<line style="fill:none;stroke:#FFFFFF;stroke-width:5;stroke-miterlimit:10;" x1="463.4" y1="318.6" x2="463.4" y2="352"/>
	
		<line style="fill:none;stroke:#FFFFFF;stroke-width:5;stroke-linecap:round;stroke-miterlimit:10;" x1="391.9" y1="187" x2="391.9" y2="222"/>
	<path style="fill:none;stroke:#FFFFFF;stroke-width:5;stroke-miterlimit:10;" d="M127.3,23.1l0.8,223.9c0,0,8.8,34-18.2,25l-70,1.5
		c0,0-7.4,1.5-9-18.5s17-16.7,17-16.7h32.2L79.9,54c0,0,0-20,8-24s21-17,24-16C111.9,14,127.2,13.2,127.3,23.1z"/>
	<path style="fill:none;stroke:#FFFFFF;stroke-width:5;stroke-miterlimit:10;" d="M79.9,54l-40,41c0,0-18.2,9-9.1,27
		c0,0-6.9,13.5,9.1,21.7l40.2-39.1"/>
	<line style="fill:none;stroke:#FFFFFF;stroke-width:5;stroke-miterlimit:10;" x1="47.9" y1="238.4" x2="49" y2="134.9"/>
	<path style="fill:none;stroke:#FFFFFF;stroke-width:5;stroke-miterlimit:10;" d="M39.9,273.5c0,0-77,63.5,32,111.5h56v-33l-18-9
		v-71"/>
	<line style="fill:none;stroke:#FFFFFF;stroke-width:5;stroke-miterlimit:10;" x1="79.9" y1="272" x2="79.9" y2="385"/>
	<line style="fill:none;stroke:#FFFFFF;stroke-width:5;stroke-miterlimit:10;" x1="327.9" y1="221" x2="129.5" y2="54"/>
	<line style="fill:none;stroke:#FFFFFF;stroke-width:5;stroke-miterlimit:10;" x1="242.9" y1="255" x2="127.9" y2="110"/>
</g>
</svg>
