<?xml version="1.0" encoding="utf-8"?>
<!-- Generator: Adobe Illustrator 24.0.1, SVG Export Plug-In . SVG Version: 6.00 Build 0)  -->
<svg version="1.1" id="Layer_2" xmlns="http://www.w3.org/2000/svg" xmlns:xlink="http://www.w3.org/1999/xlink" x="0px" y="0px"
	 viewBox="0 0 479.5 479.5" style="enable-background:new 0 0 479.5 479.5;" xml:space="preserve">
<path style="fill:none;stroke:#FFFFFF;stroke-width:5;stroke-miterlimit:10;" d="M311.5,154.4v91.5l12.2,32.8h-20.5l-93-126.6
	c-1.2-0.7-1.9-1.8-2.2-3l-43.2-58.8c-2.8-0.4-4.1-3-3.9-5.4l-61-83L59.1,26.6L72.4,52l70,133.3c2.8,0.7,3.9,3.7,3.3,6.2l63.1,120.1
	c1.1,0.9,1.8,2.2,1.9,3.6l5.1,9.7v11.1h38.3v19.1h143.4v-19.1h57.4V154.4H311.5z"/>
<line style="fill:none;stroke:#FFFFFF;stroke-width:5;stroke-miterlimit:10;" x1="72.4" y1="173.5" x2="72.4" y2="52"/>
<line style="fill:none;stroke:#FFFFFF;stroke-width:5;stroke-miterlimit:10;" x1="82" y1="173.5" x2="82" y2="70.2"/>
<line style="fill:none;stroke:#FFFFFF;stroke-width:5;stroke-miterlimit:10;" x1="91.5" y1="173.5" x2="91.5" y2="88.4"/>
<polygon style="fill:none;stroke:#FFFFFF;stroke-width:5;stroke-miterlimit:10;" points="58.3,173.5 115.5,173.5 102.2,240.4 
	82,240.4 67.8,240.4 "/>
<path style="fill:none;stroke:#FFFFFF;stroke-width:5;stroke-linecap:round;stroke-miterlimit:10;" d="M104.8,291.7
	c8.8,8.7-22,35.7-35.7,7.3S82,265.7,82,265.7l0-25.2"/>
<polyline style="fill:none;stroke:#FFFFFF;stroke-width:5;stroke-miterlimit:10;" points="21.1,355.2 85.8,296.8 154.5,355.2 "/>
<line style="fill:none;stroke:#FFFFFF;stroke-width:5;stroke-miterlimit:10;" x1="15.8" y1="367.3" x2="160.1" y2="367.3"/>
<line style="fill:none;stroke:#FFFFFF;stroke-width:5;stroke-miterlimit:10;" x1="15.8" y1="416" x2="160.1" y2="416"/>
<line style="fill:none;stroke:#FFFFFF;stroke-width:5;stroke-miterlimit:10;" x1="44.4" y1="367.3" x2="44.4" y2="416"/>
<line style="fill:none;stroke:#FFFFFF;stroke-width:5;stroke-miterlimit:10;" x1="132.2" y1="367.3" x2="132.8" y2="416"/>
<line style="fill:none;stroke:#FFFFFF;stroke-width:5;stroke-miterlimit:10;" x1="118.7" y1="27.8" x2="100" y2="104.5"/>
<path style="fill:none;stroke:#FFFFFF;stroke-width:5;stroke-miterlimit:10;" d="M159.9,89.4C141,93.5,123,101.5,103,105.5
	c-1,0-2,1-2,2c0,22,0,44,0.1,66"/>
<path style="fill:none;stroke:#FFFFFF;stroke-width:5;stroke-miterlimit:10;" d="M160.7,89.4c-1.7,0.9-0.2,1.8,1,1.1"/>
<path style="fill:none;stroke:#FFFFFF;stroke-width:5;stroke-miterlimit:10;" d="M143.3,184.1c6.7-30.6,11.7-61.6,19.4-92.4"/>
<path style="fill:none;stroke:#FFFFFF;stroke-width:5;stroke-miterlimit:10;" d="M143.3,184.2c0.2-1.1,0.5-2.3,1.2-3.2
	c0.3,1,0.2,2-0.2,3"/>
<path style="fill:none;stroke:#FFFFFF;stroke-width:5;stroke-miterlimit:10;" d="M207.6,152c-20.5,11.4-41.7,21.6-62.4,32.8"/>
<path style="fill:none;stroke:#FFFFFF;stroke-width:5;stroke-miterlimit:10;" d="M176.2,248.6c10.8-32.1,21.8-64.1,32.5-95.7"/>
<path style="fill:none;stroke:#FFFFFF;stroke-width:5;stroke-miterlimit:10;" d="M250.6,208.9C227,224.5,203,239.5,179,254.7"/>
<path style="fill:none;stroke:#FFFFFF;stroke-width:5;stroke-miterlimit:10;" d="M210.1,310.7c10.5-26.2,21.2-52.4,31.8-78.6
	c3.1-7.6,6.1-15.2,9.2-22.8"/>
<path style="fill:none;stroke:#FFFFFF;stroke-width:5;stroke-miterlimit:10;" d="M210.3,310.4c2.1-4.8,2.6-1.9,0.5,0.9"/>
<path style="fill:none;stroke:#FFFFFF;stroke-width:5;stroke-miterlimit:10;" d="M293.8,265.7c-26.8,15.8-54.8,30.8-82.7,45.9"/>
<line style="fill:none;stroke:#FFFFFF;stroke-width:5;stroke-miterlimit:10;" x1="323.7" y1="278.7" x2="303.2" y2="278.7"/>
<rect x="349.7" y="192.6" style="fill:none;stroke:#FFFFFF;stroke-width:5;stroke-miterlimit:10;" width="66.9" height="57.4"/>
<path style="fill:none;stroke:#FFFFFF;stroke-width:5;stroke-miterlimit:10;" d="M251.5,374.3h-30.2c0,0-29.3,2.6-33.6,27.1
	c-1.5,8.7,0.5,55.7,0.5,55.7s4.2,18.9,30.4,21.7c26.2,2.8,225.3,0.5,225.3,0.5s22.9-0.1,28.8-26.8l1-50.1c0,0-2.3-28.2-33.2-28.2
	H251.5z"/>
<path style="fill:none;stroke:#FFFFFF;stroke-width:5;stroke-miterlimit:10;" d="M225.4,412.6c0,28.7,0,28.7,0,28.7h210.4
	c0-28.7,0-28.7,0-28.7H225.4z"/>
</svg>
