<?xml version="1.0" encoding="utf-8"?>
<!-- Generator: Adobe Illustrator 24.0.1, SVG Export Plug-In . SVG Version: 6.00 Build 0)  -->
<svg version="1.1" id="Layer_2" xmlns="http://www.w3.org/2000/svg" xmlns:xlink="http://www.w3.org/1999/xlink" x="0px" y="0px"
	 viewBox="0 0 503 503" style="enable-background:new 0 0 503 503;" xml:space="preserve">
<g>
	<line style="fill:none;stroke:#FFFFFF;stroke-width:5;stroke-miterlimit:10;" x1="175" y1="218" x2="176" y2="328.7"/>
	<line style="fill:none;stroke:#FFFFFF;stroke-width:5;stroke-miterlimit:10;" x1="64" y1="307.5" x2="74" y2="307.5"/>
	<line style="fill:none;stroke:#FFFFFF;stroke-width:5;stroke-miterlimit:10;" x1="64" y1="331.5" x2="74" y2="331.5"/>
	<path style="fill:none;stroke:#FFFFFF;stroke-width:5;stroke-miterlimit:10;" d="M47,396h204.5c0,0,41.5-2,45.5,47.5
		c0,0-2,43.5-41,49.5H47c0,0-37-9-41-48.5C6,444.5,10,396,47,396z"/>
	<line style="fill:none;stroke:#FFFFFF;stroke-width:5;stroke-miterlimit:10;" x1="119.5" y1="364" x2="119.5" y2="396"/>
	<line style="fill:none;stroke:#FFFFFF;stroke-width:5;stroke-miterlimit:10;" x1="183.5" y1="364" x2="183.5" y2="396"/>
	<circle style="fill:none;stroke:#FFFFFF;stroke-width:5;stroke-miterlimit:10;" cx="56" cy="444.5" r="15"/>
	<circle style="fill:none;stroke:#FFFFFF;stroke-width:5;stroke-miterlimit:10;" cx="119.5" cy="443.5" r="15"/>
	<circle style="fill:none;stroke:#FFFFFF;stroke-width:5;stroke-miterlimit:10;" cx="183.5" cy="443.5" r="15"/>
	<circle style="fill:none;stroke:#FFFFFF;stroke-width:5;stroke-miterlimit:10;" cx="247.5" cy="444.5" r="15"/>
	<circle style="fill:none;stroke:#FFFFFF;stroke-width:5;stroke-miterlimit:10;" cx="343.5" cy="35.5" r="20.5"/>
	<circle style="fill:none;stroke:#FFFFFF;stroke-width:5;stroke-miterlimit:10;" cx="479.5" cy="275.5" r="15"/>
	<line style="fill:none;stroke:#FFFFFF;stroke-width:5;stroke-miterlimit:10;" x1="198.5" y1="188.7" x2="327" y2="23.3"/>
	<line style="fill:none;stroke:#FFFFFF;stroke-width:5;stroke-miterlimit:10;" x1="360" y1="23.3" x2="491.9" y2="267"/>
	<polyline style="fill:none;stroke:#FFFFFF;stroke-width:5;stroke-miterlimit:10;" points="247.5,248.4 336,89.4 363.5,40.1 	"/>
	<line style="fill:none;stroke:#FFFFFF;stroke-width:5;stroke-miterlimit:10;" x1="467.1" y1="284" x2="336" y2="89.4"/>
	<path style="fill:none;stroke:#FFFFFF;stroke-width:5;stroke-miterlimit:10;" d="M479.5,290.5v59.2c0,0,3.5,20.3-21.5,29.8
		s-39,21.6-63,2.6c-10.8-8.6-23.9-19.7-35-29.4c-13.5-11.7-24-21.2-24-21.2"/>
	<polyline style="fill:none;stroke:#FFFFFF;stroke-width:5;stroke-miterlimit:10;" points="360,352.7 464.5,311 479.5,349.7 	"/>
	<path style="fill:none;stroke:#FFFFFF;stroke-width:5;stroke-miterlimit:10;" d="M139,188l-3,7l2,120c27,24,133,16.5,133,16.5V284
		c0,0-17.9-26.8-33.8-51.5c-4.7-7.3-9.3-14.4-13.2-20.5c-17-27-32-24-32-24H139h-6c-34,8-28,30-28,30l-2,57.5H47
		C34,278,32,290,32,290v49c-7,32,24,25,24,25h200v-29"/>
</g>
</svg>
