<?xml version="1.0" encoding="utf-8"?>
<!-- Generator: Adobe Illustrator 24.0.1, SVG Export Plug-In . SVG Version: 6.00 Build 0)  -->
<svg version="1.1" id="Layer_2" xmlns="http://www.w3.org/2000/svg" xmlns:xlink="http://www.w3.org/1999/xlink" x="0px" y="0px"
	 viewBox="0 0 512 512" style="enable-background:new 0 0 512 512;" xml:space="preserve">
<g>
	
		<circle style="fill:none;stroke:#FFFFFF;stroke-width:5;stroke-linecap:round;stroke-miterlimit:10;" cx="103.7" cy="364.2" r="28.3"/>
	
		<circle style="fill:none;stroke:#FFFFFF;stroke-width:5;stroke-linecap:round;stroke-miterlimit:10;" cx="103.7" cy="364.2" r="28.3"/>
	
		<circle style="fill:none;stroke:#FFFFFF;stroke-width:5;stroke-linecap:round;stroke-miterlimit:10;" cx="167.3" cy="364.2" r="28.3"/>
	
		<circle style="fill:none;stroke:#FFFFFF;stroke-width:5;stroke-linecap:round;stroke-miterlimit:10;" cx="424.4" cy="364.2" r="28.3"/>
	
		<circle style="fill:none;stroke:#FFFFFF;stroke-width:5;stroke-linecap:round;stroke-miterlimit:10;" cx="424.4" cy="364.2" r="7.5"/>
	
		<circle style="fill:none;stroke:#FFFFFF;stroke-width:5;stroke-linecap:round;stroke-miterlimit:10;" cx="167.9" cy="364.2" r="7.5"/>
	
		<circle style="fill:none;stroke:#FFFFFF;stroke-width:5;stroke-linecap:round;stroke-miterlimit:10;" cx="103.7" cy="364.2" r="7.5"/>
	
		<line style="fill:none;stroke:#FFFFFF;stroke-width:5;stroke-linecap:round;stroke-miterlimit:10;" x1="194.6" y1="371.7" x2="397.1" y2="371.7"/>
	
		<line style="fill:none;stroke:#FFFFFF;stroke-width:5;stroke-linecap:round;stroke-miterlimit:10;" x1="23" y1="335.9" x2="424.4" y2="335.9"/>
	<polyline style="fill:none;stroke:#FFFFFF;stroke-width:5;stroke-linecap:round;stroke-miterlimit:10;" points="75.4,364.2 
		41,364.2 41,335.9 	"/>
	
		<line style="fill:none;stroke:#FFFFFF;stroke-width:5;stroke-linecap:round;stroke-miterlimit:10;" x1="87" y1="195.4" x2="87" y2="335.9"/>
	
		<line style="fill:none;stroke:#FFFFFF;stroke-width:5;stroke-linecap:round;stroke-miterlimit:10;" x1="280" y1="195.4" x2="280" y2="335.9"/>
	<polyline style="fill:none;stroke:#FFFFFF;stroke-width:5;stroke-linecap:round;stroke-miterlimit:10;" points="393.4,335.9 
		393.4,191 472,191 	"/>
	<polyline style="fill:none;stroke:#FFFFFF;stroke-width:5;stroke-linecap:round;stroke-miterlimit:10;" points="451.7,356.7 
		503,356.7 503,272 491,263.4 464,191 	"/>
	
		<line style="fill:none;stroke:#FFFFFF;stroke-width:5;stroke-linecap:round;stroke-miterlimit:10;" x1="486" y1="308.1" x2="503" y2="308.1"/>
	<polyline style="fill:none;stroke:#FFFFFF;stroke-width:5;stroke-linecap:round;stroke-miterlimit:10;" points="474.8,219.9 
		424.4,219.9 424.4,265.6 491,263.4 	"/>
	<path style="fill:none;stroke:#FFFFFF;stroke-width:5;stroke-linecap:round;stroke-miterlimit:10;" d="M87,140c0,0-76,1.8-77,79.9
		S95.2,300,95.2,300h200.7c0,0,60.1-19.2,65.1-72.6c0,0,3-79.7-81-87.4H87z"/>
	
		<line style="fill:none;stroke:#FFFFFF;stroke-width:5;stroke-linecap:round;stroke-miterlimit:10;" x1="87" y1="164" x2="87" y2="140"/>
	
		<line style="fill:none;stroke:#FFFFFF;stroke-width:5;stroke-linecap:round;stroke-miterlimit:10;" x1="280" y1="164" x2="280" y2="140"/>
	<polyline style="fill:none;stroke:#FFFFFF;stroke-width:5;stroke-linecap:round;stroke-miterlimit:10;" points="160.4,140 
		160.4,116 200.4,116 200.4,140 	"/>
	
		<line style="fill:none;stroke:#FFFFFF;stroke-width:5;stroke-linecap:round;stroke-miterlimit:10;" x1="329.6" y1="281.5" x2="396.1" y2="281.5"/>
</g>
</svg>
