<?xml version="1.0" encoding="utf-8"?>
<!-- Generator: Adobe Illustrator 24.0.1, SVG Export Plug-In . SVG Version: 6.00 Build 0)  -->
<svg version="1.1" id="Layer_2" xmlns="http://www.w3.org/2000/svg" xmlns:xlink="http://www.w3.org/1999/xlink" x="0px" y="0px"
	 viewBox="0 0 512 512" style="enable-background:new 0 0 512 512;" xml:space="preserve">
<g>
	<path style="fill:none;stroke:#FFFFFF;stroke-width:5;stroke-miterlimit:10;" d="M207,128H66.2c0,0-6.5-7-19.9,9S8,182,8,182
		s-0.7,33.3,29,13l33.9-35l269.1-1c0,0,7.2,9,26.6-9s27-23.5,27-23.5L417,121V99h-50.4L344,125l-106,1"/>
	<polyline style="fill:none;stroke:#FFFFFF;stroke-width:5;stroke-miterlimit:10;" points="42.4,189.4 121,282.3 252,282.9 331,159 
			"/>
	<circle style="fill:none;stroke:#FFFFFF;stroke-width:5;stroke-miterlimit:10;" cx="116.4" cy="357.4" r="55.5"/>
	<circle style="fill:none;stroke:#FFFFFF;stroke-width:5;stroke-miterlimit:10;" cx="412.1" cy="357.4" r="55.5"/>
	<circle style="fill:none;stroke:#FFFFFF;stroke-width:5;stroke-miterlimit:10;" cx="116.4" cy="357.4" r="20.7"/>
	<circle style="fill:none;stroke:#FFFFFF;stroke-width:5;stroke-miterlimit:10;" cx="412.1" cy="357.4" r="20.7"/>
	<polyline style="fill:none;stroke:#FFFFFF;stroke-width:5;stroke-miterlimit:10;" points="171.9,336.7 205,336.7 360.6,336.7 	"/>
	<path style="fill:none;stroke:#FFFFFF;stroke-width:5;stroke-miterlimit:10;" d="M207.3,336.7v23.1c0,0,1,7.3,9.5,7.2
		c8.5-0.1,19.1,0,19.1,0"/>
	<path style="fill:none;stroke:#FFFFFF;stroke-width:5;stroke-miterlimit:10;" d="M257.8,367l41.4,0c0,0,7.5-1.4,8.5-7.2v-23.1"/>
	<line style="fill:none;stroke:#FFFFFF;stroke-width:5;stroke-miterlimit:10;" x1="57.9" y1="207.8" x2="57.9" y2="311.9"/>
	<path style="fill:none;stroke:#FFFFFF;stroke-width:5;stroke-miterlimit:10;" d="M84.6,239.4v72.5l-42.3,0c0,0-25.4,8.6-28.4,24.9
		h50.9"/>
	<line style="fill:none;stroke:#FFFFFF;stroke-width:5;stroke-miterlimit:10;" x1="133.1" y1="282.4" x2="133.1" y2="304.4"/>
	<line style="fill:none;stroke:#FFFFFF;stroke-width:5;stroke-miterlimit:10;" x1="148.1" y1="311.9" x2="326.4" y2="311.9"/>
	<path style="fill:none;stroke:#FFFFFF;stroke-width:5;stroke-miterlimit:10;" d="M326.4,336.7V232.2c0,0,7.5-48.7,52.4-43.9"/>
	<path style="fill:none;stroke:#FFFFFF;stroke-width:5;stroke-miterlimit:10;" d="M407.8,187.9h51.4c0,0,12.9,0.1,12.6,13.7
		c-0.1,3.4-0.1,9.4-0.1,16.7c0,0.9,0.1,54.7,0.1,54.7h-64c0,0-16.4,2-20.3-14.3c0,0-8-42.8,21.3-37.7"/>
	<line style="fill:none;stroke:#FFFFFF;stroke-width:5;stroke-miterlimit:10;" x1="405.4" y1="220.6" x2="471.8" y2="221"/>
	<path style="fill:none;stroke:#FFFFFF;stroke-width:5;stroke-miterlimit:10;" d="M471.8,273c0,0,27.9,9.7,28.2,9.9s6.1,3,6.8,10.5
		c0.7,7.5,0,32.4,0,32.4s-1.7,11.6-8.9,14.6h-33"/>
	<path style="fill:none;stroke:#FFFFFF;stroke-width:5;stroke-miterlimit:10;" d="M326.4,253.9c0,0-23.6-1.4-23.4,0
		c0,0-6.9-1.6-9.3,7.5v50.4"/>
	<line style="fill:none;stroke:#FFFFFF;stroke-width:5;stroke-miterlimit:10;" x1="120.8" y1="159.8" x2="78.6" y2="232.2"/>
	<line style="fill:none;stroke:#FFFFFF;stroke-width:5;stroke-miterlimit:10;" x1="189.9" y1="159" x2="118.2" y2="279"/>
	<line style="fill:none;stroke:#FFFFFF;stroke-width:5;stroke-miterlimit:10;" x1="253.6" y1="159.3" x2="184.1" y2="282.3"/>
</g>
</svg>
