<?xml version="1.0" encoding="utf-8"?>
<!-- Generator: Adobe Illustrator 24.0.1, SVG Export Plug-In . SVG Version: 6.00 Build 0)  -->
<svg version="1.1" id="Layer_2" xmlns="http://www.w3.org/2000/svg" xmlns:xlink="http://www.w3.org/1999/xlink" x="0px" y="0px"
	 viewBox="0 0 512 512" style="enable-background:new 0 0 512 512;" xml:space="preserve">
<g>
	<circle style="fill:none;stroke:#FFFFFF;stroke-width:5;stroke-miterlimit:10;" cx="120" cy="346" r="109"/>
	<circle style="fill:none;stroke:#FFFFFF;stroke-width:5;stroke-miterlimit:10;" cx="120" cy="346" r="25"/>
	<circle style="fill:none;stroke:#FFFFFF;stroke-width:5;stroke-miterlimit:10;" cx="422" cy="376" r="77.5"/>
	<circle style="fill:none;stroke:#FFFFFF;stroke-width:5;stroke-miterlimit:10;" cx="422" cy="376" r="11.5"/>
	<line style="fill:none;stroke:#FFFFFF;stroke-width:5;stroke-miterlimit:10;" x1="54" y1="58" x2="273" y2="58"/>
	<path style="fill:none;stroke:#FFFFFF;stroke-width:5;stroke-miterlimit:10;" d="M21,211c0,0,182.7-119.3,250.2,90
		c6.9,21.4,12.6,46.2,16.8,75h56.5"/>
	<line style="fill:none;stroke:#FFFFFF;stroke-width:5;stroke-miterlimit:10;" x1="380.8" y1="310.3" x2="274.1" y2="310.3"/>
	<path style="fill:none;stroke:#FFFFFF;stroke-width:5;stroke-miterlimit:10;" d="M221.6,213.5h188.9c0,0,46.5-9.5,56.5,42.5v56.9"
		/>
	<line style="fill:none;stroke:#FFFFFF;stroke-width:5;stroke-miterlimit:10;" x1="240" y1="58" x2="285" y2="212.8"/>
	<line style="fill:none;stroke:#FFFFFF;stroke-width:5;stroke-miterlimit:10;" x1="88" y1="58" x2="88" y2="182.8"/>
	<path style="fill:none;stroke:#FFFFFF;stroke-width:5;stroke-miterlimit:10;" d="M407,91c0,0-29.3,1.8-26.2,29.4v93.1"/>
</g>
</svg>
