<?xml version="1.0" encoding="utf-8"?>
<!-- Generator: Adobe Illustrator 24.0.1, SVG Export Plug-In . SVG Version: 6.00 Build 0)  -->
<svg version="1.1" xmlns="http://www.w3.org/2000/svg" xmlns:xlink="http://www.w3.org/1999/xlink" x="0px" y="0px"
	 viewBox="0 0 512 512" style="enable-background:new 0 0 512 512;" xml:space="preserve">
<g id="Capa_1" style="display:none;">
	<g style="display:inline;">
		<g>
			<path d="M95.8,344.7L95.8,344.7c-4.2,0-7.5,3.4-7.5,7.5s3.4,7.5,7.5,7.5s7.5-3.4,7.5-7.5S99.9,344.7,95.8,344.7z"/>
		</g>
	</g>
	<g style="display:inline;">
		<g>
			<path d="M159.9,344.7L159.9,344.7c-4.2,0-7.5,3.4-7.5,7.5s3.4,7.5,7.5,7.5s7.5-3.4,7.5-7.5C167.4,348,164,344.7,159.9,344.7z"/>
		</g>
	</g>
	<g style="display:inline;">
		<g>
			<path d="M424.4,344.7L424.4,344.7c-4.2,0-7.5,3.4-7.5,7.5s3.4,7.5,7.5,7.5s7.5-3.4,7.5-7.5C431.9,348,428.6,344.7,424.4,344.7z"
				/>
		</g>
	</g>
	<g style="display:inline;">
		<g>
			<path d="M505.1,254L495,243.9L474.7,183c3-1,5.2-3.8,5.2-7.1c0-4.1-3.4-7.5-7.5-7.5h-72.7v-32.6c0-8.6-7-15.5-15.5-15.5H15.5
				c-8.6,0-15.5,7-15.5,15.5v176.4c0,8.6,7,15.5,15.5,15.5H24v16.5c0,8.6,7,15.5,15.5,15.5h17.3c3.5,18.2,19.6,32.1,38.8,32.1
				c13.2,0,24.9-6.5,32.1-16.4c7.2,9.9,18.9,16.4,32.1,16.4c19.3,0,35.3-13.8,38.8-32.1h186.8c3.5,18.2,19.6,32.1,38.8,32.1
				c21.8,0,39.6-17.7,39.6-39.6c0-0.2,0-0.3,0-0.5h32.6c8.6,0,15.5-7,15.5-15.5v-65.5C512,264.4,509.6,258.5,505.1,254z M56.8,344.7
				H39.6c-0.3,0-0.5-0.2-0.5-0.5v-16.5h25.6C60.8,332.5,58.1,338.3,56.8,344.7z M95.7,376.8c-13.5,0-24.6-11-24.6-24.6
				c0-13.5,10.9-24.5,24.4-24.6h0.3c13.5,0.1,24.4,11.1,24.4,24.6C120.2,365.7,109.2,376.8,95.7,376.8z M159.8,376.8
				c-13.5,0-24.6-11-24.6-24.6c0-13.5,10.9-24.5,24.4-24.6h0.3c13.5,0.1,24.4,11.1,24.4,24.6C184.4,365.7,173.4,376.8,159.8,376.8z
				 M385.5,344.7H198.6c-1.2-6.4-4-12.2-7.9-17.1h145.4c4.1,0,7.5-3.4,7.5-7.5s-3.4-7.5-7.5-7.5H15.5c-0.3,0-0.5-0.2-0.5-0.5V135.8
				c0-0.3,0.2-0.5,0.5-0.5h368.7c0.3,0,0.5,0.2,0.5,0.5v176.9h-16.5c-4.1,0-7.5,3.4-7.5,7.5s3.4,7.5,7.5,7.5h25.1
				C389.5,332.5,386.7,338.3,385.5,344.7z M480.7,248.5h-48.4c-0.3,0-0.5-0.2-0.5-0.5v-32.6h37.9L480.7,248.5z M424.3,376.8
				c-13.5,0-24.6-11-24.6-24.6c0-13.5,10.9-24.5,24.4-24.6h0.2c0,0,0,0,0.1,0c13.5,0,24.5,11,24.5,24.6
				C448.9,365.7,437.9,376.8,424.3,376.8z M497,336.2c0,0.3-0.2,0.5-0.5,0.5h-35.8c-6-14.1-20.1-24.1-36.4-24.1c-0.1,0-0.1,0-0.2,0
				h-24.4V183.9v0c0-0.3,0.2-0.5,0.5-0.5H459l5.7,17.1h-40.4c-4.1,0-7.5,3.4-7.5,7.5V248c0,8.6,7,15.5,15.5,15.5h61l1.1,1.1
				c1.6,1.6,2.5,3.8,2.5,6v17.9h-8.5c-4.1,0-7.5,3.4-7.5,7.5s3.4,7.5,7.5,7.5h8.5V336.2z"/>
		</g>
	</g>
	<g style="display:inline;">
		<g>
			<path d="M360.2,280.6H39.6c-4.1,0-7.5,3.4-7.5,7.5s3.4,7.5,7.5,7.5h320.6c4.1,0,7.5-3.4,7.5-7.5
				C367.7,283.9,364.4,280.6,360.2,280.6z"/>
		</g>
	</g>
</g>
<g id="Layer_2">
	<path style="fill:none;stroke:#FFFFFF;stroke-width:5;stroke-miterlimit:10;" d="M339,321H20c0,0-14,4-13-14S6.9,140,6.9,140
		S5,128,15,128h361c0,0,15.7-5.5,17.4,7.2s0,185.8,0,185.8h-25.6"/>
	<line style="fill:none;stroke:#FFFFFF;stroke-width:5;stroke-miterlimit:10;" x1="39" y1="288.1" x2="358" y2="288.1"/>
	
		<line style="fill:none;stroke:#FFFFFF;stroke-width:5;stroke-linecap:round;stroke-miterlimit:10;" x1="394.1" y1="175" x2="473" y2="175"/>
	<circle style="fill:none;stroke:#FFFFFF;stroke-width:5;stroke-miterlimit:10;" cx="96.6" cy="351.3" r="30.3"/>
	<circle style="fill:none;stroke:#FFFFFF;stroke-width:5;stroke-miterlimit:10;" cx="159.9" cy="351.3" r="30.3"/>
	<circle style="fill:none;stroke:#FFFFFF;stroke-width:5;stroke-miterlimit:10;" cx="424.4" cy="352.2" r="30.3"/>
	<circle style="fill:none;stroke:#FFFFFF;stroke-width:5;stroke-miterlimit:10;" cx="95.7" cy="351.3" r="4.3"/>
	<circle style="fill:none;stroke:#FFFFFF;stroke-width:5;stroke-miterlimit:10;" cx="159.9" cy="352.2" r="4.3"/>
	<circle style="fill:none;stroke:#FFFFFF;stroke-width:5;stroke-miterlimit:10;" cx="424.4" cy="352.2" r="4.3"/>
	<path style="fill:none;stroke:#FFFFFF;stroke-width:5;stroke-miterlimit:10;" d="M32.1,321v23.7c0,0-4.1,15.4,12.9,10.9l21.4,0.8"
		/>
	<line style="fill:none;stroke:#FFFFFF;stroke-width:5;stroke-miterlimit:10;" x1="190.2" y1="351.3" x2="394.1" y2="352.2"/>
	<line style="fill:none;stroke:#FFFFFF;stroke-width:5;stroke-miterlimit:10;" x1="393.4" y1="321" x2="424.4" y2="321.9"/>
	<path style="fill:none;stroke:#FFFFFF;stroke-width:5;stroke-miterlimit:10;" d="M464,175l27,81c0,0,16,2,16,20v56
		c0,0.6,0.1,7.7-5.2,11.1c-1.7,1.1-3.5,1.5-4.8,1.6c-14.3,0.8-28.5,1.6-42.8,2.3"/>
	
		<line style="fill:none;stroke:#FFFFFF;stroke-width:5;stroke-linecap:round;stroke-miterlimit:10;" x1="489" y1="295.6" x2="507" y2="295.6"/>
	<polyline style="fill:none;stroke:#FFFFFF;stroke-width:5;stroke-miterlimit:10;" points="475,208 424.4,208 424.4,248.5 489,250 	
		"/>
</g>
</svg>
