<?xml version="1.0" encoding="utf-8"?>
<!-- Generator: Adobe Illustrator 24.0.1, SVG Export Plug-In . SVG Version: 6.00 Build 0)  -->
<svg version="1.1" id="Layer_2" xmlns="http://www.w3.org/2000/svg" xmlns:xlink="http://www.w3.org/1999/xlink" x="0px" y="0px"
	 viewBox="0 0 512 512" style="enable-background:new 0 0 512 512;" xml:space="preserve">
<path style="fill:none;stroke:#FFB600;stroke-width:5;stroke-miterlimit:10;" d="M126.5,287.2l139-173.4c0,0,30.6-28.9,64.7,0
	l25.3,13.3l91,48c0,0,23.9,20,1.1,37L157.4,280L126.5,287.2z"/>
<path style="fill:none;stroke:#FFB600;stroke-width:5;stroke-miterlimit:10;" d="M384.5,84.2"/>
<line style="fill:none;stroke:#FFB600;stroke-width:5;stroke-miterlimit:10;" x1="192.5" y1="306.2" x2="157.4" y2="280"/>
<line style="fill:none;stroke:#FFB600;stroke-width:5;stroke-miterlimit:10;" x1="256.1" y1="287.2" x2="233.5" y2="262.2"/>
<path style="fill:none;stroke:#FFB600;stroke-width:5;stroke-miterlimit:10;" d="M321.6,266.2c-0.1-1.4-0.1-1.4-0.1-1.4l-16-19.4"/>
<line style="fill:none;stroke:#FFB600;stroke-width:5;stroke-miterlimit:10;" x1="384.5" y1="244.2" x2="372.5" y2="226.8"/>
<polyline style="fill:none;stroke:#FFB600;stroke-width:5;stroke-miterlimit:10;" points="174.9,226.7 8.5,274.7 157.4,360.2 
	499.5,252.5 436.8,214.7 "/>
<polyline style="fill:none;stroke:#FFB600;stroke-width:5;stroke-miterlimit:10;" points="8.5,274.7 8.5,421.2 157.4,507.2 
	499.5,400.2 499.5,252.5 "/>
<line style="fill:none;stroke:#FFB600;stroke-width:5;stroke-miterlimit:10;" x1="157.4" y1="360.2" x2="157.4" y2="507.2"/>
<path style="fill:none;stroke:#FFB600;stroke-width:5;stroke-miterlimit:10;" d="M270,194.1l85.4-66.9l16.1-38l13-5c0,0-2-12,11-20
	s61.9-46,61.9-46s34.4-8,44.1,10.3s-18,35.7-18,35.7l-80.8,22c-13.1,3.6-18.2-2-18.2-2"/>
</svg>
