<?xml version="1.0" encoding="utf-8"?>
<!-- Generator: Adobe Illustrator 24.0.1, SVG Export Plug-In . SVG Version: 6.00 Build 0)  -->
<svg version="1.1" id="Layer_2" xmlns="http://www.w3.org/2000/svg" xmlns:xlink="http://www.w3.org/1999/xlink" x="0px" y="0px"
	 viewBox="0 0 512 512" style="enable-background:new 0 0 512 512;" xml:space="preserve">
<path style="fill:none;stroke:#FFB600;stroke-width:5;stroke-miterlimit:10;" d="M292.9,138H105c0,0-12-1-11,8s-0.1,40-0.1,40
	s3.1,15,14.1,12s298,0.4,298,0.4s12-1.4,12-12.4s0-40,0-40s-3-11.1-14-8c-11,3-78-0.5-78-0.5"/>
<path style="fill:none;stroke:#FFB600;stroke-width:5;stroke-miterlimit:10;" d="M399,198.3l23,273.2c0,0,3.9,32.5-23,34.5
	c-27,2-279,0-279,0s-25.1-4-26.1-25C93,460,109,274,109,274"/>
<line style="fill:none;stroke:#FFB600;stroke-width:5;stroke-miterlimit:10;" x1="108" y1="240" x2="113" y2="197.5"/>
<path style="fill:none;stroke:#FFB600;stroke-width:5;stroke-miterlimit:10;" d="M143.2,138.6c0,0,29.3-15,30.9-20.6
	c1.6-5.7,25.6-54.1,36.3-42.7"/>
<path style="fill:none;stroke:#FFB600;stroke-width:5;stroke-miterlimit:10;" d="M220,58c0,0,17.4-22.5,22.3-27.6
	s40.3-12.5,50.5,13.8C303,70.6,303.3,49.5,316,58s12,27.6,12,27.6s8,14.3,21,9.2s34,38.2,26,44.3"/>
<circle style="fill:none;stroke:#FFB600;stroke-width:5;stroke-miterlimit:10;" cx="225.5" cy="99.9" r="6.4"/>
<circle style="fill:none;stroke:#FFB600;stroke-width:5;stroke-miterlimit:10;" cx="245" cy="106.3" r="6.2"/>
<circle style="fill:none;stroke:#FFB600;stroke-width:5;stroke-miterlimit:10;" cx="256" cy="334.7" r="71"/>
<line style="fill:none;stroke:#FFB600;stroke-width:5;stroke-miterlimit:10;" x1="256" y1="263.7" x2="256" y2="405.7"/>
<line style="fill:none;stroke:#FFB600;stroke-width:5;stroke-miterlimit:10;" x1="234.8" y1="334.7" x2="279" y2="334.7"/>
<line style="fill:none;stroke:#FFB600;stroke-width:5;stroke-miterlimit:10;" x1="137" y1="444" x2="157.6" y2="444"/>
<line style="fill:none;stroke:#FFB600;stroke-width:5;stroke-miterlimit:10;" x1="137" y1="464" x2="179" y2="464"/>
</svg>
