<?xml version="1.0" encoding="utf-8"?>
<!-- Generator: Adobe Illustrator 24.0.1, SVG Export Plug-In . SVG Version: 6.00 Build 0)  -->
<svg version="1.1" id="Layer_2_1_" xmlns="http://www.w3.org/2000/svg" xmlns:xlink="http://www.w3.org/1999/xlink" x="0px" y="0px"
	 viewBox="0 0 504 504" style="enable-background:new 0 0 504 504;" xml:space="preserve">
<polygon style="fill:none;stroke:#FFB600;stroke-width:5;stroke-miterlimit:10;" points="252,252 129.2,170 162,137 215.4,165 
	190.6,111 237.8,65 292.8,129.5 237.8,60 292.8,8 376,124 "/>
<path style="fill:none;stroke:#FFB600;stroke-width:5;stroke-miterlimit:10;" d="M376,124c0,0,12-16,23,0s52,53.4,52,53.4
	L304.2,322.1L252,267.5c0,0-8.9-6.3,0-15.5"/>
<path style="fill:none;stroke:#FFB600;stroke-width:5;stroke-miterlimit:10;" d="M349.5,277.4c0,0,20.2-1.4,43.8,25.8
	c0,0,27.2,65.8,44.9,65.8c17.7,0,53.7-0.2,58.7-56.6c0,0,3.5-7.8-46-35s-45.2-55.5-45.2-55.5"/>
<path style="fill:none;stroke:#FFB600;stroke-width:5;stroke-miterlimit:10;" d="M129.2,170c0,0-94.2,5.4-123.2,26.7
	s193,51.9,213.5,33.6"/>
<path style="fill:none;stroke:#FFB600;stroke-width:5;stroke-miterlimit:10;" d="M46.3,219.5c0,0,17.8-20.6,132.3-16.6"/>
<path style="fill:none;stroke:#FFB600;stroke-width:5;stroke-miterlimit:10;" d="M4.1,202.9v34.9c0,0,78.9,47.1,243.9,22.4"/>
<path style="fill:none;stroke:#FFB600;stroke-width:5;stroke-miterlimit:10;" d="M19,244.7L16.8,464c0,0,136.2,60,300.2,0V312.4"/>
<line style="fill:none;stroke:#FFB600;stroke-width:5;stroke-miterlimit:10;" x1="50.4" y1="285.4" x2="50.4" y2="303.2"/>
<line style="fill:none;stroke:#FFB600;stroke-width:5;stroke-miterlimit:10;" x1="50.4" y1="338" x2="50.4" y2="444"/>
<text transform="matrix(1.022 0 0 1 111.4365 378.4126)" style="fill:none;stroke:#FFB600;stroke-miterlimit:10; font-family:'ArialMT'; font-size:64.831px;">Paint</text>
<text transform="matrix(1.022 0 0 1 111.4365 378.4126)" style="fill:none;stroke:#FFB600;stroke-miterlimit:10; font-family:'ArialMT'; font-size:64.831px;">Paint</text>
</svg>
