<?xml version="1.0" encoding="utf-8"?>
<!-- Generator: Adobe Illustrator 24.0.1, SVG Export Plug-In . SVG Version: 6.00 Build 0)  -->
<svg version="1.1" id="Layer_2_1_" xmlns="http://www.w3.org/2000/svg" xmlns:xlink="http://www.w3.org/1999/xlink" x="0px" y="0px"
	 viewBox="0 0 512 512" style="enable-background:new 0 0 512 512;" xml:space="preserve">
<g>
	<path style="fill:none;stroke:#FFB600;stroke-width:5;stroke-miterlimit:10;" d="M72,186l18-26.2c0,0,3-4.8,10.5-6.8s99.5,0,99.5,0
		s15-1.9,16,16.1s0,163.9,0,163.9h-19c0,0-7.9-12-26.9-12s-69.6,0-69.6,0s-5.3,4.5-14.5,12l-20,40.4v27.2h25"/>
	<polyline style="fill:none;stroke:#FFB600;stroke-width:5;stroke-miterlimit:10;" points="193.4,401.2 214.8,402.1 216,375.2 
		190.5,326.9 	"/>
	<path style="fill:none;stroke:#FFB600;stroke-width:5;stroke-miterlimit:10;" d="M52,217c0,0-17,28.5-17,26.7s0-1.7,0-1.7v88v17
		l31,27.4"/>
	<line style="fill:none;stroke:#FFB600;stroke-width:5;stroke-miterlimit:10;" x1="86" y1="334" x2="35" y2="334"/>
	<path style="fill:none;stroke:#FFB600;stroke-width:5;stroke-miterlimit:10;" d="M161,153.3V226c0,0,1.7,23.7-18.1,17.7H35"/>
	<line style="fill:none;stroke:#FFB600;stroke-width:5;stroke-miterlimit:10;" x1="123.1" y1="276.5" x2="142.9" y2="276.5"/>
	<path style="fill:none;stroke:#FFB600;stroke-width:5;stroke-miterlimit:10;" d="M35,283.7c0,0-13.7-5.2-22.4,13.1
		c0,0,11.6,25.9,22.4,15.8"/>
	<circle style="fill:none;stroke:#FFB600;stroke-width:5;stroke-miterlimit:10;" cx="142.9" cy="401.6" r="50.8"/>
	<circle style="fill:none;stroke:#FFB600;stroke-width:5;stroke-miterlimit:10;" cx="393.2" cy="401.6" r="50.8"/>
	<circle style="fill:none;stroke:#FFB600;stroke-width:5;stroke-miterlimit:10;" cx="142.9" cy="401.6" r="28.7"/>
	<circle style="fill:none;stroke:#FFB600;stroke-width:5;stroke-miterlimit:10;" cx="393.2" cy="401.6" r="28.7"/>
	<line style="fill:none;stroke:#FFB600;stroke-width:5;stroke-miterlimit:10;" x1="215.4" y1="389" x2="320" y2="389"/>
	<path style="fill:none;stroke:#FFB600;stroke-width:5;stroke-miterlimit:10;" d="M466.3,394.9c-6.9,0-13.7,0-20.6,0"/>
	<path style="fill:none;stroke:#FFB600;stroke-width:5;stroke-miterlimit:10;" d="M342.4,401.6C335,402,328,402,321,402
		c-4-12-4-26,3-37c9-13,15-26,23-38c29,0,58,0,87,0c2,0,3,2,4,3c9,15,19,28,27,43c0,8,0,16-0.4,24.4"/>
	<line style="fill:none;stroke:#FFB600;stroke-width:5;stroke-miterlimit:10;" x1="216" y1="334" x2="342.4" y2="334.6"/>
	<path style="fill:none;stroke:#FFB600;stroke-width:5;stroke-miterlimit:10;" d="M216,295.7h269c0,0,19-6.1,20,25.1s0,59.8,0,59.8
		s7.5,11.1-40,8.4"/>
	<line style="fill:none;stroke:#FFB600;stroke-width:5;stroke-miterlimit:10;" x1="444" y1="340" x2="505.4" y2="340"/>
	<path style="fill:none;stroke:#FFB600;stroke-width:5;stroke-miterlimit:10;" d="M459.3,78L371,64l-89.8,35.2
		c-0.1,1.1-0.5,2.2-1.2,3l12,30.8l-16.4-27.1l-41.8,49.7c-15.2,8.7-8.8,26-8.8,26c9,11.6,43.1,113.5,43.1,113.5h109.3l66.7-26
		l61.4-77.2L459.3,78z"/>
	<line style="fill:none;stroke:#FFB600;stroke-width:5;stroke-miterlimit:10;" x1="364.5" y1="66.5" x2="444" y2="269.2"/>
	<line style="fill:none;stroke:#FFB600;stroke-width:5;stroke-miterlimit:10;" x1="354" y1="295.2" x2="303" y2="160.8"/>
	<path style="fill:none;stroke:#FFB600;stroke-width:5;stroke-miterlimit:10;" d="M275.6,105.9"/>
	<line style="fill:none;stroke:#FFB600;stroke-width:5;stroke-miterlimit:10;" x1="280.9" y1="98.8" x2="277.3" y2="103.9"/>
</g>
</svg>
