<?xml version="1.0" encoding="utf-8"?>
<!-- Generator: Adobe Illustrator 24.0.1, SVG Export Plug-In . SVG Version: 6.00 Build 0)  -->
<svg version="1.1" id="Layer_2" xmlns="http://www.w3.org/2000/svg" xmlns:xlink="http://www.w3.org/1999/xlink" x="0px" y="0px"
	 viewBox="0 0 512 512" style="enable-background:new 0 0 512 512;" xml:space="preserve">
<g>
	<polygon style="fill:none;stroke:#FFB600;stroke-width:4;stroke-miterlimit:10;" points="70,166.9 123.9,115 131,121.6 
		123.9,166.9 78.7,178 	"/>
	<path style="fill:none;stroke:#FFB600;stroke-width:4;stroke-miterlimit:10;" d="M27,153.5L110,71c0,0,14-6,21,0s35,32.5,35,32.5
		s8,10.5,3.5,22.5s-15,40.9-15,40.9l51.5,53.7l12-5.6c0,0,6.1-4,11.5-4s42.5-5,52.5,1s10,6,10,6l46,49.5c0,0,37-4.5,56,0
		c0,0,17,0.6,21,7.6s33,38.9,33,38.9H162H60.6l63.3-67.2c0,0,13.1-6.8,24.1-6.8c20,0,20,0,20,0l-37-41l-61,17c0,0-44-46-43-44
		C27,172,21.2,159.2,27,153.5z"/>
	<polyline style="fill:none;stroke:#FFB600;stroke-width:4;stroke-miterlimit:10;" points="168,240 198,240 218,215 	"/>
	<path style="fill:none;stroke:#FFB600;stroke-width:4;stroke-miterlimit:10;" d="M448,314h49c0,0,26.9,19.8,0,29H32.6H19
		c0,0-21-18,0-29h41.6"/>
	<path style="fill:none;stroke:#FFB600;stroke-width:4;stroke-miterlimit:10;" d="M32.6,416c0,0,11.4,33,37.4,30s167,0.2,167,0.2"/>
	<path style="fill:none;stroke:#FFB600;stroke-width:4;stroke-miterlimit:10;" d="M278,442h170c0,0,33.9-2.8,28-39"/>
	<line style="fill:none;stroke:#FFB600;stroke-width:4;stroke-miterlimit:10;" x1="476.7" y1="367" x2="476.7" y2="343"/>
	<circle style="fill:none;stroke:#FFB600;stroke-width:4;stroke-miterlimit:10;" cx="162.4" cy="284.2" r="5.3"/>
	<circle style="fill:none;stroke:#FFB600;stroke-width:4;stroke-miterlimit:10;" cx="240.4" cy="258.5" r="4.2"/>
	<circle style="fill:none;stroke:#FFB600;stroke-width:4;stroke-miterlimit:10;" cx="278.5" cy="278.2" r="6.4"/>
</g>
</svg>
