<?xml version="1.0" encoding="utf-8"?>
<!-- Generator: Adobe Illustrator 24.0.1, SVG Export Plug-In . SVG Version: 6.00 Build 0)  -->
<svg version="1.1" id="Layer_2" xmlns="http://www.w3.org/2000/svg" xmlns:xlink="http://www.w3.org/1999/xlink" x="0px" y="0px"
	 viewBox="0 0 512 512" style="enable-background:new 0 0 512 512;" xml:space="preserve">
<path style="fill:#FFB600;stroke:#FFB600;stroke-width:5;stroke-miterlimit:10;" d="M184.1,37.9c0,0,26.1-25.4,60.6-17.2
	C244.6,20.7,227.4,42.9,184.1,37.9z"/>
<path style="fill:none;stroke:#FFB600;stroke-width:5;stroke-miterlimit:10;" d="M186.3,49c0,0,26.6,3.4,56.7-13.5
	c0,0-3.2,69.9,5.3,100.6c0,0-32.8,29.1-70.6,0C177.6,136.1,203.2,57.9,186.3,49z"/>
<path style="fill:none;stroke:#FFB600;stroke-width:5;stroke-miterlimit:10;" d="M183.1,152.2c0,0,26.9,16.8,59.4-0.7
	c0,0-17.1,67.4,5.7,99c0,0-31.6,32.9-69.3,2.9S213.3,267,183.1,152.2z"/>
<path style="fill:none;stroke:#FFB600;stroke-width:5;stroke-miterlimit:10;" d="M183.1,267.8c0,0,19.2,15.9,59.4-0.7
	c0,0-16,57.3,5.7,99c0,0-34.2,34.4-71.1,0C177.1,366.1,202,313.2,183.1,267.8z"/>
<path style="fill:none;stroke:#FFB600;stroke-width:5;stroke-miterlimit:10;" d="M183.1,383.3c0,0,32.5,15.5,59.4-0.7
	c0,0-18.1,78.2,6.4,94.1c24.5,15.8-56.9,32-70,7.8S209.2,462.6,183.1,383.3z"/>
<g>
	<path style="fill:#FFB600;stroke:#FFB600;stroke-width:5;stroke-miterlimit:10;" d="M381.6,62.3c0,0,32.7-16.1,62.9,2.4
		C444.5,64.7,421.2,80.4,381.6,62.3z"/>
	<path style="fill:none;stroke:#FFB600;stroke-width:5;stroke-miterlimit:10;" d="M380.2,73.5c0,0,24.3,11.4,58.1,4.7
		c0,0-24.7,65.5-26.2,97.3c0,0-40.2,17.5-67.2-21.9C345,153.6,393.5,87.2,380.2,73.5z"/>
	<path style="fill:none;stroke:#FFB600;stroke-width:5;stroke-miterlimit:10;" d="M345.2,170.7c0,0,20.4,24.3,56.7,17.7
		c0,0-37.1,58.8-25.3,95.9c0,0-40.2,21.5-66.8-18.7S338.3,289.1,345.2,170.7z"/>
	<path style="fill:none;stroke:#FFB600;stroke-width:5;stroke-miterlimit:10;" d="M309.4,280.5c0,0,13.3,21.1,56.7,17.7
		c0,0-33,49.5-25.3,95.9c0,0-43.2,22.1-67.6-22C273.2,372.1,313.3,329.6,309.4,280.5z"/>
</g>
<path style="fill:none;stroke:#FFB600;stroke-width:5;stroke-miterlimit:10;" d="M329.2,411.1c-18.4-1.2-38.4-9-52.3-15.6
	c0,0.1-0.1,0.3-0.1,0.4c10,8.1-23.9,71.8-23.9,71.8c12,9.3,2.4,28.5,2.4,28.5c48.2,21.7,52.8,2,52.8,2
	C294.2,471.3,329.2,411.1,329.2,411.1z"/>
</svg>
