<?xml version="1.0" encoding="utf-8"?>
<!-- Generator: Adobe Illustrator 24.0.1, SVG Export Plug-In . SVG Version: 6.00 Build 0)  -->
<svg version="1.1" id="Layer_2" xmlns="http://www.w3.org/2000/svg" xmlns:xlink="http://www.w3.org/1999/xlink" x="0px" y="0px"
	 viewBox="0 0 512 512" style="enable-background:new 0 0 512 512;" xml:space="preserve">
<path style="fill:none;stroke:#FFFFFF;stroke-width:5;stroke-linecap:round;stroke-linejoin:round;stroke-miterlimit:10;" d="
	M79,224h357c9.2,3.3,30.9,12.5,48,35c22.3,29.4,21.5,61.2,21,70c1.6,15.2,1.1,35.1-6.5,56.4c-4.4,12.3-17.2,48.4-47.5,59.6
	c-21,7.8-46.2,2.2-46.3,4.1c0,0.6,2.2,1.6,3.3,0.9c1.5-1,0.3-5.2-0.7-8c-0.8-8.7-1.5-17.3-2.3-26c-17.7,0.3-35.3,0.7-53,1
	c0,2.7,0,5.3,0,8c0,8.3,0,16.7,0,25c-62.7,0-125.3,0-188,0l-4.8-32l-46.3-2l-4.8,34H72c0,0-66-10-57-122C15,328,4,241,79,224z"/>
<rect x="112.2" y="256" style="fill:none;stroke:#FFFFFF;stroke-width:5;stroke-linecap:round;stroke-linejoin:round;stroke-miterlimit:10;" width="124.8" height="72"/>
<polyline style="fill:none;stroke:#FFFFFF;stroke-width:5;stroke-linecap:round;stroke-linejoin:round;stroke-miterlimit:10;" points="
	108,450 104,493 168,493 164,450 "/>
<path style="fill:none;stroke:#FFFFFF;stroke-width:5;stroke-linecap:round;stroke-linejoin:round;stroke-miterlimit:10;" d="
	M80,493c24,0,24,0,24,0"/>
<path style="fill:none;stroke:#FFFFFF;stroke-width:5;stroke-linecap:round;stroke-linejoin:round;stroke-miterlimit:10;" d="
	M192,493c-24,0-24,0-24,0"/>
<line style="fill:none;stroke:#FFFFFF;stroke-width:5;stroke-linecap:round;stroke-linejoin:round;stroke-miterlimit:10;" x1="80" y1="450" x2="79" y2="224"/>
<line style="fill:none;stroke:#FFFFFF;stroke-width:5;stroke-linecap:round;stroke-linejoin:round;stroke-miterlimit:10;" x1="436" y1="224" x2="436" y2="445.8"/>
<line style="fill:none;stroke:#FFFFFF;stroke-width:5;stroke-linecap:round;stroke-linejoin:round;stroke-miterlimit:10;" x1="360" y1="334.9" x2="360" y2="381"/>
<circle style="fill:none;stroke:#FFFFFF;stroke-width:5;stroke-linecap:round;stroke-linejoin:round;stroke-miterlimit:10;" cx="360" cy="343.4" r="41.8"/>
<circle style="fill:none;stroke:#FFFFFF;stroke-width:5;stroke-linecap:round;stroke-linejoin:round;stroke-miterlimit:10;" cx="392" cy="80" r="45.6"/>
<circle style="fill:none;stroke:#FFFFFF;stroke-width:5;stroke-linecap:round;stroke-linejoin:round;stroke-miterlimit:10;" cx="144" cy="144" r="48"/>
<circle style="fill:none;stroke:#FFFFFF;stroke-width:5;stroke-linecap:round;stroke-linejoin:round;stroke-miterlimit:10;" cx="144" cy="144" r="23.3"/>
<circle style="fill:none;stroke:#FFFFFF;stroke-width:5;stroke-linecap:round;stroke-linejoin:round;stroke-miterlimit:10;" cx="304" cy="158.4" r="32.5"/>
<circle style="fill:none;stroke:#FFFFFF;stroke-width:5;stroke-linecap:round;stroke-linejoin:round;stroke-miterlimit:10;" cx="48" cy="272" r="6"/>
<circle style="fill:none;stroke:#FFFFFF;stroke-width:5;stroke-linecap:round;stroke-linejoin:round;stroke-miterlimit:10;" cx="48" cy="304" r="6"/>
<circle style="fill:none;stroke:#FFFFFF;stroke-width:5;stroke-linecap:round;stroke-linejoin:round;stroke-miterlimit:10;" cx="48" cy="337" r="6"/>
<circle style="fill:none;stroke:#FFFFFF;stroke-width:5;stroke-linecap:round;stroke-linejoin:round;stroke-miterlimit:10;" cx="464" cy="400" r="6"/>
<circle style="fill:none;stroke:#FFFFFF;stroke-width:5;stroke-linecap:round;stroke-linejoin:round;stroke-miterlimit:10;" cx="464" cy="368" r="6"/>
<circle style="fill:none;stroke:#FFFFFF;stroke-width:5;stroke-linecap:round;stroke-linejoin:round;stroke-miterlimit:10;" cx="464" cy="334.9" r="6"/>
<polyline style="fill:none;stroke:#FFFFFF;stroke-width:5;stroke-linecap:round;stroke-linejoin:round;stroke-miterlimit:10;" points="
	392,56 392,86 399.2,96 "/>
<polyline style="fill:none;stroke:#FFFFFF;stroke-width:5;stroke-linecap:round;stroke-linejoin:round;stroke-miterlimit:10;" points="
	464,120 412.5,120.7 412.5,224 "/>
<ellipse style="fill:none;stroke:#FFFFFF;stroke-width:5;stroke-linecap:round;stroke-linejoin:round;stroke-miterlimit:10;" cx="480" cy="128.9" rx="18" ry="26"/>
<line style="fill:none;stroke:#FFFFFF;stroke-width:5;stroke-linecap:round;stroke-linejoin:round;stroke-miterlimit:10;" x1="370.1" y1="120" x2="370.1" y2="224"/>
<path style="fill:none;stroke:#FFFFFF;stroke-width:5;stroke-linecap:round;stroke-linejoin:round;stroke-miterlimit:10;" d="
	M112.8,224c0,0-7.9-37,15.2-34.7s190.2-0.1,190.2-0.1S347,194,336.5,224"/>
<line style="fill:none;stroke:#FFFFFF;stroke-width:5;stroke-linecap:round;stroke-linejoin:round;stroke-miterlimit:10;" x1="152" y1="96.7" x2="304" y2="125.9"/>
<polyline style="fill:none;stroke:#FFFFFF;stroke-width:5;stroke-linecap:round;stroke-linejoin:round;stroke-miterlimit:10;" points="
	34.2,251.2 34.2,184 48,184 66,184 66,227.9 "/>
<path style="fill:none;stroke:#FFFFFF;stroke-width:5;stroke-linecap:round;stroke-linejoin:round;stroke-miterlimit:10;" d="
	M84.1,48c0,0,3.9,12,11.9,18l96-2c16-12,0-29.7,0-29.7l-88,0.1C104,34.4,91.2,32,84.1,48c0,0-39.1-8-36.1,24l0,112"/>
<path style="fill:none;stroke:#FFFFFF;stroke-width:5;stroke-linecap:round;stroke-linejoin:round;stroke-miterlimit:10;" d="
	M248,48c0,0-4.1-33,16-31s15,27,16,31s3.1,35.9-16,33.2C264,81.2,239.9,77.5,248,48z"/>
<line style="fill:none;stroke:#FFFFFF;stroke-width:5;stroke-linecap:round;stroke-linejoin:round;stroke-miterlimit:10;" x1="199" y1="49.1" x2="248" y2="48"/>
<line style="fill:none;stroke:#FFFFFF;stroke-width:5;stroke-linecap:round;stroke-linejoin:round;stroke-miterlimit:10;" x1="168" y1="64.5" x2="168" y2="102.9"/>
<path style="fill:none;stroke:#FFFFFF;stroke-width:5;stroke-linecap:round;stroke-linejoin:round;stroke-miterlimit:10;" d="
	M120,65.5c1.1,45.7,0.7,36.5,0.7,36.5"/>
<path style="fill:none;stroke:#FFFFFF;stroke-width:5;stroke-linecap:round;stroke-linejoin:round;stroke-miterlimit:10;" d="
	M243,562"/>
<path style="fill:none;stroke:#FFFFFF;stroke-width:5;stroke-linecap:round;stroke-linejoin:round;stroke-miterlimit:10;" d="
	M510,559"/>
<path style="fill:none;stroke:#FFFFFF;stroke-width:5;stroke-linecap:round;stroke-linejoin:round;stroke-miterlimit:10;" d="
	M352,450v43h-5c0,0,0,0-27,0"/>
<polyline style="fill:none;stroke:#FFFFFF;stroke-width:5;stroke-linecap:round;stroke-linejoin:round;stroke-miterlimit:10;" points="
	407.3,442 408,493 432,493 "/>
<line style="fill:none;stroke:#FFFFFF;stroke-width:5;stroke-linecap:round;stroke-linejoin:round;stroke-miterlimit:10;" x1="352" y1="493" x2="408" y2="493"/>
</svg>
