<?xml version="1.0" encoding="utf-8"?>
<!-- Generator: Adobe Illustrator 24.0.1, SVG Export Plug-In . SVG Version: 6.00 Build 0)  -->
<svg version="1.1" id="Layer_2" xmlns="http://www.w3.org/2000/svg" xmlns:xlink="http://www.w3.org/1999/xlink" x="0px" y="0px"
	 viewBox="0 0 512 512" style="enable-background:new 0 0 512 512;" xml:space="preserve">
<path style="fill:none;stroke:#FFFFFF;stroke-width:5;stroke-linecap:round;stroke-miterlimit:10;" d="M103,37h368c0,0,21-13,0-29
	H103C103,8,73,22,103,37z"/>
<polyline style="fill:none;stroke:#FFFFFF;stroke-width:5;stroke-linecap:round;stroke-miterlimit:10;" points="132,37 132,89 
	168,89 "/>
<line style="fill:none;stroke:#FFFFFF;stroke-width:5;stroke-linecap:round;stroke-miterlimit:10;" x1="429.2" y1="37" x2="429.2" y2="54"/>
<path style="fill:none;stroke:#FFFFFF;stroke-width:5;stroke-linecap:round;stroke-miterlimit:10;" d="M132,89c0,0-31,16,0,33
	c0,0-30,10.5,0,31c0,0-29,10,0,28c0,0-31,14,0,29c0,0-33,17,0,30c0,0-33,16,0,32c0,0-34,13,0,29H52c0,0-39,16,0,31h80
	c0,0-31,14,0,28c0,0-32,16,0,32c0,0-30,13,0,31v51h-29c-7.8,0.8-13.8,6.7-14.6,13.5c-0.9,8.3,5.9,16.7,15.6,17.3
	c123-0.3,246.1-0.6,369.1-1c6.6-7.8,8.2-17.4,4.3-23.6c-0.8-1.3-2.6-3.6-6.3-5.3l-37-1v-52c9.8-1.9,17-8.6,17.5-15.3
	c0.7-8.8-9.9-20-25.4-18.7c10.1,3.1,20.4-2.4,23.3-10.9c3.2-9.5-3.2-21.4-15-23.7c0,0,29-17-5.3-23.5c9.5,2.1,18.5-3.7,20.5-11.6
	c2.2-8.8-4.7-19.3-15.7-20.4c6.6,1.2,13.1-1.7,15.8-6.7c3.6-6.6,0.6-16.3-7.8-20.3c0,0,19-15,0-30c0,0,19-17,0-30c0,0,18-13.5,0-33
	c0,0,17-14-5-27c0,0,29-20.5-1-29c0,0,30-16,1-33h-7.8c0-5,0-10,0-15"/>
<line style="fill:none;stroke:#FFFFFF;stroke-width:5;stroke-linecap:round;stroke-miterlimit:10;" x1="132" y1="474" x2="434" y2="474"/>
<line style="fill:none;stroke:#FFFFFF;stroke-width:5;stroke-linecap:round;stroke-miterlimit:10;" x1="132" y1="423" x2="355" y2="423"/>
<path style="fill:none;stroke:#FFFFFF;stroke-width:5;stroke-linecap:round;stroke-miterlimit:10;" d="M391,423c43-1,43-1,43-1"/>
<line style="fill:none;stroke:#FFFFFF;stroke-width:5;stroke-linecap:round;stroke-miterlimit:10;" x1="132" y1="392" x2="429.2" y2="388"/>
<line style="fill:none;stroke:#FFFFFF;stroke-width:5;stroke-linecap:round;stroke-miterlimit:10;" x1="132" y1="360" x2="434.5" y2="353.5"/>
<line style="fill:none;stroke:#FFFFFF;stroke-width:5;stroke-linecap:round;stroke-miterlimit:10;" x1="132" y1="332" x2="429.2" y2="330"/>
<line style="fill:none;stroke:#FFFFFF;stroke-width:5;stroke-linecap:round;stroke-miterlimit:10;" x1="132" y1="301" x2="434" y2="298"/>
<line style="fill:none;stroke:#FFFFFF;stroke-width:5;stroke-linecap:round;stroke-miterlimit:10;" x1="132" y1="272" x2="442" y2="271"/>
<line style="fill:none;stroke:#FFFFFF;stroke-width:5;stroke-linecap:round;stroke-miterlimit:10;" x1="132" y1="240" x2="442" y2="241"/>
<line style="fill:none;stroke:#FFFFFF;stroke-width:5;stroke-linecap:round;stroke-miterlimit:10;" x1="132" y1="210" x2="442" y2="211"/>
<line style="fill:none;stroke:#FFFFFF;stroke-width:5;stroke-linecap:round;stroke-miterlimit:10;" x1="132" y1="181" x2="442" y2="178"/>
<line style="fill:none;stroke:#FFFFFF;stroke-width:5;stroke-linecap:round;stroke-miterlimit:10;" x1="132" y1="153" x2="437" y2="151"/>
<line style="fill:none;stroke:#FFFFFF;stroke-width:5;stroke-linecap:round;stroke-miterlimit:10;" x1="132" y1="122" x2="436" y2="122"/>
<line style="fill:none;stroke:#FFFFFF;stroke-width:5;stroke-linecap:round;stroke-miterlimit:10;" x1="199" y1="89" x2="429.2" y2="89"/>
<path style="fill:none;stroke:#FFB600;stroke-width:5;stroke-linecap:round;stroke-miterlimit:10;" d="M-101.8,264.3"/>
</svg>
