<?xml version="1.0" encoding="utf-8"?>
<!-- Generator: Adobe Illustrator 24.0.1, SVG Export Plug-In . SVG Version: 6.00 Build 0)  -->
<svg version="1.1" id="Layer_2" xmlns="http://www.w3.org/2000/svg" xmlns:xlink="http://www.w3.org/1999/xlink" x="0px" y="0px"
	 viewBox="0 0 512 512" style="enable-background:new 0 0 512 512;" xml:space="preserve">
<g>
	<g>
		<path style="fill:none;stroke:#FFFFFF;stroke-width:5;stroke-linecap:round;stroke-miterlimit:10;" d="M15.5,148.7
			c-4.6-9.6-2.9-19.9,3.2-25c4-3.3,8.9-3.6,11.2-3.6c14,0,28,0,42.1,0c2.2,0.2,6.1,0.8,9.7,3.6c5.7,4.5,8.1,12.7,6.3,20.9l0.8,62.3
			c-0.2,2.3-0.3,4.6-0.5,7c-21.8,0-43.6,0-65.4,0c-1.8,0.2-6.6,0.3-9.3-2.7c-1.8-2.1-1.9-4.7-2-6.2c-0.3-11.6-0.1-24.2,0-27"/>
		<path style="fill:none;stroke:#FFFFFF;stroke-width:5;stroke-linecap:round;stroke-miterlimit:10;" d="M159.3,504.5H123V463
			c0,0,0.2-19,18.6-18s77.7,0,77.7,0s17.9-4,19.3,17s0,42.5,0,42.5h-57.5"/>
		
			<line style="fill:none;stroke:#FFFFFF;stroke-width:5;stroke-linecap:round;stroke-miterlimit:10;" x1="213" y1="444.7" x2="213" y2="98"/>
		
			<line style="fill:none;stroke:#FFFFFF;stroke-width:5;stroke-linecap:round;stroke-miterlimit:10;" x1="151" y1="8" x2="425.4" y2="98"/>
		<path style="fill:none;stroke:#FFFFFF;stroke-width:5;stroke-linecap:round;stroke-miterlimit:10;" d="M425.4,349
			c0,0,5.8,13.9,15.4,14.4c6.1,0.3,11.6-3.6,14.2-8.6c3.1-5.9,1.9-12.7-1-16.8c-4-5.6-12.8-8.5-13.2-8.7l0,0
			c0.8-7.2,1.6-14.5,2.3-21.7"/>
		<polyline style="fill:none;stroke:#FFFFFF;stroke-width:5;stroke-linecap:round;stroke-miterlimit:10;" points="437.4,256 
			454,256 470,283.6 454,307.6 423,307.6 408.5,282.7 425.4,256 437.4,256 437.4,102.6 		"/>
		
			<line style="fill:none;stroke:#FFFFFF;stroke-width:5;stroke-linecap:round;stroke-miterlimit:10;" x1="88.2" y1="159.4" x2="151" y2="159.4"/>
		<path style="fill:none;stroke:#FFFFFF;stroke-width:5;stroke-linecap:round;stroke-miterlimit:10;" d="M151,221h62l-62,55h62
			l-62,59.5h62L151,390h62l-62,55.3c-0.8-144.5-1.6-289.1-2.4-433.6C112.7,47.8,76.9,84,41,120.1"/>
		<path style="fill:none;stroke:#FFFFFF;stroke-width:5;stroke-linecap:round;stroke-miterlimit:10;" d="M213,153.8
			c19.9-18,39.8-36.1,59.7-54.1c17.3,18.6,34.5,37.3,51.8,55.9c0-17.8,0-35.6,0-53.4c19.8,17.8,39.7,35.6,59.5,53.4
			c0-17.8,0-35.6,0-53.4c17.8,17.2,35.6,34.4,53.4,51.6c0-17.1,0-34.1,0-51.2c20.2,18.9,40.4,37.9,60.6,56.8H269h-56h285
			c-20.4-20.3-40.7-40.5-61.1-60.8C341.6,98.4,246.3,98.2,151,98"/>
		
			<line style="fill:none;stroke:#FFFFFF;stroke-width:5;stroke-linecap:round;stroke-miterlimit:10;" x1="272.7" y1="98" x2="272.7" y2="159.4"/>
	</g>
	<path style="fill:none;stroke:#FFFFFF;stroke-width:5;stroke-linecap:round;stroke-miterlimit:10;" d="M154,0"/>
	<path style="fill:none;stroke:#FFFFFF;stroke-width:5;stroke-linecap:round;stroke-miterlimit:10;" d="M326.6,162.7"/>
	<path style="fill:none;stroke:#FFFFFF;stroke-width:5;stroke-linecap:round;stroke-miterlimit:10;" d="M324.5,98"/>
</g>
</svg>
