<?xml version="1.0" encoding="utf-8"?>
<!-- Generator: Adobe Illustrator 24.0.1, SVG Export Plug-In . SVG Version: 6.00 Build 0)  -->
<svg version="1.1" id="Layer_2" xmlns="http://www.w3.org/2000/svg" xmlns:xlink="http://www.w3.org/1999/xlink" x="0px" y="0px"
	 viewBox="0 0 512 512" style="enable-background:new 0 0 512 512;" xml:space="preserve">
<g>
	<polygon style="fill:none;stroke:#FFFFFF;stroke-width:5;stroke-linecap:round;stroke-miterlimit:10;" points="27,299 105,299 
		120,320 417,320 434.6,299 487,299 487,328 425,400 56,400 	"/>
	<polyline style="fill:none;stroke:#FFFFFF;stroke-width:5;stroke-linecap:round;stroke-miterlimit:10;" points="54.1,299 56,256 
		74,256 74,190 183,190 183,127 294,127 294,248 396,249.1 396,320 	"/>
	
		<line style="fill:none;stroke:#FFFFFF;stroke-width:5;stroke-linecap:round;stroke-miterlimit:10;" x1="48" y1="368" x2="452.6" y2="368"/>
	<path style="fill:none;stroke:#FFFFFF;stroke-width:5;stroke-linecap:round;stroke-miterlimit:10;" d="M74,256c106,0,212,0,318,0"
		/>
	
		<line style="fill:none;stroke:#FFFFFF;stroke-width:5;stroke-linecap:round;stroke-miterlimit:10;" x1="279" y1="320" x2="279" y2="256"/>
	<path style="fill:none;stroke:#FFFFFF;stroke-width:5;stroke-linecap:round;stroke-miterlimit:10;" d="M170,320c0-20,0-40,0-60"/>
	<polyline style="fill:none;stroke:#FFFFFF;stroke-width:5;stroke-linecap:round;stroke-miterlimit:10;" points="294,190 183,190 
		183,256 	"/>
	
		<line style="fill:none;stroke:#FFFFFF;stroke-width:5;stroke-linecap:round;stroke-miterlimit:10;" x1="216" y1="160" x2="216" y2="127"/>
	
		<line style="fill:none;stroke:#FFFFFF;stroke-width:5;stroke-linecap:round;stroke-miterlimit:10;" x1="250.3" y1="162.9" x2="250.3" y2="127"/>
	
		<line style="fill:none;stroke:#FFFFFF;stroke-width:5;stroke-linecap:round;stroke-miterlimit:10;" x1="104" y1="223" x2="104" y2="256"/>
	
		<line style="fill:none;stroke:#FFFFFF;stroke-width:5;stroke-linecap:round;stroke-miterlimit:10;" x1="137" y1="223" x2="137" y2="190"/>
	<path style="fill:none;stroke:#FFFFFF;stroke-width:5;stroke-linecap:round;stroke-miterlimit:10;" d="M231,223c1-33,1-33,1-33"/>
	
		<line style="fill:none;stroke:#FFFFFF;stroke-width:5;stroke-linecap:round;stroke-miterlimit:10;" x1="265" y1="223" x2="265" y2="256"/>
	
		<line style="fill:none;stroke:#FFFFFF;stroke-width:5;stroke-linecap:round;stroke-miterlimit:10;" x1="137" y1="288" x2="137" y2="256"/>
	
		<line style="fill:none;stroke:#FFFFFF;stroke-width:5;stroke-linecap:round;stroke-miterlimit:10;" x1="200" y1="288" x2="200" y2="256"/>
	
		<line style="fill:none;stroke:#FFFFFF;stroke-width:5;stroke-linecap:round;stroke-miterlimit:10;" x1="232" y1="286" x2="232" y2="256"/>
	<path style="fill:none;stroke:#FFFFFF;stroke-width:5;stroke-linecap:round;stroke-miterlimit:10;" d="M313,286c0-30,0-30,0-30"/>
	
		<line style="fill:none;stroke:#FFFFFF;stroke-width:5;stroke-linecap:round;stroke-miterlimit:10;" x1="348" y1="288" x2="348" y2="256"/>
	<polyline style="fill:none;stroke:#FFFFFF;stroke-width:5;stroke-linecap:round;stroke-miterlimit:10;" points="327,256 327,160 
		359,160 359,256 	"/>
	<path style="fill:none;stroke:#FFFFFF;stroke-width:5;stroke-linecap:round;stroke-miterlimit:10;" d="M434.6,244
		c0,0,29.4,31,36.4-4.5c0,0,10-1.5-15-15.5l-2.2-108.7L440,104l-81,76.3V235l93.6-103"/>
	<circle style="fill:none;stroke:#FFFFFF;stroke-width:5;stroke-linecap:round;stroke-miterlimit:10;" cx="56" cy="328" r="6"/>
	<circle style="fill:none;stroke:#FFFFFF;stroke-width:5;stroke-linecap:round;stroke-miterlimit:10;" cx="88" cy="328" r="6"/>
	<circle style="fill:none;stroke:#FFFFFF;stroke-width:5;stroke-linecap:round;stroke-miterlimit:10;" cx="448" cy="328" r="6"/>
</g>
</svg>
