<?xml version="1.0" encoding="utf-8"?>
<!-- Generator: Adobe Illustrator 24.0.1, SVG Export Plug-In . SVG Version: 6.00 Build 0)  -->
<svg version="1.1" id="Layer_2" xmlns="http://www.w3.org/2000/svg" xmlns:xlink="http://www.w3.org/1999/xlink" x="0px" y="0px"
	 viewBox="0 0 512 512" style="enable-background:new 0 0 512 512;" xml:space="preserve">
<g>
	<polyline style="fill:none;stroke:#FFFFFF;stroke-width:5;stroke-linecap:round;stroke-miterlimit:10;" points="213,128.4 
		15,128.4 15,75 498,75 498,128.4 302.2,128.4 	"/>
	
		<circle style="fill:none;stroke:#FFFFFF;stroke-width:5;stroke-linecap:round;stroke-miterlimit:10;" cx="100.5" cy="199.6" r="22.5"/>
	
		<circle style="fill:none;stroke:#FFFFFF;stroke-width:5;stroke-linecap:round;stroke-miterlimit:10;" cx="186.8" cy="199.6" r="22.5"/>
	
		<circle style="fill:none;stroke:#FFFFFF;stroke-width:5;stroke-linecap:round;stroke-miterlimit:10;" cx="443.8" cy="427.7" r="53.7"/>
	
		<circle style="fill:none;stroke:#FFFFFF;stroke-width:5;stroke-linecap:round;stroke-miterlimit:10;" cx="256.5" cy="128.4" r="9.6"/>
	
		<circle style="fill:none;stroke:#FFFFFF;stroke-width:5;stroke-linecap:round;stroke-miterlimit:10;" cx="252.1" cy="311" r="9.6"/>
	
		<circle style="fill:none;stroke:#FFFFFF;stroke-width:5;stroke-linecap:round;stroke-miterlimit:10;" cx="292.2" cy="311" r="9.6"/>
	
		<circle style="fill:none;stroke:#FFFFFF;stroke-width:5;stroke-linecap:round;stroke-miterlimit:10;" cx="332.2" cy="311" r="9.6"/>
	
		<circle style="fill:none;stroke:#FFFFFF;stroke-width:5;stroke-linecap:round;stroke-miterlimit:10;" cx="252.1" cy="354.9" r="9.6"/>
	
		<circle style="fill:none;stroke:#FFFFFF;stroke-width:5;stroke-linecap:round;stroke-miterlimit:10;" cx="292.2" cy="354.9" r="9.6"/>
	
		<circle style="fill:none;stroke:#FFFFFF;stroke-width:5;stroke-linecap:round;stroke-miterlimit:10;" cx="332.2" cy="354.9" r="9.6"/>
	
		<line style="fill:none;stroke:#FFFFFF;stroke-width:5;stroke-linecap:round;stroke-miterlimit:10;" x1="376.1" y1="311" x2="443.8" y2="311"/>
	
		<circle style="fill:none;stroke:#FFFFFF;stroke-width:5;stroke-linecap:round;stroke-miterlimit:10;" cx="443.8" cy="427.7" r="9.6"/>
	<polyline style="fill:none;stroke:#FFFFFF;stroke-width:5;stroke-linecap:round;stroke-miterlimit:10;" points="127,269 
		100.5,327.3 140.1,327.3 117,382.3 	"/>
	<path style="fill:none;stroke:#FFFFFF;stroke-width:5;stroke-linecap:round;stroke-miterlimit:10;" d="M31,128.4v266
		c0,0-4.1,25.6,37,37.6h142.5H390"/>
	
		<line style="fill:none;stroke:#FFFFFF;stroke-width:5;stroke-linecap:round;stroke-miterlimit:10;" x1="482" y1="128.4" x2="482" y2="389.9"/>
	<path style="fill:none;stroke:#FFFFFF;stroke-width:5;stroke-linecap:round;stroke-miterlimit:10;" d="M76.4,75c0,0,0.6-30,1.6-36
		s10.3-13,22.5-13c74.5,0,74.5,0,74.5,0s20.6,0,24.3,24.5V75"/>
	<path style="fill:none;stroke:#FFFFFF;stroke-width:5;stroke-linecap:round;stroke-miterlimit:10;" d="M314.6,75c0,0,0.6-30,1.6-36
		s10.3-13,22.5-13c74.5,0,74.5,0,74.5,0s20.6,0,24.3,24.5V75"/>
	<path style="fill:none;stroke:#FFFFFF;stroke-width:5;stroke-linecap:round;stroke-miterlimit:10;" d="M266.1,177.1
		c0,0-17.9,10.1-14,22.5c3.9,12.4,7.1,17.6,14,22.5c6.9,4.9,150.9,0,150.9,0s17.4-9.7,17.2-21.4c0,0-2.2-23.5-20.2-23.6H266.1z"/>
	<path style="fill:none;stroke:#FFFFFF;stroke-width:5;stroke-linecap:round;stroke-miterlimit:10;" d="M482,260.2H242.5
		c0,0-42.5-12.2-37.5,45.8l-0.4,126"/>
	<path style="fill:none;stroke:#FFFFFF;stroke-width:5;stroke-linecap:round;stroke-miterlimit:10;" d="M68,432v41
		c0,0,9.1,14,16.1,14s49,0,49,0s18-3,17-14s0-41,0-41"/>
</g>
</svg>
