<?xml version="1.0" encoding="utf-8"?>
<!-- Generator: Adobe Illustrator 24.0.1, SVG Export Plug-In . SVG Version: 6.00 Build 0)  -->
<svg version="1.1" id="Layer_2" xmlns="http://www.w3.org/2000/svg" xmlns:xlink="http://www.w3.org/1999/xlink" x="0px" y="0px"
	 viewBox="0 0 512 512" style="enable-background:new 0 0 512 512;" xml:space="preserve">
<g>
	<path style="fill:none;stroke:#FFFFFF;stroke-width:5;stroke-linecap:round;stroke-miterlimit:10;" d="M141,480h172c0,0,17-2,13-24
		l0.6-304.3c0,0,8.3-27.7-30.1-23.7L28,127.6c0,0-20,0.4-20,18.4v315c0,0-4,18,19,19h85.8"/>
	
		<line style="fill:none;stroke:#FFFFFF;stroke-width:5;stroke-linecap:round;stroke-miterlimit:10;" x1="223.8" y1="229" x2="8" y2="229"/>
	<path style="fill:none;stroke:#FFFFFF;stroke-width:5;stroke-linecap:round;stroke-miterlimit:10;" d="M96.6,127.6
		c0,0-8-34.7,16.2-34.1h106c0,0,22.8,3.3,16.2,34.5"/>
	
		<line style="fill:none;stroke:#FFFFFF;stroke-width:5;stroke-linecap:round;stroke-miterlimit:10;" x1="252" y1="229" x2="326.5" y2="229"/>
	
		<line style="fill:none;stroke:#FFFFFF;stroke-width:5;stroke-linecap:round;stroke-miterlimit:10;" x1="62.1" y1="284.2" x2="190" y2="284.2"/>
	
		<line style="fill:none;stroke:#FFFFFF;stroke-width:5;stroke-linecap:round;stroke-miterlimit:10;" x1="62.1" y1="318.4" x2="190" y2="318.4"/>
	
		<line style="fill:none;stroke:#FFFFFF;stroke-width:5;stroke-linecap:round;stroke-miterlimit:10;" x1="67" y1="352.9" x2="190" y2="352.9"/>
	
		<line style="fill:none;stroke:#FFFFFF;stroke-width:5;stroke-linecap:round;stroke-miterlimit:10;" x1="67" y1="386.7" x2="190" y2="386.7"/>
	
		<line style="fill:none;stroke:#FFFFFF;stroke-width:5;stroke-linecap:round;stroke-miterlimit:10;" x1="67" y1="420.9" x2="194.4" y2="420.9"/>
	
		<line style="fill:none;stroke:#FFFFFF;stroke-width:5;stroke-linecap:round;stroke-miterlimit:10;" x1="244.7" y1="301.3" x2="275.9" y2="301.3"/>
	
		<line style="fill:none;stroke:#FFFFFF;stroke-width:5;stroke-linecap:round;stroke-miterlimit:10;" x1="244.7" y1="335.5" x2="275.9" y2="335.5"/>
	
		<line style="fill:none;stroke:#FFFFFF;stroke-width:5;stroke-linecap:round;stroke-miterlimit:10;" x1="244.7" y1="369.7" x2="275.9" y2="369.7"/>
	<path style="fill:none;stroke:#FFFFFF;stroke-width:5;stroke-linecap:round;stroke-miterlimit:10;" d="M27,480c0,0-5,22,14,23h43.2
		c0,0,15-2,12.4-23"/>
	<path style="fill:none;stroke:#FFFFFF;stroke-width:5;stroke-linecap:round;stroke-miterlimit:10;" d="M236.6,480
		c0,0-3.8,22,10.8,23h49.1c0,0,10.5-3,9.5-23"/>
	
		<circle style="fill:none;stroke:#FFFFFF;stroke-width:5;stroke-linecap:round;stroke-miterlimit:10;" cx="84.2" cy="180.3" r="25.3"/>
	
		<circle style="fill:none;stroke:#FFFFFF;stroke-width:5;stroke-linecap:round;stroke-miterlimit:10;" cx="165.8" cy="180.3" r="25.3"/>
	
		<circle style="fill:none;stroke:#FFFFFF;stroke-width:5;stroke-linecap:round;stroke-miterlimit:10;" cx="247.4" cy="180.3" r="25.3"/>
	
		<circle style="fill:none;stroke:#FFFFFF;stroke-width:5;stroke-linecap:round;stroke-miterlimit:10;" cx="260.3" cy="424.5" r="25.3"/>
	<path style="fill:none;stroke:#FFFFFF;stroke-width:5;stroke-linecap:round;stroke-miterlimit:10;" d="M260.3,424.5H362
		c0,0,61,11.9,74-54.8v-8.1"/>
	<polyline style="fill:none;stroke:#FFFFFF;stroke-width:5;stroke-linecap:round;stroke-miterlimit:10;" points="511,4.2 436,46 
		436,147 436,151.9 	"/>
	<path style="fill:none;stroke:#FFFFFF;stroke-width:5;stroke-linecap:round;stroke-miterlimit:10;" d="M452,208.9V163
		c0,0-16-25-31,0v189.6c0,0,13,24.2,31,0.3V235"/>
	
		<line style="fill:none;stroke:#FFFFFF;stroke-width:5;stroke-linecap:round;stroke-miterlimit:10;" x1="421" y1="293.2" x2="452" y2="293.2"/>
	<path style="fill:none;stroke:#FFFFFF;stroke-width:5;stroke-linecap:round;stroke-miterlimit:10;" d="M388,100
		c0,0-1.9-14.3,11.7-16s15.3,16,15.3,16v27.9c0,0-1.2,9.6-13.5,13.1c-12.3,3.5-13.5-9.8-13.5-9.8L388,100z"/>
	
		<line style="fill:none;stroke:#FFFFFF;stroke-width:5;stroke-linecap:round;stroke-miterlimit:10;" x1="452" y1="112.3" x2="415" y2="110.7"/>
</g>
</svg>
