<?xml version="1.0" encoding="utf-8"?>
<!-- Generator: Adobe Illustrator 24.0.1, SVG Export Plug-In . SVG Version: 6.00 Build 0)  -->
<svg version="1.1" id="Layer_2_1_" xmlns="http://www.w3.org/2000/svg" xmlns:xlink="http://www.w3.org/1999/xlink" x="0px" y="0px"
	 viewBox="0 0 512 512" style="enable-background:new 0 0 512 512;" xml:space="preserve">
<g>
	<polygon style="fill:#FFB600;stroke:#FFB600;stroke-width:5;stroke-miterlimit:10;" points="130,107 224,107 224,230 97,230 	"/>
	<polyline style="fill:none;stroke:#FFB600;stroke-width:5;stroke-miterlimit:10;" points="97,230 10,320 10,399 53.5,399 	"/>
	<polyline style="fill:none;stroke:#FFB600;stroke-width:5;stroke-miterlimit:10;" points="224,230 298.7,230 305.2,230 	"/>
	<circle style="fill:none;stroke:#FFB600;stroke-width:5;stroke-miterlimit:10;" cx="373.3" cy="341.3" r="130.5"/>
	<circle style="fill:none;stroke:#FFB600;stroke-width:5;stroke-miterlimit:10;" cx="106.7" cy="416" r="58"/>
	<circle style="fill:none;stroke:#FFB600;stroke-width:5;stroke-miterlimit:10;" cx="373.7" cy="341.3" r="4.7"/>
	
		<line style="fill:none;stroke:#FFB600;stroke-width:5;stroke-linecap:round;stroke-miterlimit:10;" x1="224" y1="107" x2="298.7" y2="230"/>
	<path style="fill:none;stroke:#FFB600;stroke-width:5;stroke-miterlimit:10;" d="M332.3,217.4V107c0,0-22.3-38-41.3,0l3.8,130.1"/>
	<path style="fill:none;stroke:#FFB600;stroke-width:5;stroke-linecap:round;stroke-miterlimit:10;" d="M163.6,405.1L224,384h160
		c3.6-0.9,8.8-2.6,14.4-6.2c2.6-1.7,8.1-5.3,12.6-11.8c6.8-9.8,7.1-20.2,7-24.7c0.2-10.6-1-31.6-15-41.2c-4.7-3.2-10.9-5.3-19-5.2
		c-22.4,0.3-80.6,0.4-159,2"/>
	<path style="fill:none;stroke:#FFB600;stroke-width:5;stroke-linecap:round;stroke-miterlimit:10;" d="M285,41
		c0,0,35-5.8,24.3,49.1"/>
</g>
<circle style="fill:none;stroke:#FFB600;stroke-width:5;stroke-linecap:round;stroke-miterlimit:10;" cx="106.7" cy="416" r="6.8"/>
</svg>
