<?xml version="1.0" encoding="utf-8"?>
<!-- Generator: Adobe Illustrator 24.0.1, SVG Export Plug-In . SVG Version: 6.00 Build 0)  -->
<svg version="1.1" id="Layer_2" xmlns="http://www.w3.org/2000/svg" xmlns:xlink="http://www.w3.org/1999/xlink" x="0px" y="0px"
	 viewBox="0 0 512 512" style="enable-background:new 0 0 512 512;" xml:space="preserve">
<path style="fill:none;stroke:#FFB600;stroke-width:5;stroke-miterlimit:10;" d="M69,407h269c0,0,52-3.5,52,44.8S336,499,336,499
	l-267,0c0,0-28,1-48-41C21,458,19,422.5,69,407z"/>
<path style="fill:none;stroke:#FFB600;stroke-width:5;stroke-miterlimit:10;" d="M21,346h348V226c0,0,5.4-60-75.3-78h-74v71.3H21
	v66.9V346z"/>
<line style="fill:none;stroke:#FFB600;stroke-width:5;stroke-miterlimit:10;" x1="369.5" y1="286.1" x2="21" y2="286.1"/>
<line style="fill:none;stroke:#FFB600;stroke-width:5;stroke-miterlimit:10;" x1="219.6" y1="219.3" x2="219.6" y2="346"/>
<line style="fill:none;stroke:#FFB600;stroke-width:5;stroke-miterlimit:10;" x1="293.6" y1="148" x2="293.6" y2="286.1"/>
<line style="fill:none;stroke:#FFB600;stroke-width:5;stroke-miterlimit:10;" x1="97" y1="346" x2="97" y2="406.9"/>
<line style="fill:none;stroke:#FFB600;stroke-width:5;stroke-miterlimit:10;" x1="325" y1="346" x2="325" y2="407"/>
<polyline style="fill:none;stroke:#FFB600;stroke-width:5;stroke-miterlimit:10;" points="97,219.3 97,78 404,78 434.3,78 "/>
<circle style="fill:none;stroke:#FFB600;stroke-width:5;stroke-miterlimit:10;" cx="429.2" cy="45.2" r="33.2"/>
<polyline style="fill:none;stroke:#FFB600;stroke-width:5;stroke-miterlimit:10;" points="37.6,219.3 37.6,12 429.2,12 "/>
<polyline style="fill:none;stroke:#FFB600;stroke-width:5;stroke-miterlimit:10;" points="462.4,45.2 462.4,234 462.4,240.9 
	429.2,240.9 429.2,301.2 490,301.2 490,240.9 "/>
<line style="fill:none;stroke:#FFB600;stroke-width:5;stroke-miterlimit:10;" x1="462.4" y1="240.9" x2="490" y2="240.9"/>
<path style="fill:none;stroke:#FFB600;stroke-width:5;stroke-miterlimit:10;" d="M459.6,301.2l-0.3,15.1c0,0,10.7,54.8,30.7,66.8
	s-30.6,81-60.8,13"/>
</svg>
