<?xml version="1.0" encoding="utf-8"?>
<!-- Generator: Adobe Illustrator 24.0.1, SVG Export Plug-In . SVG Version: 6.00 Build 0)  -->
<svg version="1.1" id="Layer_2" xmlns="http://www.w3.org/2000/svg" xmlns:xlink="http://www.w3.org/1999/xlink" x="0px" y="0px"
	 viewBox="0 0 24 24" style="enable-background:new 0 0 24 24;" xml:space="preserve">
<g>
	<path style="fill-rule:evenodd;clip-rule:evenodd;fill:none;stroke:#FFB600;stroke-miterlimit:10;" d="M2.8,6.1h8.5l-2-2.9
		c0,0-0.8-1-1.9,0L2.8,6.1z"/>
	<polygon style="fill-rule:evenodd;clip-rule:evenodd;fill:none;stroke:#FFB600;stroke-miterlimit:10;" points="19,4.4 12.7,4.4 
		11.8,6.9 1.9,6.9 3.7,13.7 11.8,13.7 14.5,5.3 19,5.3 	"/>
	
		<ellipse style="fill-rule:evenodd;clip-rule:evenodd;fill:none;stroke:#FFB600;stroke-miterlimit:10;" cx="18.1" cy="17.9" rx="3.5" ry="3.2"/>
	
		<ellipse style="fill-rule:evenodd;clip-rule:evenodd;fill:none;stroke:#FFB600;stroke-miterlimit:10;" cx="8.2" cy="17.9" rx="3.5" ry="3.2"/>
	
		<line style="fill-rule:evenodd;clip-rule:evenodd;fill:none;stroke:#FFB600;stroke-miterlimit:10;" x1="11.7" y1="17.7" x2="14.6" y2="17.7"/>
	<path style="fill-rule:evenodd;clip-rule:evenodd;fill:none;stroke:#FFB600;stroke-miterlimit:10;" d="M5.3,16.1l-1.6,0.1v-1.7h8.9
		l2.8-8.4H19c0,0,1.1-0.2,1.3,1.1l1.4,3.9c0,0,2,0.6,1.8,1.5l0,3.8c0,0,0,0.8-1.9,0.6l-0.1,0"/>
	<polygon style="fill-rule:evenodd;clip-rule:evenodd;fill:none;stroke:#FFB600;stroke-miterlimit:10;" points="16.3,7.8 16.3,10.3 
		19.8,10.3 19,7.8 	"/>
	
		<line style="fill-rule:evenodd;clip-rule:evenodd;fill:none;stroke:#FFB600;stroke-miterlimit:10;" x1="5.1" y1="8.9" x2="5.9" y2="11.6"/>
	
		<line style="fill-rule:evenodd;clip-rule:evenodd;fill:none;stroke:#FFB600;stroke-miterlimit:10;" x1="7.1" y1="9" x2="7.8" y2="11.6"/>
	
		<line style="fill-rule:evenodd;clip-rule:evenodd;fill:none;stroke:#FFB600;stroke-miterlimit:10;" x1="9.1" y1="8.8" x2="9.8" y2="11.6"/>
</g>
</svg>
