<?xml version="1.0" encoding="utf-8"?>
<!-- Generator: Adobe Illustrator 24.0.1, SVG Export Plug-In . SVG Version: 6.00 Build 0)  -->
<svg version="1.1" id="Layer_2" xmlns="http://www.w3.org/2000/svg" xmlns:xlink="http://www.w3.org/1999/xlink" x="0px" y="0px"
	 viewBox="0 0 512 512" style="enable-background:new 0 0 512 512;" xml:space="preserve">
<circle style="fill:none;stroke:#FFB600;stroke-width:5;stroke-linecap:round;stroke-miterlimit:10;" cx="82.5" cy="448" r="45"/>
<circle style="fill:none;stroke:#FFB600;stroke-width:5;stroke-linecap:round;stroke-miterlimit:10;" cx="306.5" cy="448" r="45"/>
<circle style="fill:none;stroke:#FFB600;stroke-width:5;stroke-linecap:round;stroke-miterlimit:10;" cx="306.5" cy="448" r="45"/>
<circle style="fill:none;stroke:#FFB600;stroke-width:5;stroke-linecap:round;stroke-miterlimit:10;" cx="402.5" cy="448" r="45"/>
<circle style="fill:none;stroke:#FFB600;stroke-width:5;stroke-linecap:round;stroke-miterlimit:10;" cx="82.5" cy="448" r="16"/>
<circle style="fill:none;stroke:#FFB600;stroke-width:5;stroke-linecap:round;stroke-miterlimit:10;" cx="306.5" cy="448" r="16"/>
<circle style="fill:none;stroke:#FFB600;stroke-width:5;stroke-linecap:round;stroke-miterlimit:10;" cx="402.5" cy="448" r="16"/>
<path style="fill:none;stroke:#FFB600;stroke-width:5;stroke-linecap:round;stroke-miterlimit:10;" d="M40.4,432H18.5v-72.4
	c0,0,14-31.6,40-23.6l36-1.3"/>
<circle style="fill:none;stroke:#FFB600;stroke-width:5;stroke-linecap:round;stroke-miterlimit:10;" cx="114.5" cy="334.7" r="17.5"/>
<path style="fill:none;stroke:#FFB600;stroke-width:5;stroke-linecap:round;stroke-miterlimit:10;" d="M196.5,227v109
	c0,0,2.4,54,65.7,67c0,0,44.3,5,48.3-59V227"/>
<path style="fill:none;stroke:#FFB600;stroke-width:5;stroke-linecap:round;stroke-miterlimit:10;" d="M338.8,416.7V227H165.5v120
	c0,0-3.2,78.4,96.7,93"/>
<line style="fill:none;stroke:#FFB600;stroke-width:5;stroke-linecap:round;stroke-miterlimit:10;" x1="132" y1="334.7" x2="165.5" y2="336"/>
<polyline style="fill:none;stroke:#FFB600;stroke-width:5;stroke-linecap:round;stroke-miterlimit:10;" points="106.5,409.9 
	122.5,384 174,383.4 "/>
<polyline style="fill:none;stroke:#FFB600;stroke-width:5;stroke-linecap:round;stroke-miterlimit:10;" points="124.6,432 
	159.5,432 192.5,432 202.5,417.6 "/>
<line style="fill:none;stroke:#FFB600;stroke-width:5;stroke-linecap:round;stroke-miterlimit:10;" x1="163.5" y1="493" x2="165.5" y2="432"/>
<line style="fill:none;stroke:#FFB600;stroke-width:5;stroke-linecap:round;stroke-miterlimit:10;" x1="192.5" y1="493" x2="192.5" y2="432"/>
<line style="fill:none;stroke:#FFB600;stroke-width:5;stroke-linecap:round;stroke-miterlimit:10;" x1="18.5" y1="493" x2="499.5" y2="493"/>
<path style="fill:none;stroke:#FFB600;stroke-width:5;stroke-linecap:round;stroke-miterlimit:10;" d="M100.1,324.8L78.5,227
	c-0.2-2.2-0.4-7.8,3-13c4.3-6.6,13.3-10.8,18.9-8.1c4.3,2,5.6,7.6,6.1,10.1c12.2,55.8,22.1,102.7,25.5,118.7"/>
<path style="fill:none;stroke:#FFB600;stroke-width:5;stroke-linecap:round;stroke-miterlimit:10;" d="M165.5,227c0,0-1-33,31-34
	h110c0,0,32.3,2,32.3,34"/>
<line style="fill:none;stroke:#FFB600;stroke-width:5;stroke-linecap:round;stroke-miterlimit:10;" x1="338.8" y1="317.2" x2="470.7" y2="317.2"/>
<path style="fill:none;stroke:#FFB600;stroke-width:5;stroke-linecap:round;stroke-miterlimit:10;" d="M371.5,269.9
	c1,47.3,1,47.3,1,47.3"/>
<path style="fill:none;stroke:#FFB600;stroke-width:5;stroke-linecap:round;stroke-miterlimit:10;" d="M445.3,432
	c0,0,27.1,5.9,24-22.1l0.1-25.9l0.2-90.5h30V384c-0.1,10-5.1,17.5-11.1,18.7c-3.8,0.7-8-1.1-10.7-3.6c-5.6-5.2-3.5-12.4-8.4-15.1
	c-2.5-1.4-5.6-1-8.4,0c-10.8,0-21.5,0-32.3,0v-66.8V193c-1-1-30.1,0-30.1,0c4.2,3.8,0,124.2,0,124.2l0,0"/>
<path style="fill:none;stroke:#FFB600;stroke-width:5;stroke-linecap:round;stroke-miterlimit:10;" d="M460.9,384"/>
<path style="fill:none;stroke:#FFB600;stroke-width:5;stroke-linecap:round;stroke-miterlimit:10;" d="M68.7,337.9"/>
<line style="fill:none;stroke:#FFB600;stroke-width:5;stroke-linecap:round;stroke-miterlimit:10;" x1="470.7" y1="348" x2="428.6" y2="348"/>
<line style="fill:none;stroke:#FFB600;stroke-width:5;stroke-linecap:round;stroke-miterlimit:10;" x1="470.7" y1="334.7" x2="499.5" y2="334.7"/>
<line style="fill:none;stroke:#FFB600;stroke-width:5;stroke-linecap:round;stroke-miterlimit:10;" x1="470.6" y1="368" x2="499.5" y2="368"/>
<path style="fill:none;stroke:#FFB600;stroke-width:5;stroke-linecap:round;stroke-miterlimit:10;" d="M418.5,163c0,0,6-26,29-27
	s19-36,19-36"/>
<line style="fill:none;stroke:#FFB600;stroke-width:5;stroke-linecap:round;stroke-miterlimit:10;" x1="466.8" y1="80" x2="466.8" y2="88"/>
</svg>
