<?xml version="1.0" encoding="utf-8"?>
<!-- Generator: Adobe Illustrator 24.0.1, SVG Export Plug-In . SVG Version: 6.00 Build 0)  -->
<svg version="1.1" id="Layer_2" xmlns="http://www.w3.org/2000/svg" xmlns:xlink="http://www.w3.org/1999/xlink" x="0px" y="0px"
	 viewBox="0 0 512 512" style="enable-background:new 0 0 512 512;" xml:space="preserve">
<g>
	
		<line style="fill:#FFFFFF;stroke:#FFB600;stroke-width:5;stroke-linecap:round;stroke-miterlimit:10;" x1="130.2" y1="136.5" x2="130.2" y2="173.1"/>
	<path style="fill:none;stroke:#FFB600;stroke-width:5;stroke-miterlimit:10;" d="M150.8,126.5v83.2c0,0,7.1,18.4,16.6,16.4
		s128.5,0.2,128.5,0.2s-2.3-16,7.4-19.8L266.1,133c0,0-6.6-21-27.4-20l-71.3,0C167.5,113,150.8,109.9,150.8,126.5z"/>
	<path style="fill:none;stroke:#FFB600;stroke-width:5;stroke-miterlimit:10;" d="M170.4,133l-2.9,61c0,0-1.5,15.6,15.5,15.6h94.2
		l-27.5-63c0,0-1.4-19.7-23.6-13.7L170.4,133z"/>
	
		<line style="fill:none;stroke:#FFB600;stroke-width:5;stroke-linecap:round;stroke-miterlimit:10;" x1="167.5" y1="248.5" x2="299" y2="248.5"/>
	
		<line style="fill:none;stroke:#FFB600;stroke-width:5;stroke-linecap:round;stroke-miterlimit:10;" x1="181.5" y1="270.1" x2="299" y2="270.1"/>
	
		<line style="fill:none;stroke:#FFB600;stroke-width:5;stroke-linecap:round;stroke-miterlimit:10;" x1="206" y1="284.3" x2="299" y2="284.3"/>
	<path style="fill:none;stroke:#FFB600;stroke-width:5;stroke-miterlimit:10;" d="M313.4,271.6v-45.4c0,0,0.6-6.6,10.6-6.5
		s102.5,0,102.5,0l2.9,41.8C429.3,261.4,381.7,229.2,313.4,271.6z"/>
	
		<line style="fill:none;stroke:#FFB600;stroke-width:5;stroke-linecap:round;stroke-miterlimit:10;" x1="446.6" y1="234.1" x2="446.6" y2="250.1"/>
	<polygon style="fill:none;stroke:#FFB600;stroke-width:5;stroke-miterlimit:10;" points="266.1,298.4 266.1,317.9 279,317.9 
		288.8,298.4 	"/>
	<path style="fill:none;stroke:#FFB600;stroke-width:5;stroke-miterlimit:10;" d="M289.8,317.9l117.9-1.4c0,0,11.5-14.3,26.8-14.3
		c25.6,0,25.6,0,25.6,0S373.6,196.7,289.8,317.9z"/>
	<polyline style="fill:none;stroke:#FFB600;stroke-width:5;stroke-miterlimit:10;" points="364.4,215 364.4,136.5 392.2,136.5 
		392.2,209.6 364.4,209.6 	"/>
	<rect x="370.4" y="104.5" style="fill:none;stroke:#FFB600;stroke-width:5;stroke-miterlimit:10;" width="15.7" height="22"/>
	<path style="fill:none;stroke:#FFB600;stroke-width:5;stroke-linecap:round;stroke-miterlimit:10;" d="M379.1,102.5
		c0,0-12.1-46.5,27.9-38.5"/>
	<path style="fill:none;stroke:#FFB600;stroke-width:5;stroke-miterlimit:10;" d="M220.5,298.4v49h144.2c0,0,24.6-27.7,27.4,8.5
		c0,0-12.6,20.9-26.9,1.5L212,356l-1.5-58c0,0-78.4-37.2-84.3-91.6c0,0-92.3,30.1-92.3,35.4s0,5.3,0,5.3v130.4l21.5,12.6
		c0,0-0.1-64.9,72.3-69.9c0,0,67.1-3.8,71.2,78.6h21.6c0,0-5.7-29.6,21.9-23.6h243.2c0,0,10.8,0.2,10.8-18.9l0-33.2l-24.7-10.8
		l-42.3,0l-19.1,14.2l-149.1,1.6c0,0-5.9,6.5-5-29.5L220.5,298.4z"/>
	
		<line style="fill:none;stroke:#FFB600;stroke-width:5;stroke-linecap:round;stroke-miterlimit:10;" x1="55.5" y1="255.1" x2="95.5" y2="255.1"/>
	
		<line style="fill:none;stroke:#FFB600;stroke-width:5;stroke-linecap:round;stroke-miterlimit:10;" x1="55.5" y1="274" x2="96.1" y2="274"/>
	
		<line style="fill:none;stroke:#FFB600;stroke-width:5;stroke-linecap:round;stroke-miterlimit:10;" x1="56.3" y1="292.9" x2="96.1" y2="292.9"/>
	<circle style="fill:none;stroke:#FFB600;stroke-width:5;stroke-miterlimit:10;" cx="127.3" cy="391.9" r="58.9"/>
	<path style="fill:none;stroke:#FFB600;stroke-width:5;stroke-miterlimit:10;" d="M286.6,385h185.1c0,0-20.5,62.8-79.1,65.9
		C392.6,450.9,312.1,464,286.6,385z"/>
	
		<line style="fill:none;stroke:#FFB600;stroke-width:5;stroke-linecap:round;stroke-miterlimit:10;" x1="23.5" y1="353.2" x2="23.5" y2="368.7"/>
</g>
</svg>
