<?xml version="1.0" encoding="utf-8"?>
<!-- Generator: Adobe Illustrator 24.0.1, SVG Export Plug-In . SVG Version: 6.00 Build 0)  -->
<svg version="1.1" id="Layer_2" xmlns="http://www.w3.org/2000/svg" xmlns:xlink="http://www.w3.org/1999/xlink" x="0px" y="0px"
	 viewBox="0 0 512 512" style="enable-background:new 0 0 512 512;" xml:space="preserve">
<g>
	<polygon style="fill:none;stroke:#FFB600;stroke-width:5;stroke-miterlimit:10;" points="121,81 121,272 47,237 47,114 120,81 	"/>
	<path style="fill:none;stroke:#FFB600;stroke-width:5;stroke-miterlimit:10;" d="M121,81v191h23c0,0-4.8-32.1,16-30
		s16,30.7,16,30.7l28-0.7V81H121z M160,194.6c-9.8,0-17.8-7.9-17.8-17.8c0-9.8,8-17.8,17.8-17.8s17.8,7.9,17.8,17.8
		C177.8,186.7,169.8,194.6,160,194.6z"/>
	<circle style="fill:none;stroke:#FFB600;stroke-width:5;stroke-miterlimit:10;" cx="160" cy="176.8" r="17.8"/>
	<polygon style="fill:none;stroke:#FFB600;stroke-width:5;stroke-miterlimit:10;" points="303,114 303,242 283.2,248 204,272 
		204,81 	"/>
	<circle style="fill:none;stroke:#FFB600;stroke-width:5;stroke-miterlimit:10;" cx="104" cy="384" r="50"/>
	<circle style="fill:none;stroke:#FFB600;stroke-width:5;stroke-miterlimit:10;" cx="408" cy="384" r="19"/>
	<circle style="fill:none;stroke:#FFB600;stroke-width:5;stroke-miterlimit:10;" cx="408" cy="384" r="50"/>
	<circle style="fill:none;stroke:#FFB600;stroke-width:5;stroke-miterlimit:10;" cx="104" cy="384" r="19"/>
	<polyline style="fill:none;stroke:#FFB600;stroke-width:5;stroke-miterlimit:10;" points="54,384 18,384 18,296 144,296 326,296 
		326,381 154,384 	"/>
	<line style="fill:none;stroke:#FFB600;stroke-width:5;stroke-miterlimit:10;" x1="144" y1="272" x2="144" y2="296"/>
	<line style="fill:none;stroke:#FFB600;stroke-width:5;stroke-miterlimit:10;" x1="175" y1="296" x2="176" y2="272.7"/>
	<line style="fill:none;stroke:#FFB600;stroke-width:5;stroke-miterlimit:10;" x1="299" y1="296" x2="283.2" y2="248"/>
	<line style="fill:none;stroke:#FFB600;stroke-width:5;stroke-miterlimit:10;" x1="192" y1="328" x2="218" y2="328"/>
	<line style="fill:none;stroke:#FFB600;stroke-width:5;stroke-miterlimit:10;" x1="192" y1="352" x2="264" y2="352"/>
	<line style="fill:none;stroke:#FFB600;stroke-width:5;stroke-miterlimit:10;" x1="326" y1="381" x2="358" y2="381"/>
	<polyline style="fill:none;stroke:#FFB600;stroke-width:5;stroke-miterlimit:10;" points="458,384 496,384 496,238 440.2,152 
		424.7,128 326,128 326,296 	"/>
	<polygon style="fill:none;stroke:#FFB600;stroke-width:5;stroke-miterlimit:10;" points="364,152 440.2,152 496,238 364,238 	"/>
	<line style="fill:none;stroke:#FFB600;stroke-width:5;stroke-miterlimit:10;" x1="358" y1="261.2" x2="384" y2="261.2"/>
	<path style="fill:none;stroke:#FFB600;stroke-width:5;stroke-miterlimit:10;" d="M496,288c0,0-45.1-7-38,16s8,14,38,16"/>
	<polyline style="fill:none;stroke:#FFB600;stroke-width:5;stroke-miterlimit:10;" points="47,152 18,152 18,200 47,200 	"/>
	<circle style="fill:none;stroke:#FFB600;stroke-width:5;stroke-miterlimit:10;" cx="160" cy="176.8" r="17.8"/>
</g>
</svg>
