<?xml version="1.0" encoding="utf-8"?>
<!-- Generator: Adobe Illustrator 24.0.1, SVG Export Plug-In . SVG Version: 6.00 Build 0)  -->
<svg version="1.1" id="Layer_2" xmlns="http://www.w3.org/2000/svg" xmlns:xlink="http://www.w3.org/1999/xlink" x="0px" y="0px"
	 viewBox="0 0 512 512" style="enable-background:new 0 0 512 512;" xml:space="preserve">
<circle style="fill:none;stroke:#FFB600;stroke-width:5;stroke-miterlimit:10;" cx="104.1" cy="400" r="50.4"/>
<circle style="fill:none;stroke:#FFB600;stroke-width:5;stroke-miterlimit:10;" cx="216.1" cy="400" r="50.4"/>
<circle style="fill:none;stroke:#FFB600;stroke-width:5;stroke-miterlimit:10;" cx="416" cy="400" r="50.4"/>
<circle style="fill:none;stroke:#FFB600;stroke-width:5;stroke-miterlimit:10;" cx="103.9" cy="400" r="18.9"/>
<circle style="fill:none;stroke:#FFB600;stroke-width:5;stroke-miterlimit:10;" cx="216.1" cy="400" r="18.9"/>
<circle style="fill:none;stroke:#FFB600;stroke-width:5;stroke-miterlimit:10;" cx="416" cy="400" r="18.9"/>
<polyline style="fill:none;stroke:#FFB600;stroke-width:5;stroke-miterlimit:10;" points="54.3,392 16,392 40,328 344,328 344,392 
	265.9,392 "/>
<polyline style="fill:none;stroke:#FFB600;stroke-width:5;stroke-miterlimit:10;" points="460.4,376 504,376 504,276.2 460,192.1 
	344,192.1 344,328 344,392 366.2,392 "/>
<line style="fill:none;stroke:#FFB600;stroke-width:5;stroke-miterlimit:10;" x1="416" y1="349.6" x2="504" y2="349.6"/>
<line style="fill:none;stroke:#FFB600;stroke-width:5;stroke-miterlimit:10;" x1="372" y1="296.1" x2="388" y2="296.1"/>
<polygon style="fill:none;stroke:#FFB600;stroke-width:5;stroke-miterlimit:10;" points="372,272 466.5,272 440,224 372,224 "/>
<polyline style="fill:none;stroke:#FFB600;stroke-width:5;stroke-miterlimit:10;" points="312,328 312,224.1 344,224.1 "/>
<polyline style="fill:none;stroke:#FFB600;stroke-width:5;stroke-miterlimit:10;" points="154.6,328 154.6,288.1 183.9,288.1 
	284,288.1 284,328 "/>
<polygon style="fill:none;stroke:#FFB600;stroke-width:5;stroke-miterlimit:10;" points="24,65 24,99 180,240 180,288.1 
	255.4,288.1 256.1,232 "/>
<line style="fill:none;stroke:#FFB600;stroke-width:5;stroke-miterlimit:10;" x1="160.1" y1="288.1" x2="109.8" y2="176.5"/>
<path style="fill:none;stroke:#FFB600;stroke-width:5;stroke-miterlimit:10;" d="M24,99v149c0,0,22.8,11.2,12.4,32.1
	c0,0-20.4,20.9-28.4-8.1"/>
<line style="fill:none;stroke:#FFB600;stroke-width:5;stroke-miterlimit:10;" x1="16" y1="232" x2="32" y2="232.3"/>
</svg>
