<svg width="27" height="27" viewBox="0 0 27 27" fill="none" xmlns="http://www.w3.org/2000/svg">
<path fill-rule="evenodd" clip-rule="evenodd" d="M6.09741 0H20.9026C22.5183 0.00465948 24.0665 0.651554 25.209 1.79936C26.3515 2.94717 26.9954 4.50259 27 6.12583V20.8764C26.9948 22.4992 26.3506 24.0541 25.2082 25.2014C24.0658 26.3488 22.5179 26.9953 20.9026 27H6.09741C4.48208 26.9953 2.93421 26.3488 1.79179 25.2014C0.649366 24.0541 0.00521722 22.4992 0 20.8764V6.12583C0.00463787 4.50259 0.648531 2.94717 1.79101 1.79936C2.9335 0.651554 4.4817 0.00465948 6.09741 0V0ZM10.8084 10.466H14.2207V12.232H14.269C14.7459 11.3755 15.906 10.466 17.6396 10.466C21.241 10.466 21.9067 12.7177 21.9067 15.647V21.8413H18.3494V16.3358C18.3494 15.0753 18.323 13.4528 16.4993 13.4528C14.6755 13.4528 14.3635 14.8236 14.3635 16.2453V21.8523H10.8084V10.466ZM8.78906 7.0179C8.78906 7.38552 8.68056 7.74488 8.47727 8.05055C8.27397 8.35621 7.98503 8.59445 7.64697 8.73513C7.30891 8.87581 6.93691 8.91262 6.57803 8.8409C6.21915 8.76919 5.88949 8.59216 5.63075 8.33221C5.37201 8.07227 5.1958 7.74107 5.12442 7.38052C5.05303 7.01996 5.08967 6.64623 5.2297 6.3066C5.36973 5.96696 5.60686 5.67667 5.91111 5.47243C6.21535 5.26819 6.57305 5.15918 6.93897 5.15918C7.42946 5.15976 7.8997 5.35578 8.24654 5.70423C8.59337 6.05268 8.78848 6.52512 8.78906 7.0179ZM5.09326 10.466H8.78906V21.8413H5.09326V10.466Z" fill="#FFB600"/>
</svg>
