<svg width="26" height="24" viewBox="0 0 26 24" fill="none" xmlns="http://www.w3.org/2000/svg">
<path d="M12.5979 0C5.64387 0 0 5.376 0 12C0 18.624 5.64387 24 12.5979 24C19.552 24 25.1958 18.624 25.1958 12C25.1958 5.376 19.552 0 12.5979 0ZM12.5979 19.8C11.5523 19.8 10.7082 18.996 10.7082 18H14.4876C14.4876 18.996 13.6435 19.8 12.5979 19.8ZM18.8969 16.8H6.29896V15.6L7.55875 14.4V11.268C7.55875 8.724 8.85634 6.564 11.3381 6V5.4C11.3381 4.716 11.8798 4.2 12.5979 4.2C13.316 4.2 13.8577 4.716 13.8577 5.4V6C16.3395 6.564 17.6371 8.736 17.6371 11.268V14.4L18.8969 15.6V16.8Z" fill="#FFB600"/>
</svg>
