<svg width="33" height="33" viewBox="0 0 33 33" fill="none" xmlns="http://www.w3.org/2000/svg">
<path d="M8.07468 5.69L7.68667 5.37466L7.37132 5.76267L5.42423 8.15846L6.20026 8.78916L7.83201 6.78138L8.9617 7.6995L9.59239 6.92346L8.07468 5.69ZM10.8763 7.96692L10.4883 7.65157L10.1729 8.03958L8.22584 10.4354L9.00187 11.0661L10.6336 9.05829L11.7633 9.97641L12.394 9.20037L10.8763 7.96692ZM13.676 10.2422L13.2879 9.9269L12.9726 10.3149L11.0255 12.7107L11.8015 13.3414L13.4333 11.3336L14.563 12.2517L15.1937 11.4757L13.676 10.2422ZM16.4776 12.5192L16.0896 12.2038L15.7742 12.5918L13.8271 14.9876L14.6031 15.6183L16.2349 13.6105L17.3646 14.5286L17.9953 13.7526L16.4776 12.5192ZM6.93426 2.62761L6.93475 2.62701C7.75859 1.61014 9.44788 1.47481 10.7054 2.49683L20.4487 10.4154C21.7082 11.439 21.9214 13.1207 21.0956 14.1368L16.4288 19.879C15.6016 20.8968 13.9132 21.0302 12.6557 20.0082L2.91239 12.0897C1.6533 11.0664 1.44139 9.38627 2.26744 8.36987L6.93426 2.62761ZM25.6732 21.6608L25.6174 21.9268L25.8103 22.1182L27.9451 24.2373L25.36 22.6473L25.1344 22.5085L24.8929 22.6172C23.6412 23.1804 22.9784 23.3976 22.4151 23.3532C21.9516 23.3167 21.4919 23.0959 20.7648 22.5421L24.5904 17.835C25.2617 18.4058 25.6015 18.7884 25.7661 19.2205C25.9574 19.7228 25.942 20.3783 25.6732 21.6608ZM23.8904 16.024L18.8476 22.2289L17.4883 21.1242L22.5311 14.9193L23.8904 16.024Z" stroke="#F5F5F5"/>
<path d="M28.6258 30.0721L28.709 29.8759C28.8369 29.9294 28.9743 29.96 29.1213 29.9674L29.7574 30.0721C29.5823 30.1464 29.3939 30.1837 29.1919 30.1837C28.99 30.1837 28.8012 30.1464 28.6258 30.0721ZM28.6258 30.0721L28.7089 29.8759C28.7076 29.8753 28.7063 29.8748 28.705 29.8742C28.5573 29.8115 28.4204 29.7172 28.2952 29.5916L28.1448 29.7402L28.6258 30.0721ZM29.288 29.4639C29.2913 29.4636 29.2946 29.4632 29.2978 29.4628C29.343 29.4571 29.3851 29.4477 29.4246 29.4351C29.4247 29.4351 29.4248 29.435 29.4249 29.435C29.4268 29.4344 29.4287 29.4338 29.4306 29.4332L29.4099 29.3987L29.288 29.4639Z" stroke="#F5F5F5"/>
</svg>
