<svg width="32" height="32" viewBox="0 0 32 32" fill="none" xmlns="http://www.w3.org/2000/svg">
<path d="M12.698 15.167H9.73275L7.26172 17.638V23.239H24.7237V17.638L22.4174 15.167" stroke="#F5F5F5"/>
<path d="M7.25996 17.6383H24.7219M12.6962 7.42469V15.9909M16.1557 7.42469V15.9909M19.6151 7.42469V15.9909M10.3899 13.1904H21.7567M10.3899 10.2252H22.0862M5.28313 5.77733C7.64434 3.14156 14.5083 -1.17451 23.0746 2.64736C31.6408 6.46922 31.5859 16.4302 30.4877 20.933C28.9502 24.9965 22.9428 32.5304 11.2136 30.1582C7.86399 29.2247 1.13179 24.8867 1 15.0025M5.28313 5.77733V1M5.28313 5.77733H10.3899" stroke="#F5F5F5"/>
</svg>
