<svg width="32" height="32" viewBox="0 0 32 32" fill="none" xmlns="http://www.w3.org/2000/svg">
<path d="M5.40678 5.23729L9.81356 9.64407M13.8814 13.7119L17.9492 9.81356M13.8814 13.7119L9.81356 9.64407M13.8814 13.7119L9.72881 17.8136M17.9492 9.81356L14.0508 5.83051M17.9492 9.81356L21.8018 13.7119M10.1525 1.84746L14.0508 5.83051M14.0508 5.83051L17.6845 1.84746M18.4576 1L17.6845 1.84746M17.6845 1.84746L21.8018 5.83051M31 14.7288L29.9488 13.7119M21.8018 5.83051L24.3898 3.37288M21.8018 5.83051L25.8753 9.77119M29.9488 13.7119L30.8305 12.8644M29.9488 13.7119L25.8753 9.77119M29.9488 13.7119L21.8749 21.9674M2.01695 10.1525L5.74576 13.7119M5.74576 13.7119L9.81356 9.64407M5.74576 13.7119L1.65459 17.9492M1 18.6271L1.65459 17.9492M1.65459 17.9492L5.57627 21.9152M14.5593 31L13.7119 30.1429M9.64407 26.2542L7.44068 28.7966M5.57627 21.9152L9.72881 17.8136M5.57627 21.9152L13.7119 30.1429M9.72881 17.8136L13.9237 21.9674M21.8475 29.8136L18.1186 26.1212M13.7119 30.1429L18.1186 26.1212M18.1186 26.1212L13.9237 21.9674M13.9237 21.9674L25.8753 9.77119M17.9492 18.1186L21.8749 21.9674M26.5932 26.5932L21.8749 21.9674" stroke="#F5F5F5"/>
<path d="M25.9141 17.7793L29.8124 21.6776" stroke="#F5F5F5"/>
</svg>
