<svg width="34" height="31" viewBox="0 0 34 31" fill="none" xmlns="http://www.w3.org/2000/svg">
<path d="M3.25352 12.7188C11.6667 13.6202 29.3944 17.5864 33 26.2399M1 15.423C5.80751 16.7751 13.5296 21.0117 5.95775 27.1413" stroke="#F5F5F5"/>
<path d="M1.44922 15.4225C5.50556 16.6244 12.0858 20.6507 5.95626 27.1408M2.80133 12.2676C12.1159 14.0704 31.1957 19.3887 32.9985 26.2394M25.7872 1L23.9844 3.25352M23.9844 3.25352V8.21127H29.3929M23.9844 3.25352L29.3929 8.21127M29.3929 8.21127L32.0971 5.50704" stroke="#F5F5F5"/>
<path d="M23.0822 10.0137L19.0259 14.07M24.4343 10.9151L21.7301 14.9714M25.7864 10.9151V13.6193M14.5188 27.5911C17.3733 26.3893 23.9836 24.7066 27.5892 27.5911C32.0963 31.1968 10.9132 28.9433 14.5188 27.5911Z" stroke="#F5F5F5"/>
</svg>
