<svg width="36" height="30" viewBox="0 0 36 30" fill="none" xmlns="http://www.w3.org/2000/svg">
<path d="M10.877 1H20.2772" stroke="white" stroke-miterlimit="10" stroke-linecap="round"/>
<path d="M1 17.3077V12.1104H3.24789V27.8388H1L1.03406 18.9971" stroke="white" stroke-miterlimit="10" stroke-linecap="round"/>
<path d="M6.17712 12.1104H3.24805" stroke="white" stroke-miterlimit="10" stroke-linecap="round"/>
<path d="M1 6.8584C1 6.8584 2.63483 8.28887 2.43048 9.17441L2.45091 12.1103" stroke="white" stroke-miterlimit="10" stroke-linecap="round"/>
<path d="M11.6264 1L7.94119 6.24508C7.94119 6.24508 7.26682 7.26685 7.33494 8.90168C7.40305 10.5365 7.32812 14.9233 7.32812 14.9233C7.32812 14.9233 8.08423 17.6208 10.8771 18.302H20.2773C20.2773 18.302 22.7296 17.5527 23.4108 15.5772V12.4438C23.4108 12.4438 22.1165 12.6277 22.3209 11.4493L22.389 10.1346C22.389 10.1346 22.1165 9.38532 23.4108 9.48749V8.28862C23.4108 8.28862 23.3903 7.66875 22.8522 6.04073L19.2556 1" stroke="white" stroke-miterlimit="10" stroke-linecap="round"/>
<path d="M28.9293 29.2013C30.5168 29.2013 31.8038 27.9143 31.8038 26.3267C31.8038 24.7391 30.5168 23.4521 28.9293 23.4521C27.3417 23.4521 26.0547 24.7391 26.0547 26.3267C26.0547 27.9143 27.3417 29.2013 28.9293 29.2013Z" stroke="white" stroke-miterlimit="10" stroke-linecap="round"/>
<path d="M29.752 15.6454H33.7641C33.7641 15.6454 35.1265 15.1958 34.9902 13.922C34.854 12.6482 35.2763 11.8036 34.3295 10.1347L31.523 7.26691C31.523 7.26691 30.004 6.72878 29.752 7.7778V23.5675" stroke="white" stroke-miterlimit="10" stroke-linecap="round"/>
<path d="M23.4102 9.48047H29.7519" stroke="white" stroke-miterlimit="10" stroke-linecap="round"/>
<path d="M23.4102 12.4443H29.7519" stroke="white" stroke-miterlimit="10" stroke-linecap="round"/>
<path d="M28.1055 23.568V12.4443" stroke="white" stroke-miterlimit="10" stroke-linecap="round"/>
<path d="M3.24805 22.7773H28.1043" stroke="white" stroke-miterlimit="10" stroke-linecap="round"/>
<path d="M3.24805 24.3643H19.6645" stroke="white" stroke-miterlimit="10" stroke-linecap="round"/>
<path d="M22.1172 24.3643H26.8241" stroke="white" stroke-miterlimit="10" stroke-linecap="round"/>
<path d="M9.85459 7.73633L7.40234 7.7772" stroke="white" stroke-miterlimit="10" stroke-linecap="round"/>
<path d="M12.2402 7.73633H23.3298" stroke="white" stroke-miterlimit="10" stroke-linecap="round"/>
<path d="M7.33594 14.5557H23.4118" stroke="white" stroke-miterlimit="10" stroke-linecap="round"/>
<path d="M4.9704 12.1104C4.9704 12.1104 3.51948 19.7804 9.58198 20.3799L20.6511 20.4752C20.6511 20.4752 26.9384 20.6183 25.9575 12.4441" stroke="white" stroke-miterlimit="10" stroke-linecap="round"/>
<path d="M15.5161 18.3018L15.373 20.4747" stroke="white" stroke-miterlimit="10" stroke-linecap="round"/>
<path d="M3.24805 19.3853L6.51771 22.7776H24.4736L27.9817 19.2627" stroke="white" stroke-miterlimit="10" stroke-linecap="round"/>
<path d="M32.4017 11.9264C32.6612 11.9264 32.8717 11.7159 32.8717 11.4563C32.8717 11.1968 32.6612 10.9863 32.4017 10.9863C32.1421 10.9863 31.9316 11.1968 31.9316 11.4563C31.9316 11.7159 32.1421 11.9264 32.4017 11.9264Z" stroke="white" stroke-miterlimit="10" stroke-linecap="round"/>
<path d="M32.4153 13.9693C32.6749 13.9693 32.8853 13.7589 32.8853 13.4993C32.8853 13.2397 32.6749 13.0293 32.4153 13.0293C32.1557 13.0293 31.9453 13.2397 31.9453 13.4993C31.9453 13.7589 32.1557 13.9693 32.4153 13.9693Z" stroke="white" stroke-miterlimit="10" stroke-linecap="round"/>
</svg>
