<svg width="32" height="29" viewBox="0 0 32 29" fill="none" xmlns="http://www.w3.org/2000/svg">
<g clip-path="url(#clip0)">
<path d="M31.344 9.7924C31.427 9.74599 31.4981 9.68178 31.5519 9.6047C31.618 9.5102 31.6556 9.39994 31.6613 9.2863C31.6669 9.17267 31.6403 9.05946 31.5841 8.95929C31.5279 8.85917 31.4441 8.77574 31.3416 8.71894L31.344 9.7924ZM31.344 9.7924H31.3306L31.2577 9.82811L16.279 17.1684C16.1922 17.2108 16.0963 17.2329 15.999 17.2329C15.9017 17.2329 15.8059 17.2108 15.7191 17.1684C15.7191 17.1684 15.719 17.1684 15.719 17.1684L0.701489 9.8103C0.701411 9.81027 0.701333 9.81023 0.701254 9.81019C0.598036 9.75942 0.51143 9.68231 0.450197 9.58767C0.388946 9.493 0.35523 9.38416 0.35218 9.27276C0.34913 9.16138 0.37684 9.05098 0.43275 8.95332C0.488544 8.85586 0.570503 8.77447 0.670438 8.71837C0.670691 8.71822 0.670944 8.71808 0.671198 8.71794L15.6876 0.428821L15.6893 0.427901C15.785 0.3744 15.8935 0.346094 16.0042 0.346094C16.1149 0.346094 16.2234 0.3744 16.3191 0.427906L16.3207 0.428829L31.3413 8.7188L31.344 9.7924ZM28.8951 20.239C28.8185 20.1655 28.7619 20.0737 28.7315 19.9721C28.685 19.8167 28.7029 19.6494 28.7819 19.5065C28.8609 19.3635 28.9953 19.2558 29.1567 19.2088C29.3183 19.1619 29.4921 19.1803 29.6394 19.2594L29.6394 19.2594L29.6436 19.2615L31.3128 20.129L31.313 20.1291C31.4616 20.2063 31.5716 20.3376 31.6205 20.4929C31.6694 20.648 31.6538 20.8159 31.5769 20.9601L31.5757 20.9624C31.5121 21.0837 31.4096 21.1823 31.2828 21.2423L31.2828 21.2423L31.2787 21.2443L16.279 28.5846C16.1922 28.627 16.0963 28.6492 15.999 28.6492C15.9017 28.6492 15.8059 28.627 15.7191 28.5847C15.7191 28.5847 15.719 28.5846 15.719 28.5846L0.702184 21.2269C0.702028 21.2268 0.701871 21.2267 0.701715 21.2266C0.553329 21.1532 0.441598 21.0261 0.388839 20.874C0.336077 20.722 0.345929 20.5557 0.416575 20.4105L0.416614 20.4105L0.418952 20.4055C0.473683 20.2883 0.566091 20.1908 0.683172 20.1287C0.683604 20.1285 0.684035 20.1282 0.684468 20.128L2.24405 19.3236L2.24407 19.3237L2.24911 19.321C2.39014 19.2453 2.55571 19.2252 2.71176 19.2653C2.86772 19.3054 3.00097 19.4021 3.08543 19.5343C3.16978 19.6662 3.19961 19.8242 3.16969 19.9762C3.13976 20.1284 3.05189 20.2649 2.92226 20.3573L2.4435 20.6982L2.97132 20.9567L15.8463 27.2628L16.0003 27.3382L16.1543 27.2628L28.8552 21.0381L29.2175 21.2326V20.6475V20.6424V20.0811L28.8951 20.239ZM29.0606 15.1201L29.4994 14.9049L29.1544 14.5588C29.0506 14.4546 28.9883 14.3185 28.9775 14.1747C28.9667 14.031 29.0078 13.8876 29.0946 13.77C29.1814 13.6522 29.3086 13.5676 29.4543 13.5324C29.599 13.4975 29.7514 13.514 29.8845 13.5786L31.3104 14.3184L31.311 14.3187C31.4153 14.3725 31.5015 14.4537 31.5604 14.5523C31.6194 14.6509 31.6489 14.7634 31.6461 14.877C31.6434 14.9906 31.6085 15.1016 31.5448 15.1974C31.4811 15.2933 31.391 15.3704 31.2842 15.4194L31.2841 15.4193L31.2761 15.4232L16.279 22.7636C16.1922 22.806 16.0963 22.8281 15.999 22.8281C15.9017 22.8281 15.8059 22.806 15.7191 22.7636C15.7191 22.7636 15.719 22.7636 15.719 22.7636L0.702991 15.4062C0.702731 15.4061 0.702472 15.406 0.702212 15.4058C0.554084 15.3319 0.442586 15.2047 0.389825 15.0527C0.337023 14.9005 0.346663 14.7341 0.416975 14.5886L0.416992 14.5886L0.418546 14.5853C0.473843 14.4677 0.566617 14.3699 0.684008 14.3072L2.21892 13.5098L2.21898 13.5099L2.22751 13.5052C2.36799 13.4272 2.53397 13.4046 2.69131 13.4427C2.84857 13.4807 2.98385 13.576 3.07061 13.7076C3.15726 13.8391 3.18946 13.9973 3.16155 14.1505C3.13363 14.3037 3.0473 14.442 2.91843 14.5364L2.45165 14.8784L2.97124 15.133L15.8541 21.4469L16.0081 21.5224L16.1622 21.4468L29.0606 15.1201ZM15.8462 15.8517L16.0003 15.9272L16.1544 15.8516L29.0607 9.51982L29.6636 9.224L29.0758 8.89923L16.1695 1.76922L16.0004 1.67577L15.8312 1.76915L2.91189 8.89916L2.32328 9.22401L2.92697 9.51988L15.8462 15.8517Z" fill="#F5F5F5" stroke="#08090C" stroke-width="0.7"/>
</g>
<defs>
<clipPath id="clip0">
<rect width="32" height="29" fill="white"/>
</clipPath>
</defs>
</svg>
