<svg width="21" height="38" viewBox="0 0 21 38" fill="none" xmlns="http://www.w3.org/2000/svg">
<path d="M8.69048 16.3172H1C1.54286 8.4925 7.55952 2.84544 10.5 1C17.3762 4.39562 19.6984 12.6263 20 16.3172H12.7619H12.3095M8.69048 21.1153V21.0292M12.3095 16.3172C12.3095 14.8053 12.3095 13.4325 12.3095 12.8108C12.3095 11.4821 11.1032 11.1499 10.5 11.1499C9.05238 11.0023 8.69048 12.1957 8.69048 12.8108V21.0292M12.3095 16.3172C12.3095 18.037 12.3095 19.9368 12.3095 21.1153V21.4844M8.2381 24.2526C7.78571 24.1911 6.92619 23.8097 7.10714 22.7762C7.33333 21.4844 8.0119 21.4844 8.69048 21.4844M8.2381 24.2526C8.99206 24.2526 10.8619 24.2526 12.3095 24.2526C12.6913 24.2526 12.9871 24.1841 13.2143 24.0743M8.2381 24.2526V35.5098C8.31349 36.0634 8.91667 37.1338 10.7262 36.9862C12.5357 36.8385 13.1389 35.9404 13.2143 35.5098V24.0743M8.69048 21.4844C9.23333 21.4844 11.3294 21.4844 12.3095 21.4844M8.69048 21.4844V21.0292M12.3095 21.4844C12.9127 21.4229 14.0738 21.5952 13.8929 22.7762C13.9484 23.1386 13.8486 23.7677 13.2143 24.0743" stroke="#F5F5F5"/>
</svg>
