<svg width="30" height="33" viewBox="0 0 30 33" fill="none" xmlns="http://www.w3.org/2000/svg">
<g clip-path="url(#clip0)">
<path d="M0.508344 5.01059C5.42711 5.17703 10.2743 4.07375 14.9739 0.603879C20.2816 3.84171 25.1643 5.47982 29.4555 5.25245C29.7505 12.4332 28.5324 18.119 26.0771 22.4548C23.5975 26.8336 19.8348 29.8739 15.0027 31.6898C10.3416 29.9901 6.64947 27.1008 4.15641 22.7439C1.682 18.4196 0.367171 12.6113 0.508344 5.01059Z" stroke="#F5F5F5"/>
<path d="M2.67738 6.69305C6.85845 6.82087 10.9857 5.87543 14.9826 2.93473C19.4815 5.67293 23.6338 7.0714 27.2932 6.89775C27.5349 12.9945 26.4941 17.8188 24.4106 21.4975C22.303 25.2188 19.107 27.8061 15.0006 29.3557C11.0413 27.9065 7.90722 25.4487 5.78911 21.747C3.68947 18.0776 2.56675 13.148 2.67738 6.69305Z" stroke="#F5F5F5"/>
<path d="M14.2361 8.9926C14.243 8.81598 14.2576 8.63634 14.2805 8.45908L14.4941 8.77329L14.8819 8.03625C15.0993 7.62316 15.4057 7.23227 15.78 7.00211L16.1246 6.79016C16.2741 6.89388 16.3759 7.04494 16.4117 7.22753C16.4563 7.45808 16.4007 7.73546 16.163 7.97659C16.0735 8.06695 15.9522 8.16162 15.7889 8.28363C15.7701 8.2977 15.7507 8.31211 15.7309 8.32686C15.5889 8.43264 15.4237 8.5556 15.2665 8.69141C14.8761 9.02765 14.5353 9.36093 14.2381 9.73146C14.2274 9.47765 14.2263 9.23144 14.2361 8.99346L14.2361 8.9926ZM15.3087 13.2808C15.7164 13.0292 16.1189 12.6568 16.5127 12.1953C16.7061 11.9689 16.8678 11.7416 17.0123 11.5344C17.032 11.5061 17.0514 11.4782 17.0704 11.4509C17.1942 11.2729 17.304 11.115 17.4229 10.9659C17.6845 10.6379 17.9674 10.3825 18.4217 10.2159L18.4223 10.2157C18.9893 10.0068 19.5563 10.097 19.9916 10.3713L19.9556 11.1093C19.9233 11.7717 19.5639 12.1394 19.0413 12.6475L18.2842 13.3835L19.3333 13.5028C19.3424 13.5038 19.3515 13.5047 19.3606 13.5056C19.2612 13.5593 19.156 13.6166 19.0395 13.6823L19.0379 13.6832C18.6721 13.8913 18.247 14.1481 17.8635 14.441C17.5764 14.6589 17.297 14.9064 17.0798 15.1768C16.8658 15.4434 16.681 15.771 16.651 16.144L16.6509 16.1449C16.6031 16.7529 17.0708 17.1776 17.4728 17.4441C17.9113 17.7348 18.4988 17.988 19.0956 18.2137C19.5126 18.3714 19.9582 18.5242 20.3831 18.6699C20.5685 18.7335 20.75 18.7957 20.9234 18.8564C21.5115 19.0622 22.0018 19.2486 22.327 19.4262L22.342 19.4344L22.3575 19.4415C22.7743 19.6333 23.0068 19.8879 23.1246 20.1367C23.2439 20.3887 23.2622 20.6694 23.1914 20.9398C23.047 21.4915 22.5512 21.9466 21.9003 21.9513L21.8986 21.9513C21.557 21.955 21.1662 21.8138 20.7193 21.4647L17.1886 18.4114C16.7765 18.0487 16.1891 18.0565 15.8083 18.3763L15.8063 18.3779C15.6073 18.5468 15.5682 18.7836 15.5581 18.9106C15.5465 19.0572 15.5624 19.2131 15.5861 19.3556C15.634 19.6445 15.7324 19.9832 15.8362 20.2995C15.9413 20.6201 16.0594 20.9398 16.1534 21.1934L16.1641 21.2223C16.2071 21.3384 16.2439 21.4377 16.2727 21.5184C16.2882 21.5619 16.3004 21.5972 16.3093 21.6246C16.3176 21.6501 16.3208 21.6619 16.3214 21.6641C16.3214 21.6643 16.3215 21.6644 16.3215 21.6645C16.4096 22.0569 16.1813 22.3145 15.9899 22.3671C15.9049 22.3905 15.809 22.3822 15.705 22.3033C15.5918 22.2174 15.4356 22.0195 15.3291 21.6041C15.1321 20.8299 14.6966 19.9273 14.1487 19.4344C13.8754 19.1886 13.4736 18.9592 13.0107 19.073C12.5562 19.1847 12.2509 19.5782 12.0434 20.0579L12.0341 20.0793L12.0269 20.1014L11.89 20.521L11.8896 20.5222C11.8481 20.6508 11.8068 20.8009 11.7674 20.9439C11.7496 21.0086 11.7322 21.0719 11.7154 21.1311C11.657 21.3359 11.5968 21.5249 11.5231 21.6906C11.3729 22.0286 11.216 22.1668 11.0198 22.1993L11.0196 22.1993C10.8389 22.2294 10.6322 22.1512 10.4853 21.9849C10.3453 21.8264 10.3091 21.6474 10.3622 21.4975C10.4216 21.3751 10.4965 21.2393 10.5839 21.0808C10.6017 21.0484 10.6201 21.0151 10.639 20.9808C10.7503 20.7781 10.8739 20.5484 10.9785 20.3116C11.1748 19.8671 11.3697 19.2583 11.1392 18.6861C11.0245 18.398 10.7862 18.1755 10.6138 18.0491L10.6126 18.0483C10.1968 17.7453 9.76695 17.6779 9.37906 17.6846C9.29856 17.6861 9.21876 17.6907 9.141 17.6971L9.60642 17.3433L8.46655 17.1516C8.0815 17.0869 7.69325 16.8727 7.37208 16.61L7.13861 16.419C7.22306 16.2912 7.30935 16.2226 7.39061 16.1794C7.50505 16.1186 7.65224 16.0853 7.86478 16.0706C7.97042 16.0633 8.08203 16.061 8.2087 16.0591C8.21997 16.0589 8.23137 16.0588 8.24288 16.0586C8.35679 16.0569 8.48248 16.0551 8.6093 16.0487C8.88996 16.0345 9.2105 15.997 9.53448 15.872C10.1858 15.6213 10.6375 15.2527 10.8519 14.7562C11.064 14.2652 10.9985 13.7538 10.8441 13.3127C10.5567 12.492 9.8742 11.682 9.45337 11.1826C9.4349 11.1607 9.41694 11.1394 9.39953 11.1187L9.39839 11.1173C9.38222 11.0982 9.36615 11.0792 9.3502 11.0603L9.97294 11.0426L9.64262 10.3495C9.39943 9.83929 9.34805 9.23712 9.50861 8.74158L9.67598 8.22505C9.78719 8.21232 9.90044 8.21354 10.0129 8.23018C10.4683 8.29754 10.9999 8.63535 11.3189 9.54099C11.448 9.9167 11.5772 10.2876 11.7092 10.6587L11.7093 10.6591C11.7478 10.7672 11.7905 10.8951 11.8392 11.0411L11.8428 11.0519C11.8923 11.2005 11.9472 11.3648 12.0064 11.5331L12.0068 11.5342C12.4287 12.7237 13.0689 13.5543 14.0068 13.639C14.4592 13.6798 14.9003 13.5328 15.3087 13.2808ZM8.10759 17.2318C8.1076 17.2319 8.10723 17.232 8.10643 17.2322L8.10759 17.2318ZM7.53201 16.9482C7.53232 16.9482 7.53414 16.9508 7.53657 16.9559C7.53293 16.9507 7.53171 16.9481 7.53201 16.9482ZM20.3582 15.9368C20.4125 15.9233 20.4663 15.9106 20.5198 15.8988L20.5198 15.8988C20.6446 15.8713 20.7718 15.8483 20.898 15.8313L21.3995 16.0733C21.6849 16.211 21.8776 16.4467 22.0267 16.8077L22.0373 16.8334C21.9247 16.8593 21.7883 16.8493 21.6458 16.7737C21.5743 16.7352 21.491 16.6758 21.3709 16.5856C21.3578 16.5757 21.3443 16.5655 21.3304 16.5551C21.2272 16.4771 21.1021 16.3827 20.9684 16.2969C20.7635 16.1628 20.5626 16.0424 20.3582 15.9368ZM9.25801 10.0878C9.25799 10.088 9.25679 10.0871 9.25446 10.0846C9.25686 10.0864 9.25803 10.0877 9.25801 10.0878ZM14.8926 7.62955C14.8926 7.6346 14.8921 7.63739 14.8919 7.63752C14.8916 7.63766 14.8916 7.63513 14.8926 7.62955ZM5.66019 14.0832C5.8104 13.7939 6.02805 13.5318 6.29746 13.3756L6.52461 13.2438C6.75452 13.3187 6.99172 13.4253 7.2152 13.5468C7.26172 13.5724 7.30842 13.599 7.35529 13.6264C7.12739 13.6699 6.89857 13.7282 6.66164 13.7982L6.66163 13.7982L6.65464 13.8004C6.51151 13.8449 6.37146 13.8983 6.25352 13.9432C6.23151 13.9516 6.21028 13.9597 6.18993 13.9673C6.04949 14.0204 5.95019 14.0547 5.8692 14.0721L5.86919 14.0721L5.86623 14.0727C5.79163 14.0892 5.72276 14.0915 5.66019 14.0832ZM5.96856 13.431C5.96855 13.431 5.96783 13.4312 5.96643 13.4314L5.96856 13.431ZM17.8738 23.5308C18.0594 23.5308 18.1895 23.6743 18.1895 23.828C18.1895 23.9816 18.0594 24.1251 17.8738 24.1251C17.6883 24.1251 17.5582 23.9816 17.5582 23.828C17.5582 23.6759 17.6894 23.5308 17.8738 23.5308ZM7.31938 20.503C7.31938 20.5051 7.31911 20.5073 7.31866 20.5092C7.31858 20.509 7.31851 20.5088 7.31844 20.5086C7.31778 20.5064 7.3175 20.5043 7.3175 20.503C7.3175 20.5016 7.31777 20.4996 7.31844 20.4974C7.3191 20.4996 7.31938 20.5016 7.31938 20.503ZM13.7767 23.5125C13.6994 23.5125 13.6202 23.4489 13.6202 23.3481C13.6202 23.2448 13.6993 23.1838 13.7767 23.1838C13.854 23.1838 13.9333 23.2473 13.9333 23.3481C13.9333 23.4488 13.8515 23.5125 13.7767 23.5125Z" fill="#F5F5F5" stroke="#F5F5F5"/>
</g>
<defs>
<clipPath id="clip0">
<rect width="30" height="32.2222" fill="white"/>
</clipPath>
</defs>
</svg>
