<?xml version="1.0" encoding="utf-8"?>
<!-- Generator: Adobe Illustrator 24.0.1, SVG Export Plug-In . SVG Version: 6.00 Build 0)  -->
<svg version="1.1" id="Layer_2" xmlns="http://www.w3.org/2000/svg" xmlns:xlink="http://www.w3.org/1999/xlink" x="0px" y="0px"
	 viewBox="0 0 512 512" style="enable-background:new 0 0 512 512;" xml:space="preserve">
<circle style="fill:none;stroke:#FFFFFF;stroke-width:5;stroke-miterlimit:10;" cx="187.7" cy="258.5" r="66"/>
<circle style="fill:none;stroke:#FFFFFF;stroke-width:5;stroke-miterlimit:10;" cx="97.7" cy="414.5" r="66"/>
<circle style="fill:none;stroke:#FFFFFF;stroke-width:5;stroke-miterlimit:10;" cx="277.7" cy="414.5" r="66"/>
<circle style="fill:none;stroke:#FFFFFF;stroke-width:5;stroke-miterlimit:10;" cx="187.7" cy="259.5" r="86.5"/>
<circle style="fill:none;stroke:#FFFFFF;stroke-width:5;stroke-miterlimit:10;" cx="97.7" cy="414.5" r="86.5"/>
<circle style="fill:none;stroke:#FFFFFF;stroke-width:5;stroke-miterlimit:10;" cx="277.7" cy="414.5" r="86.5"/>
<path style="fill:none;stroke:#FFFFFF;stroke-width:5;stroke-miterlimit:10;" d="M133,192.5L343.7,15c0,0,46.7-36,88.5,24
	c0,0,21.5,31.5-2.8,72.6c-1,1.8-2.2,3.6-3.4,5.4L250.6,318.8"/>
<path style="fill:none;stroke:#FFFFFF;stroke-width:5;stroke-miterlimit:10;" d="M492.2,224.3c0,0,51.7-95.1-64.1-106.2L229.7,343.5
	"/>
<line style="fill:none;stroke:#FFFFFF;stroke-width:5;stroke-miterlimit:10;" x1="475" y1="256" x2="351.8" y2="459.1"/>
<line style="fill:none;stroke:#FFFFFF;stroke-width:5;stroke-miterlimit:10;" x1="107.3" y1="291.5" x2="31.7" y2="357.5"/>
</svg>
