<?xml version="1.0" encoding="utf-8"?>
<!-- Generator: Adobe Illustrator 24.0.1, SVG Export Plug-In . SVG Version: 6.00 Build 0)  -->
<svg version="1.1" id="Layer_2" xmlns="http://www.w3.org/2000/svg" xmlns:xlink="http://www.w3.org/1999/xlink" x="0px" y="0px"
	 viewBox="0 0 512 512" style="enable-background:new 0 0 512 512;" xml:space="preserve">
<path style="fill:none;stroke:#FFFFFF;stroke-width:5;stroke-miterlimit:10;" d="M240,343H34c0,0-21,6-28,31s29,37,29,37h439
	c0,0,27-1.9,32-32.9c0,0,0-28.4-36-35.1S240,343,240,343z"/>
<line style="fill:#FFFFFF;stroke:#FFFFFF;stroke-width:5;stroke-miterlimit:10;" x1="156.8" y1="294" x2="144" y2="341.4"/>
<path style="fill:none;stroke:#FFFFFF;stroke-width:5;stroke-miterlimit:10;" d="M78,343c0,0-15.1,2.1-14-21.7l-14-70.9
	c0,0-1-20.8,14-32.1s37.8-15.4,73-34.1s46-38.9,46-38.9l43-40.1c0,0,24-14.4,40-5.1s109,38,109,38"/>
<path style="fill:none;stroke:#FFFFFF;stroke-width:5;stroke-miterlimit:10;" d="M414.1,150c0,0,21.6,11.1,45.9,46.1s18,63,33,71.1
	c15,8.1-25,75.8-25,75.8"/>
<path style="fill:none;stroke:#FFFFFF;stroke-width:5;stroke-miterlimit:10;" d="M64,215c0,0,82.8,22,86.4,24
	c3.6,2,25.8,10.2,18.5,37.2"/>
<line style="fill:none;stroke:#FFFFFF;stroke-width:5;stroke-miterlimit:10;" x1="212.5" y1="237" x2="242" y2="229.2"/>
<line style="fill:none;stroke:#FFFFFF;stroke-width:5;stroke-miterlimit:10;" x1="185" y1="188" x2="219" y2="200"/>
<path style="fill:none;stroke:#FFFFFF;stroke-width:5;stroke-miterlimit:10;" d="M297,320l94.4-43.8c0,0,23.6-9.2,39.6,17.8
	s24.2,47.4,24.2,47.4"/>
<line style="fill:none;stroke:#FFFFFF;stroke-width:5;stroke-miterlimit:10;" x1="376.1" y1="233.1" x2="408" y2="256"/>
<path style="fill:none;stroke:#FFFFFF;stroke-width:5;stroke-miterlimit:10;" d="M242,98.6l51,96c0,0,17.1,24.8,38.8,22.1
	c21.7-2.7,56.3-9.7,60.3-16.7s36.6-39.8,36.6-39.8"/>
</svg>
