<?xml version="1.0" encoding="utf-8"?>
<!-- Generator: Adobe Illustrator 24.0.1, SVG Export Plug-In . SVG Version: 6.00 Build 0)  -->
<svg version="1.1" id="Layer_1" xmlns="http://www.w3.org/2000/svg" xmlns:xlink="http://www.w3.org/1999/xlink" x="0px" y="0px"
	 viewBox="0 0 612 792" style="enable-background:new 0 0 612 792;" xml:space="preserve">
<g>
	<g>
		<polygon style="fill:none;stroke:#FFFFFF;stroke-width:5;stroke-miterlimit:10;" points="156.5,547.7 276.1,192.1 306.6,204.5 
			180.8,568.5 		"/>
	</g>
	<line style="fill:none;stroke:#FFFFFF;stroke-width:5;stroke-miterlimit:10;" x1="203.8" y1="506.9" x2="177.1" y2="480.3"/>
	<line style="fill:none;stroke:#FFFFFF;stroke-width:5;stroke-miterlimit:10;" x1="165.8" y1="521.5" x2="186.2" y2="547.4"/>
	<line style="fill:none;stroke:#FFFFFF;stroke-width:5;stroke-miterlimit:10;" x1="173" y1="501.3" x2="193.4" y2="527.1"/>
	<line style="fill:none;stroke:#FFFFFF;stroke-width:5;stroke-miterlimit:10;" x1="185.6" y1="463.3" x2="208.7" y2="486.8"/>
	<line style="fill:none;stroke:#FFFFFF;stroke-width:5;stroke-miterlimit:10;" x1="192.2" y1="441" x2="215.3" y2="464.5"/>
	<line style="fill:none;stroke:#FFFFFF;stroke-width:5;stroke-miterlimit:10;" x1="201.6" y1="421.8" x2="224.7" y2="445.2"/>
	<line style="fill:none;stroke:#FFFFFF;stroke-width:5;stroke-miterlimit:10;" x1="206" y1="401.8" x2="229.1" y2="425.3"/>
	<line style="fill:none;stroke:#FFFFFF;stroke-width:5;stroke-miterlimit:10;" x1="213.1" y1="380.3" x2="236.2" y2="403.7"/>
	<line style="fill:none;stroke:#FFFFFF;stroke-width:5;stroke-miterlimit:10;" x1="220" y1="356.8" x2="245.2" y2="382.3"/>
	<line style="fill:none;stroke:#FFFFFF;stroke-width:5;stroke-miterlimit:10;" x1="229" y1="335.1" x2="252.1" y2="358.6"/>
	<line style="fill:none;stroke:#FFFFFF;stroke-width:5;stroke-miterlimit:10;" x1="236.4" y1="311.9" x2="259.5" y2="335.3"/>
	<line style="fill:none;stroke:#FFFFFF;stroke-width:5;stroke-miterlimit:10;" x1="241.6" y1="292.1" x2="267.3" y2="318.2"/>
	<line style="fill:none;stroke:#FFFFFF;stroke-width:5;stroke-miterlimit:10;" x1="248.5" y1="274.4" x2="272.4" y2="296.7"/>
	<line style="fill:none;stroke:#FFFFFF;stroke-width:5;stroke-miterlimit:10;" x1="254" y1="252.4" x2="280.7" y2="279.5"/>
	<line style="fill:none;stroke:#FFFFFF;stroke-width:5;stroke-miterlimit:10;" x1="262.8" y1="235.7" x2="286" y2="259.2"/>
	<line style="fill:none;stroke:#FFFFFF;stroke-width:5;stroke-miterlimit:10;" x1="268" y1="215.5" x2="293.8" y2="241.7"/>
	<line style="fill:none;stroke:#FFFFFF;stroke-width:5;stroke-miterlimit:10;" x1="276.9" y1="197.1" x2="300.1" y2="220.6"/>
	<g>
		<polygon style="fill:none;stroke:#FFFFFF;stroke-width:5;stroke-miterlimit:10;" points="208.1,569.6 311.3,208.9 342.3,219.9 
			233.3,589.3 		"/>
	</g>
	<line style="fill:none;stroke:#FFFFFF;stroke-width:5;stroke-miterlimit:10;" x1="253.4" y1="526.7" x2="225.6" y2="501.3"/>
	<line style="fill:none;stroke:#FFFFFF;stroke-width:5;stroke-miterlimit:10;" x1="216" y1="543.2" x2="237.9" y2="567.8"/>
	<line style="fill:none;stroke:#FFFFFF;stroke-width:5;stroke-miterlimit:10;" x1="222.2" y1="522.6" x2="244.1" y2="547.2"/>
	<line style="fill:none;stroke:#FFFFFF;stroke-width:5;stroke-miterlimit:10;" x1="233.2" y1="484" x2="257.4" y2="506.4"/>
	<line style="fill:none;stroke:#FFFFFF;stroke-width:5;stroke-miterlimit:10;" x1="238.8" y1="461.5" x2="263" y2="483.8"/>
	<line style="fill:none;stroke:#FFFFFF;stroke-width:5;stroke-miterlimit:10;" x1="247.3" y1="441.8" x2="271.5" y2="464.2"/>
	<line style="fill:none;stroke:#FFFFFF;stroke-width:5;stroke-miterlimit:10;" x1="250.8" y1="421.6" x2="275" y2="444"/>
	<line style="fill:none;stroke:#FFFFFF;stroke-width:5;stroke-miterlimit:10;" x1="257" y1="399.8" x2="281.1" y2="422.2"/>
	<line style="fill:none;stroke:#FFFFFF;stroke-width:5;stroke-miterlimit:10;" x1="262.8" y1="376.1" x2="289" y2="400.4"/>
	<line style="fill:none;stroke:#FFFFFF;stroke-width:5;stroke-miterlimit:10;" x1="270.7" y1="354" x2="294.9" y2="376.3"/>
	<line style="fill:none;stroke:#FFFFFF;stroke-width:5;stroke-miterlimit:10;" x1="277.1" y1="330.4" x2="301.2" y2="352.7"/>
	<line style="fill:none;stroke:#FFFFFF;stroke-width:5;stroke-miterlimit:10;" x1="281.3" y1="310.4" x2="308.2" y2="335.3"/>
	<line style="fill:none;stroke:#FFFFFF;stroke-width:5;stroke-miterlimit:10;" x1="287.5" y1="292.4" x2="312.4" y2="313.6"/>
	<line style="fill:none;stroke:#FFFFFF;stroke-width:5;stroke-miterlimit:10;" x1="291.9" y1="270.2" x2="319.8" y2="296"/>
	<line style="fill:none;stroke:#FFFFFF;stroke-width:5;stroke-miterlimit:10;" x1="300" y1="253.1" x2="324.2" y2="275.5"/>
	<line style="fill:none;stroke:#FFFFFF;stroke-width:5;stroke-miterlimit:10;" x1="304.2" y1="232.7" x2="331.2" y2="257.7"/>
	<line style="fill:none;stroke:#FFFFFF;stroke-width:5;stroke-miterlimit:10;" x1="312.3" y1="213.9" x2="336.5" y2="236.3"/>
</g>
</svg>
