<svg width="25" height="23" viewBox="0 0 25 23" fill="none" xmlns="http://www.w3.org/2000/svg">
<path d="M7.05762 12.6048L13.0156 5.17238C13.0156 5.17238 14.3272 3.93364 15.7888 5.17238L16.8732 5.74245L20.7738 7.79988C20.7738 7.79988 21.7982 8.65713 20.8209 9.3858L8.38208 12.2962L7.05762 12.6048Z" stroke="#F5F5F5" stroke-miterlimit="10"/>
<path d="M9.88681 13.4193L8.38232 12.2963" stroke="#F5F5F5" stroke-miterlimit="10"/>
<path d="M12.6127 12.6049L11.644 11.5333" stroke="#F5F5F5" stroke-miterlimit="10"/>
<path d="M15.4206 11.7048C15.4163 11.6448 15.4163 11.6448 15.4163 11.6448L14.7305 10.8132" stroke="#F5F5F5" stroke-miterlimit="10"/>
<path d="M18.1169 10.7617L17.6025 10.0159" stroke="#F5F5F5" stroke-miterlimit="10"/>
<path d="M9.13239 10.0117L2 12.0691L8.38229 15.7339L23.0457 11.1175L20.3582 9.49731" stroke="#F5F5F5" stroke-miterlimit="10"/>
<path d="M2 12.0691V18.3485L8.38229 22.0347L23.0457 17.4484V11.1176" stroke="#F5F5F5" stroke-miterlimit="10"/>
<path d="M8.38232 15.7339V22.0347" stroke="#F5F5F5" stroke-miterlimit="10"/>
<path d="M13.2085 8.61421L16.869 5.74668L17.5591 4.11788L18.1163 3.90357C18.1163 3.90357 18.0306 3.38921 18.5878 3.04631C19.145 2.70341 21.241 1.07461 21.241 1.07461C21.241 1.07461 22.7155 0.731711 23.1313 1.5161C23.547 2.30049 22.3597 3.04631 22.3597 3.04631L18.8964 3.98929C18.3349 4.1436 18.1163 3.90357 18.1163 3.90357" stroke="#F5F5F5" stroke-miterlimit="10"/>
</svg>
