<svg width="24" height="24" viewBox="0 0 24 24" fill="none" xmlns="http://www.w3.org/2000/svg">
<g clip-path="url(#clip0)">
<path d="M13.7295 6.46873H4.92168C4.92168 6.46873 4.35918 6.42186 4.40605 6.84373C4.45293 7.26561 4.40137 8.71873 4.40137 8.71873C4.40137 8.71873 4.54668 9.42186 5.0623 9.28123C5.57793 9.14061 19.0311 9.29998 19.0311 9.29998C19.0311 9.29998 19.5936 9.23436 19.5936 8.71873C19.5936 8.20311 19.5936 6.84373 19.5936 6.84373C19.5936 6.84373 19.4529 6.32342 18.9373 6.46873C18.4217 6.60936 15.2811 6.44529 15.2811 6.44529" stroke="white" stroke-miterlimit="10"/>
<path d="M18.7032 9.29529L19.7813 22.1015C19.7813 22.1015 19.9641 23.625 18.7032 23.7187C17.4376 23.8125 5.62505 23.7187 5.62505 23.7187C5.62505 23.7187 4.44849 23.5312 4.40162 22.5469C4.35943 21.5625 5.10943 12.8437 5.10943 12.8437" stroke="white" stroke-miterlimit="10"/>
<path d="M5.0625 11.25L5.29688 9.25781" stroke="white" stroke-miterlimit="10"/>
<path d="M6.71289 6.49685C6.71289 6.49685 8.08633 5.79373 8.16133 5.53123C8.23633 5.26404 9.36133 2.99529 9.86289 3.52966" stroke="white" stroke-miterlimit="10"/>
<path d="M10.3125 2.71867C10.3125 2.71867 11.1281 1.66399 11.3578 1.42492C11.5875 1.18586 13.2469 0.838986 13.725 2.0718C14.2031 3.3093 14.2172 2.32024 14.8125 2.71867C15.4078 3.11711 15.375 4.01242 15.375 4.01242C15.375 4.01242 15.75 4.68274 16.3594 4.44367C16.9688 4.20461 17.9531 6.2343 17.5781 6.52024" stroke="white" stroke-miterlimit="10"/>
<path d="M10.5705 4.98281C10.7362 4.98281 10.8705 4.8485 10.8705 4.68281C10.8705 4.51713 10.7362 4.38281 10.5705 4.38281C10.4048 4.38281 10.2705 4.51713 10.2705 4.68281C10.2705 4.8485 10.4048 4.98281 10.5705 4.98281Z" stroke="white" stroke-miterlimit="10"/>
<path d="M11.484 5.27339C11.6445 5.27339 11.7746 5.14327 11.7746 4.98276C11.7746 4.82226 11.6445 4.69214 11.484 4.69214C11.3235 4.69214 11.1934 4.82226 11.1934 4.98276C11.1934 5.14327 11.3235 5.27339 11.484 5.27339Z" stroke="white" stroke-miterlimit="10"/>
<path d="M12 19.0172C13.8381 19.0172 15.3281 17.5272 15.3281 15.6891C15.3281 13.851 13.8381 12.361 12 12.361C10.1619 12.361 8.67188 13.851 8.67188 15.6891C8.67188 17.5272 10.1619 19.0172 12 19.0172Z" stroke="white" stroke-miterlimit="10"/>
<path d="M12 12.361V19.0172" stroke="white" stroke-miterlimit="10"/>
<path d="M11.0059 15.6891H13.0777" stroke="white" stroke-miterlimit="10"/>
<path d="M6.42188 20.8125H7.3875" stroke="white" stroke-miterlimit="10"/>
<path d="M6.42188 21.75H8.39062" stroke="white" stroke-miterlimit="10"/>
</g>
<defs>
<clipPath id="clip0">
<rect width="24" height="24" fill="white"/>
</clipPath>
</defs>
</svg>
