<svg width="23" height="23" viewBox="0 0 23 23" fill="none" xmlns="http://www.w3.org/2000/svg">
<path d="M11.5779 11.3817L6.35303 7.89276L7.7486 6.48868L10.0207 7.68002L8.96547 5.38243L10.9737 3.42523L13.3139 6.16957L10.9737 3.21249L13.3139 1L16.8538 5.93555L11.5779 11.3817Z" stroke="white" stroke-miterlimit="10"/>
<path d="M16.8534 5.9355C16.8534 5.9355 17.364 5.25473 17.832 5.9355C18.3 6.61626 20.0445 8.20755 20.0445 8.20755L13.7985 14.3642L11.5775 12.0411C11.5775 12.0411 11.1988 11.7731 11.5775 11.3816" stroke="white" stroke-miterlimit="10"/>
<path d="M15.7261 12.4624C15.7261 12.4624 16.5855 12.4028 17.5897 13.5601C17.5897 13.5601 18.747 16.3597 19.5001 16.3597C20.2532 16.3597 21.7849 16.3512 21.9976 13.9515C21.9976 13.9515 22.1465 13.6197 20.0404 12.4624C17.9343 11.3051 18.1173 10.101 18.1173 10.101" stroke="white" stroke-miterlimit="10"/>
<path d="M6.35286 7.8927C6.35286 7.8927 2.34485 8.12246 1.11096 9.02873C-0.122932 9.935 9.3227 11.237 10.1949 10.4583" stroke="white" stroke-miterlimit="10"/>
<path d="M2.82568 9.99885C2.82568 9.99885 3.58304 9.12236 8.45477 9.29256" stroke="white" stroke-miterlimit="10"/>
<path d="M1.03027 9.2926V10.7775C1.03027 10.7775 4.3873 12.7815 11.4077 11.7306" stroke="white" stroke-miterlimit="10"/>
<path d="M1.66392 11.071L1.57031 20.4018C1.57031 20.4018 7.36533 22.9547 14.3432 20.4018V13.9515" stroke="white" stroke-miterlimit="10"/>
<path d="M3 12.8029V13.5602" stroke="white" stroke-miterlimit="10"/>
<path d="M3 15.0408V19.5508" stroke="white" stroke-miterlimit="10"/>
<path d="M6.40674 16.4091H6.28174V16.5341H6.40674V16.4091ZM6.40674 14.9774V14.8524H6.28174V14.9774H6.40674ZM7.07959 15.0048L7.03638 15.1221L7.03669 15.1222L7.07959 15.0048ZM7.2417 15.1425L7.34879 15.078L7.2417 15.1425ZM6.56201 15.827V15.702H6.43701V15.827H6.56201ZM6.56201 16.4091V16.5341H6.68701V16.4091H6.56201ZM6.56201 15.6581H6.43701V15.7831H6.56201V15.6581ZM7.07568 15.5936L7.16275 15.6833L7.16341 15.6827L7.07568 15.5936ZM7.10889 15.2518L6.99853 15.3106L6.99929 15.3119L7.10889 15.2518ZM7.02979 15.1688L6.97484 15.2811L6.97577 15.2816L7.02979 15.1688ZM6.56201 15.1464V15.0214H6.43701V15.1464H6.56201ZM6.53174 16.4091V14.9774H6.28174V16.4091H6.53174ZM6.40674 15.1024H6.84912V14.8524H6.40674V15.1024ZM6.84912 15.1024C6.95004 15.1024 7.00849 15.1118 7.03638 15.1221L7.1228 14.8875C7.05173 14.8613 6.95653 14.8524 6.84912 14.8524V15.1024ZM7.03669 15.1222C7.07522 15.1362 7.10761 15.1621 7.1346 15.2069L7.34879 15.078C7.29506 14.9887 7.21937 14.9228 7.12249 14.8874L7.03669 15.1222ZM7.1346 15.2069C7.16068 15.2502 7.17725 15.309 7.17725 15.3895H7.42725C7.42725 15.2747 7.40345 15.1688 7.34879 15.078L7.1346 15.2069ZM7.17725 15.3895C7.17725 15.4967 7.1503 15.572 7.10639 15.6264L7.30084 15.7835C7.38843 15.6751 7.42725 15.5402 7.42725 15.3895H7.17725ZM7.10639 15.6264C7.07489 15.6654 7.00723 15.702 6.86279 15.702V15.952C7.04127 15.952 7.20083 15.9073 7.30084 15.7835L7.10639 15.6264ZM6.86279 15.702H6.56201V15.952H6.86279V15.702ZM6.43701 15.827V16.4091H6.68701V15.827H6.43701ZM6.56201 16.2841H6.40674V16.5341H6.56201V16.2841ZM6.56201 15.7831H6.86572V15.5331H6.56201V15.7831ZM6.86572 15.7831C6.97654 15.7831 7.0851 15.7587 7.16274 15.6833L6.98862 15.5039C6.97773 15.5145 6.94631 15.5331 6.86572 15.5331V15.7831ZM7.16341 15.6827C7.2398 15.6074 7.26709 15.5043 7.26709 15.3973H7.01709C7.01709 15.4648 7.00011 15.4926 6.98795 15.5046L7.16341 15.6827ZM7.26709 15.3973C7.26709 15.3245 7.2528 15.2543 7.21849 15.1917L6.99929 15.3119C7.00924 15.3301 7.01709 15.3569 7.01709 15.3973H7.26709ZM7.21923 15.1931C7.1892 15.1367 7.14577 15.0858 7.0838 15.0561L6.97577 15.2816C6.9763 15.2818 6.98561 15.2863 6.99854 15.3106L7.21923 15.1931ZM7.08473 15.0565C7.02554 15.0276 6.94328 15.0214 6.86279 15.0214V15.2714C6.89977 15.2714 6.92793 15.2731 6.94843 15.2759C6.97041 15.2788 6.97688 15.2821 6.97484 15.2811L7.08473 15.0565ZM6.86279 15.0214H6.56201V15.2714H6.86279V15.0214ZM6.43701 15.1464V15.6581H6.68701V15.1464H6.43701ZM8.63369 16.2811L8.75816 16.2697L8.73308 15.9973L8.54356 16.1945L8.63369 16.2811ZM8.4833 16.3944L8.42853 16.282L8.4833 16.3944ZM8.36416 15.8114L8.38171 15.9352L8.38203 15.9351L8.36416 15.8114ZM8.62197 15.7509L8.67121 15.8657L8.74519 15.834L8.74694 15.7536L8.62197 15.7509ZM8.62295 15.7059L8.74795 15.7086V15.7059H8.62295ZM8.58486 15.5565L8.49005 15.638L8.49132 15.6394L8.58486 15.5565ZM8.26943 15.536L8.3489 15.6325L8.35001 15.6316L8.26943 15.536ZM8.19619 15.6913L8.17578 15.8146L8.29447 15.8343L8.31864 15.7164L8.19619 15.6913ZM8.05459 15.6678L7.93159 15.6455L7.90895 15.7704L8.03418 15.7912L8.05459 15.6678ZM8.17666 15.4247L8.09734 15.3281L8.09684 15.3285L8.17666 15.4247ZM8.65127 15.3993L8.58193 15.5033L8.58286 15.5039L8.65127 15.3993ZM8.74697 15.5233L8.62608 15.5551L8.62649 15.5566L8.74697 15.5233ZM8.77627 16.285L8.6524 16.3019L8.65272 16.304L8.77627 16.285ZM8.81338 16.4091V16.5341H9.00699L8.9273 16.3576L8.81338 16.4091ZM8.66299 16.4091L8.54767 16.4573L8.57977 16.5341H8.66299V16.4091ZM8.62197 15.8885H8.74697V15.6874L8.56663 15.7765L8.62197 15.8885ZM8.38662 15.955L8.40782 16.0781L8.40817 16.0781L8.38662 15.955ZM8.25967 15.9911L8.31912 16.1011L8.32137 16.0998L8.25967 15.9911ZM8.20303 16.0477L8.09362 15.9873L8.09306 15.9883L8.20303 16.0477ZM8.22939 16.2509L8.14196 16.3402L8.14295 16.3411L8.22939 16.2509ZM8.496 16.2548L8.42931 16.149L8.42857 16.1495L8.496 16.2548ZM8.59072 16.1483L8.70383 16.2015L8.70412 16.2009L8.59072 16.1483ZM8.54356 16.1945C8.50359 16.2361 8.46506 16.2642 8.42853 16.282L8.53808 16.5068C8.60571 16.4738 8.66744 16.4264 8.72382 16.3677L8.54356 16.1945ZM8.42853 16.282C8.39289 16.2994 8.35753 16.3075 8.32119 16.3075V16.5575C8.39683 16.5575 8.46954 16.5402 8.53808 16.5068L8.42853 16.282ZM8.32119 16.3075C8.25959 16.3075 8.22326 16.2899 8.19821 16.2646L8.02035 16.4403C8.10076 16.5217 8.20571 16.5575 8.32119 16.5575V16.3075ZM8.19821 16.2646C8.17321 16.2393 8.15518 16.2014 8.15518 16.1366H7.90518C7.90518 16.2528 7.93988 16.3588 8.02035 16.4403L8.19821 16.2646ZM8.15518 16.1366C8.15518 16.0943 8.16377 16.062 8.17749 16.0364L7.95708 15.9184C7.92132 15.9852 7.90518 16.0591 7.90518 16.1366H8.15518ZM8.17749 16.0364C8.19214 16.009 8.21068 15.9898 8.23364 15.9759L8.10406 15.7621C8.04108 15.8003 7.99191 15.8534 7.95708 15.9184L8.17749 16.0364ZM8.23364 15.9759C8.25513 15.9629 8.30048 15.9467 8.38171 15.9352L8.34661 15.6876C8.25336 15.7009 8.1685 15.7231 8.10406 15.7621L8.23364 15.9759ZM8.38203 15.9351C8.50158 15.9178 8.60089 15.8959 8.67121 15.8657L8.57273 15.636C8.53368 15.6527 8.46111 15.6711 8.34629 15.6877L8.38203 15.9351ZM8.74694 15.7536L8.74792 15.7086L8.49798 15.7032L8.497 15.7481L8.74694 15.7536ZM8.74795 15.7059C8.74795 15.6275 8.73541 15.5379 8.67841 15.4736L8.49132 15.6394C8.48707 15.6346 8.48926 15.6343 8.4923 15.6462C8.49531 15.658 8.49795 15.6772 8.49795 15.7059H8.74795ZM8.67967 15.475C8.61255 15.3969 8.517 15.369 8.41982 15.369V15.619C8.47108 15.619 8.48556 15.6328 8.49006 15.638L8.67967 15.475ZM8.41982 15.369C8.33857 15.369 8.25404 15.3855 8.18886 15.4404L8.35001 15.6316C8.35123 15.6305 8.36696 15.619 8.41982 15.619V15.369ZM8.18997 15.4395C8.12287 15.4948 8.091 15.582 8.07374 15.6662L8.31864 15.7164C8.32512 15.6848 8.33252 15.663 8.33927 15.6487C8.34609 15.6342 8.35043 15.6312 8.3489 15.6325L8.18997 15.4395ZM8.2166 15.568L8.075 15.5445L8.03418 15.7912L8.17578 15.8146L8.2166 15.568ZM8.17759 15.6901C8.1947 15.5957 8.22583 15.5463 8.25648 15.5209L8.09684 15.3285C8.0051 15.4046 7.95484 15.5173 7.93159 15.6455L8.17759 15.6901ZM8.25598 15.5213C8.28756 15.4954 8.34343 15.4735 8.44131 15.4735V15.2235C8.31002 15.2235 8.18946 15.2524 8.09734 15.3281L8.25598 15.5213ZM8.44131 15.4735C8.51662 15.4735 8.55913 15.4881 8.58193 15.5033L8.72061 15.2953C8.64185 15.2428 8.54439 15.2235 8.44131 15.2235V15.4735ZM8.58286 15.5039C8.61283 15.5235 8.62237 15.541 8.62609 15.5551L8.86786 15.4915C8.84554 15.4067 8.79127 15.3415 8.71968 15.2947L8.58286 15.5039ZM8.62649 15.5566C8.63562 15.5897 8.64248 15.6485 8.64248 15.7401H8.89248C8.89248 15.6416 8.88567 15.5559 8.86746 15.49L8.62649 15.5566ZM8.64248 15.7401V15.9745H8.89248V15.7401H8.64248ZM8.64248 15.9745C8.64248 16.1357 8.64516 16.2487 8.65242 16.3019L8.90012 16.2681C8.89566 16.2354 8.89248 16.1414 8.89248 15.9745H8.64248ZM8.65272 16.304C8.66102 16.3579 8.67673 16.4102 8.69946 16.4605L8.9273 16.3576C8.91357 16.3272 8.90454 16.2968 8.89982 16.266L8.65272 16.304ZM8.81338 16.2841H8.66299V16.5341H8.81338V16.2841ZM8.77831 16.3608C8.76939 16.3395 8.76187 16.3099 8.75816 16.2697L8.50922 16.2926C8.51463 16.3514 8.52664 16.407 8.54767 16.4573L8.77831 16.3608ZM8.56663 15.7765C8.52987 15.7946 8.46526 15.8143 8.36507 15.8318L8.40817 16.0781C8.51631 16.0592 8.6086 16.0346 8.67732 16.0006L8.56663 15.7765ZM8.36543 15.8318C8.30372 15.8424 8.24249 15.8571 8.19797 15.8824L8.32137 16.0998C8.32121 16.0999 8.32721 16.0967 8.34369 16.092C8.35926 16.0876 8.38036 16.0829 8.40782 16.0781L8.36543 15.8318ZM8.20023 15.8811C8.15438 15.9059 8.11847 15.9423 8.09362 15.9873L8.31243 16.1082C8.31492 16.1037 8.31677 16.1023 8.31911 16.1011L8.20023 15.8811ZM8.09306 15.9883C8.06866 16.0334 8.0585 16.0825 8.0585 16.1317H8.3085C8.3085 16.1171 8.31135 16.1102 8.31299 16.1072L8.09306 15.9883ZM8.0585 16.1317C8.0585 16.2091 8.08356 16.283 8.14196 16.3402L8.31683 16.1615C8.31403 16.1588 8.3085 16.1533 8.3085 16.1317H8.0585ZM8.14295 16.3411C8.20273 16.3984 8.27935 16.4198 8.35635 16.4198V16.1698C8.32527 16.1698 8.31725 16.1619 8.31584 16.1606L8.14295 16.3411ZM8.35635 16.4198C8.43069 16.4198 8.50081 16.4001 8.56342 16.36L8.42857 16.1495C8.40785 16.1628 8.38487 16.1698 8.35635 16.1698V16.4198ZM8.56268 16.3605C8.62468 16.3214 8.6726 16.2679 8.70382 16.2015L8.47762 16.0951C8.46718 16.1173 8.45195 16.1348 8.42931 16.149L8.56268 16.3605ZM8.70412 16.2009C8.73624 16.1317 8.74697 16.0452 8.74697 15.953H8.49697C8.49697 16.0314 8.48688 16.0751 8.47732 16.0957L8.70412 16.2009ZM8.74697 15.953V15.8885H8.49697V15.953H8.74697ZM9.59111 15.1796H9.46611V15.3046H9.59111V15.1796ZM9.59111 14.9774V14.8524H9.46611V14.9774H9.59111ZM9.73467 14.9774H9.85967V14.8524H9.73467V14.9774ZM9.73467 15.1796V15.3046H9.85967V15.1796H9.73467ZM9.59111 16.4091H9.46611V16.5341H9.59111V16.4091ZM9.59111 15.3719V15.2469H9.46611V15.3719H9.59111ZM9.73467 15.3719H9.85967V15.2469H9.73467V15.3719ZM9.73467 16.4091V16.5341H9.85967V16.4091H9.73467ZM9.71611 15.1796V14.9774H9.46611V15.1796H9.71611ZM9.59111 15.1024H9.73467V14.8524H9.59111V15.1024ZM9.60967 14.9774V15.1796H9.85967V14.9774H9.60967ZM9.73467 15.0546H9.59111V15.3046H9.73467V15.0546ZM9.71611 16.4091V15.3719H9.46611V16.4091H9.71611ZM9.59111 15.4969H9.73467V15.2469H9.59111V15.4969ZM9.60967 15.3719V16.4091H9.85967V15.3719H9.60967ZM9.73467 16.2841H9.59111V16.5341H9.73467V16.2841ZM10.5563 16.4091H10.4313V16.5341H10.5563V16.4091ZM10.5563 15.3719V15.2469H10.4313V15.3719H10.5563ZM10.6862 15.3719H10.8112V15.2469H10.6862V15.3719ZM10.6862 15.5194H10.5612V16.0096L10.796 15.5793L10.6862 15.5194ZM10.8005 15.3915L10.8666 15.4976L10.867 15.4973L10.8005 15.3915ZM11.0827 15.3759L11.0291 15.4888L11.0314 15.4898L11.0827 15.3759ZM11.1765 15.4462L11.0788 15.5243L11.0808 15.5266L11.1765 15.4462ZM11.2478 16.4091V16.5341H11.3728V16.4091H11.2478ZM11.1032 16.4091H10.9782V16.5341H11.1032V16.4091ZM11.0222 15.5302L10.9495 15.6319L10.9523 15.6338L11.0222 15.5302ZM10.6999 16.4091V16.5341H10.8249V16.4091H10.6999ZM10.6813 16.4091V15.3719H10.4313V16.4091H10.6813ZM10.5563 15.4969H10.6862V15.2469H10.5563V15.4969ZM10.5612 15.3719V15.5194H10.8112V15.3719H10.5612ZM10.796 15.5793C10.8193 15.5365 10.8438 15.5118 10.8666 15.4976L10.7344 15.2854C10.6674 15.3271 10.6157 15.3877 10.5765 15.4596L10.796 15.5793ZM10.867 15.4973C10.8909 15.4823 10.9195 15.4735 10.9567 15.4735V15.2235C10.8768 15.2235 10.8012 15.2434 10.734 15.2856L10.867 15.4973ZM10.9567 15.4735C10.9851 15.4735 11.0086 15.4791 11.0291 15.4888L11.1363 15.2629C11.08 15.2362 11.0195 15.2235 10.9567 15.2235V15.4735ZM11.0314 15.4898C11.055 15.5005 11.0694 15.5125 11.0789 15.5243L11.2741 15.3681C11.2366 15.3212 11.1886 15.2864 11.134 15.2619L11.0314 15.4898ZM11.0808 15.5266C11.0899 15.5374 11.1007 15.5564 11.109 15.5892L11.3513 15.5278C11.3362 15.4681 11.3112 15.4122 11.2721 15.3657L11.0808 15.5266ZM11.109 15.5892C11.1167 15.6197 11.1228 15.6778 11.1228 15.7714H11.3728C11.3728 15.6735 11.367 15.5897 11.3513 15.5278L11.109 15.5892ZM11.1228 15.7714V16.4091H11.3728V15.7714H11.1228ZM11.2478 16.2841H11.1032V16.5341H11.2478V16.2841ZM11.2282 16.4091V15.7782H10.9782V16.4091H11.2282ZM11.2282 15.7782C11.2282 15.6993 11.222 15.6249 11.2009 15.5678L10.9665 15.6546C10.9714 15.6679 10.9782 15.7048 10.9782 15.7782H11.2282ZM11.2009 15.5678C11.1799 15.5109 11.1441 15.4616 11.0921 15.4265L10.9523 15.6338C10.9562 15.6364 10.9615 15.6412 10.9665 15.6546L11.2009 15.5678ZM11.0948 15.4284C11.0445 15.3925 10.9866 15.3759 10.9265 15.3759V15.6259C10.9392 15.6259 10.9452 15.6288 10.9495 15.6319L11.0948 15.4284ZM10.9265 15.3759C10.8216 15.3759 10.7297 15.4172 10.6637 15.5001L10.8592 15.6559C10.8751 15.6359 10.8933 15.6259 10.9265 15.6259V15.3759ZM10.6637 15.5001C10.595 15.5862 10.5749 15.7113 10.5749 15.8427H10.8249C10.8249 15.724 10.8458 15.6726 10.8592 15.6559L10.6637 15.5001ZM10.5749 15.8427V16.4091H10.8249V15.8427H10.5749ZM10.6999 16.2841H10.5563V16.5341H10.6999V16.2841ZM12.3897 16.2518L12.5138 16.2362L12.4974 16.1061L12.3682 16.1287L12.3897 16.2518ZM12.4093 16.4071L12.441 16.528L12.547 16.5002L12.5333 16.3915L12.4093 16.4071ZM12.1808 16.3934L12.1119 16.4978L12.1135 16.4988L12.1808 16.3934ZM12.1173 16.3114L11.9982 16.3496L11.9989 16.3516L12.1173 16.3114ZM12.1007 15.5087H12.2257V15.3837H12.1007V15.5087ZM11.9952 15.5087H11.8702V15.6337H11.9952V15.5087ZM11.9952 15.3719V15.2469H11.8702V15.3719H11.9952ZM12.1007 15.3719V15.4969H12.2257V15.3719H12.1007ZM12.1007 15.1151L12.0267 15.0144L11.9757 15.0518V15.1151H12.1007ZM12.2442 15.0096H12.3692V14.7627L12.1702 14.9089L12.2442 15.0096ZM12.2442 15.3719H12.1192V15.4969H12.2442V15.3719ZM12.3897 15.3719H12.5147V15.2469H12.3897V15.3719ZM12.3897 15.5087V15.6337H12.5147V15.5087H12.3897ZM12.2442 15.5087V15.3837H12.1192V15.5087H12.2442ZM12.2569 16.2235L12.146 16.2812L12.1464 16.2819L12.2569 16.2235ZM12.2657 16.2674L12.2853 16.4227L12.5333 16.3915L12.5138 16.2362L12.2657 16.2674ZM12.3776 16.2862C12.3454 16.2946 12.3205 16.2977 12.3019 16.2977V16.5477C12.347 16.5477 12.3937 16.5404 12.441 16.528L12.3776 16.2862ZM12.3019 16.2977C12.2668 16.2977 12.2522 16.2908 12.248 16.2881L12.1135 16.4988C12.1705 16.5352 12.2366 16.5477 12.3019 16.5477V16.2977ZM12.2496 16.2891C12.242 16.2841 12.2384 16.2793 12.2356 16.2712L11.9989 16.3516C12.0196 16.4126 12.0583 16.4624 12.1119 16.4978L12.2496 16.2891ZM12.2363 16.2732C12.2321 16.2602 12.2257 16.2109 12.2257 16.1053H11.9757C11.9757 16.2055 11.9803 16.2936 11.9983 16.3496L12.2363 16.2732ZM12.2257 16.1053V15.5087H11.9757V16.1053H12.2257ZM12.1007 15.3837H11.9952V15.6337H12.1007V15.3837ZM12.1202 15.5087V15.3719H11.8702V15.5087H12.1202ZM11.9952 15.4969H12.1007V15.2469H11.9952V15.4969ZM12.2257 15.3719V15.1151H11.9757V15.3719H12.2257ZM12.1747 15.2158L12.3182 15.1104L12.1702 14.9089L12.0267 15.0144L12.1747 15.2158ZM12.1192 15.0096V15.3719H12.3692V15.0096H12.1192ZM12.2442 15.4969H12.3897V15.2469H12.2442V15.4969ZM12.2647 15.3719V15.5087H12.5147V15.3719H12.2647ZM12.3897 15.3837H12.2442V15.6337H12.3897V15.3837ZM12.1192 15.5087V16.1151H12.3692V15.5087H12.1192ZM12.1192 16.1151C12.1192 16.1457 12.1204 16.174 12.1233 16.1987C12.1258 16.22 12.1309 16.252 12.146 16.2812L12.3678 16.1658C12.3701 16.1702 12.3714 16.1735 12.372 16.1753C12.3723 16.1763 12.3725 16.177 12.3727 16.1775C12.3728 16.1779 12.3729 16.1781 12.3729 16.1782C12.3729 16.1782 12.3728 16.178 12.3727 16.1776C12.3727 16.1772 12.3726 16.1766 12.3724 16.1759C12.3722 16.1744 12.3719 16.1724 12.3716 16.1697C12.3702 16.1583 12.3692 16.1405 12.3692 16.1151H12.1192ZM12.1464 16.2819C12.1866 16.3581 12.2612 16.3837 12.3263 16.3837V16.1337C12.3232 16.1337 12.3296 16.1331 12.3401 16.1384C12.3521 16.1445 12.3619 16.1546 12.3675 16.1652L12.1464 16.2819ZM12.3263 16.3837C12.3528 16.3837 12.3819 16.3801 12.4113 16.375L12.3682 16.1287C12.3455 16.1327 12.3323 16.1337 12.3263 16.1337V16.3837Z" fill="white"/>
</svg>
