<svg width="21" height="21" viewBox="0 0 21 21" fill="none" xmlns="http://www.w3.org/2000/svg">
<path d="M7.40211 12.9782C8.65676 12.9782 9.67385 12.0536 9.67385 10.913C9.67385 9.77241 8.65676 8.84778 7.40211 8.84778C6.14746 8.84778 5.13037 9.77241 5.13037 10.913C5.13037 12.0536 6.14746 12.9782 7.40211 12.9782Z" stroke="white" stroke-miterlimit="10"/>
<path d="M4.30443 19.587C5.67314 19.587 6.78269 18.4775 6.78269 17.1088C6.78269 15.74 5.67314 14.6305 4.30443 14.6305C2.93573 14.6305 1.82617 15.74 1.82617 17.1088C1.82617 18.4775 2.93573 19.587 4.30443 19.587Z" stroke="white" stroke-miterlimit="10"/>
<path d="M11.3259 19.587C12.6946 19.587 13.8042 18.4775 13.8042 17.1088C13.8042 15.74 12.6946 14.6305 11.3259 14.6305C9.95721 14.6305 8.84766 15.74 8.84766 17.1088C8.84766 18.4775 9.95721 19.587 11.3259 19.587Z" stroke="white" stroke-miterlimit="10"/>
<path d="M7.60855 14.2173C9.43349 14.2173 10.9129 12.7379 10.9129 10.913C10.9129 9.08805 9.43349 7.60864 7.60855 7.60864C5.78361 7.60864 4.3042 9.08805 4.3042 10.913C4.3042 12.7379 5.78361 14.2173 7.60855 14.2173Z" stroke="white" stroke-miterlimit="10"/>
<path d="M4.30435 20.413C6.12929 20.413 7.6087 18.9336 7.6087 17.1087C7.6087 15.2837 6.12929 13.8043 4.30435 13.8043C2.47941 13.8043 1 15.2837 1 17.1087C1 18.9336 2.47941 20.413 4.30435 20.413Z" stroke="white" stroke-miterlimit="10"/>
<path d="M11.3263 20.413C13.1513 20.413 14.6307 18.9336 14.6307 17.1087C14.6307 15.2837 13.1513 13.8043 11.3263 13.8043C9.50138 13.8043 8.02197 15.2837 8.02197 17.1087C8.02197 18.9336 9.50138 20.413 11.3263 20.413Z" stroke="white" stroke-miterlimit="10"/>
<path d="M5.54346 8.41525L13.7383 1.42199C13.7383 1.42199 15.5546 0.003637 17.1804 2.36756C17.1804 2.36756 18.0166 3.60862 17.0714 5.2279C17.0326 5.29882 16.9859 5.36974 16.9392 5.44065L10.1173 13.3913" stroke="white" stroke-miterlimit="10"/>
<path d="M19.549 9.63028C19.549 9.63028 21.5753 5.97061 17.0367 5.54346L9.26074 14.2174" stroke="white" stroke-miterlimit="10"/>
<path d="M18.7608 10.9131L14.2173 18.7609" stroke="white" stroke-miterlimit="10"/>
<path d="M4.71748 12.1522L1.82617 14.6305" stroke="white" stroke-miterlimit="10"/>
</svg>
