<svg width="23" height="23" viewBox="0 0 23 23" fill="none" xmlns="http://www.w3.org/2000/svg">
<g clip-path="url(#clip0)">
<path d="M3.23437 8.35548L4.04297 7.17853C4.04297 7.17853 4.17773 6.9629 4.51465 6.87306C4.85156 6.78322 8.98437 6.87306 8.98437 6.87306C8.98437 6.87306 9.6582 6.78771 9.70312 7.5963C9.74805 8.4049 9.70312 14.959 9.70312 14.959H8.84961C8.84961 14.959 8.49473 14.4199 7.64121 14.4199C6.7877 14.4199 4.51465 14.4199 4.51465 14.4199C4.51465 14.4199 4.27656 14.6221 3.86328 14.959L2.96484 16.7738V17.9957H4.08789" stroke="white" stroke-miterlimit="10"/>
<path d="M8.68789 18.0226L9.64922 18.0631L9.70312 16.8547L8.55762 14.6849" stroke="white" stroke-miterlimit="10"/>
<path d="M2.33594 9.74805C2.33594 9.74805 1.57227 11.0283 1.57227 10.9475C1.57227 10.8666 1.57227 10.8711 1.57227 10.8711V14.8242V15.5879L2.96484 16.8188" stroke="white" stroke-miterlimit="10"/>
<path d="M3.86328 15.0039H1.57227" stroke="white" stroke-miterlimit="10"/>
<path d="M7.23242 6.88647V10.1523C7.23242 10.1523 7.30879 11.2169 6.41934 10.9474H1.57227" stroke="white" stroke-miterlimit="10"/>
<path d="M5.52979 12.4209H6.41924" stroke="white" stroke-miterlimit="10"/>
<path d="M1.57217 12.7443C1.57217 12.7443 0.956738 12.5107 0.565918 13.3328C0.565918 13.3328 1.08701 14.4962 1.57217 14.0425" stroke="white" stroke-miterlimit="10"/>
<path d="M6.41924 20.3226C7.67957 20.3226 8.70127 19.3009 8.70127 18.0406C8.70127 16.7802 7.67957 15.7585 6.41924 15.7585C5.15891 15.7585 4.13721 16.7802 4.13721 18.0406C4.13721 19.3009 5.15891 20.3226 6.41924 20.3226Z" stroke="white" stroke-miterlimit="10"/>
<path d="M17.6629 20.3226C18.9232 20.3226 19.9449 19.3009 19.9449 18.0406C19.9449 16.7802 18.9232 15.7585 17.6629 15.7585C16.4026 15.7585 15.3809 16.7802 15.3809 18.0406C15.3809 19.3009 16.4026 20.3226 17.6629 20.3226Z" stroke="white" stroke-miterlimit="10"/>
<path d="M6.41914 19.33C7.13118 19.33 7.7084 18.7528 7.7084 18.0407C7.7084 17.3287 7.13118 16.7515 6.41914 16.7515C5.7071 16.7515 5.12988 17.3287 5.12988 18.0407C5.12988 18.7528 5.7071 19.33 6.41914 19.33Z" stroke="white" stroke-miterlimit="10"/>
<path d="M17.6633 19.33C18.3753 19.33 18.9525 18.7528 18.9525 18.0407C18.9525 17.3287 18.3753 16.7515 17.6633 16.7515C16.9512 16.7515 16.374 17.3287 16.374 18.0407C16.374 18.7528 16.9512 19.33 17.6633 19.33Z" stroke="white" stroke-miterlimit="10"/>
<path d="M9.67578 17.4746H14.3746" stroke="white" stroke-miterlimit="10"/>
<path d="M20.9469 17.7397C20.6369 17.7397 20.3314 17.7397 20.0215 17.7397" stroke="white" stroke-miterlimit="10"/>
<path d="M15.3811 18.0406C15.0487 18.0586 14.7342 18.0586 14.4197 18.0586C14.2401 17.5195 14.2401 16.8906 14.5545 16.3965C14.9588 15.8125 15.2283 15.2285 15.5877 14.6895C16.8904 14.6895 18.1932 14.6895 19.4959 14.6895C19.5858 14.6895 19.6307 14.7793 19.6756 14.8242C20.0799 15.498 20.5291 16.082 20.8885 16.7559C20.8885 17.1152 20.8885 17.4746 20.8705 17.852" stroke="white" stroke-miterlimit="10"/>
<path d="M9.70312 15.0039L15.3812 15.0309" stroke="white" stroke-miterlimit="10"/>
<path d="M9.70312 13.2834H21.7871C21.7871 13.2834 22.6406 13.0093 22.6856 14.4109C22.7305 15.8125 22.6856 17.0972 22.6856 17.0972C22.6856 17.0972 23.0225 17.5959 20.8887 17.4746" stroke="white" stroke-miterlimit="10"/>
<path d="M19.9453 15.2734H22.7035" stroke="white" stroke-miterlimit="10"/>
<path d="M20.6322 3.50391L16.6656 2.875L12.6316 4.45625C12.6271 4.50566 12.6091 4.55508 12.5777 4.59102L13.1167 5.97461L12.38 4.75723L10.5023 6.98984C9.81946 7.38066 10.107 8.15781 10.107 8.15781C10.5113 8.67891 12.0431 13.2564 12.0431 13.2564H16.9531L19.9493 12.0885L22.7075 8.62051L20.6322 3.50391Z" stroke="white" stroke-miterlimit="10"/>
<path d="M16.374 2.9873L19.9453 12.093" stroke="white" stroke-miterlimit="10"/>
<path d="M15.9023 13.2609L13.6113 7.22339" stroke="white" stroke-miterlimit="10"/>
<path d="M12.6183 4.43823L12.4565 4.66733" stroke="white" stroke-miterlimit="10"/>
</g>
<defs>
<clipPath id="clip0">
<rect width="23" height="23" fill="white"/>
</clipPath>
</defs>
</svg>
