<svg width="24" height="19" viewBox="0 0 24 19" fill="none" xmlns="http://www.w3.org/2000/svg">
<path d="M3.71436 5.43444L6.13928 3.09949L6.45871 3.39642L6.13928 5.43444L4.10576 5.93382L3.71436 5.43444Z" stroke="white" stroke-miterlimit="10"/>
<path d="M1.77955 4.8316L5.51367 1.11997C5.51367 1.11997 6.14352 0.850035 6.45844 1.11997C6.77337 1.38991 8.03307 2.58213 8.03307 2.58213C8.03307 2.58213 8.39299 3.05452 8.19053 3.59439C7.98808 4.13426 7.51569 5.43445 7.51569 5.43445L9.83265 7.85038L10.3725 7.59844C10.3725 7.59844 10.647 7.41849 10.8899 7.41849C11.1328 7.41849 12.8019 7.19354 13.2518 7.46348C13.7017 7.73341 13.7017 7.73341 13.7017 7.73341L15.7712 9.96039C15.7712 9.96039 17.4359 9.75793 18.2907 9.96039C18.2907 9.96039 19.0555 9.98738 19.2354 10.3023C19.4154 10.6172 20.7201 12.0524 20.7201 12.0524H7.85311H3.29119L6.13902 9.02911C6.13902 9.02911 6.72838 8.72318 7.22326 8.72318C8.12305 8.72318 8.12305 8.72318 8.12305 8.72318L6.45844 6.87861L3.71409 7.64343C3.71409 7.64343 1.73456 5.57392 1.77955 5.6639C1.77955 5.6639 1.51861 5.08804 1.77955 4.8316Z" stroke="white" stroke-miterlimit="10"/>
<path d="M8.12305 8.72312H9.47273L10.3725 7.59839" stroke="white" stroke-miterlimit="10"/>
<path d="M20.7203 12.0524H22.9248C22.9248 12.0524 24.135 12.9432 22.9248 13.3571H2.03176H1.4199C1.4199 13.3571 0.475124 12.5473 1.4199 12.0524H3.29146" stroke="white" stroke-miterlimit="10"/>
<path d="M2.03223 16.6414C2.03223 16.6414 2.54511 18.126 3.71483 17.991C4.88455 17.8561 11.2281 18 11.2281 18" stroke="white" stroke-miterlimit="10"/>
<path d="M13.0723 17.8111H20.7205C20.7205 17.8111 22.2456 17.6851 21.9802 16.0565" stroke="white" stroke-miterlimit="10"/>
<path d="M22.0117 14.4368V13.3571" stroke="white" stroke-miterlimit="10"/>
<path d="M7.87126 10.9502C8.00294 10.9502 8.1097 10.8434 8.1097 10.7117C8.1097 10.58 8.00294 10.4733 7.87126 10.4733C7.73957 10.4733 7.63281 10.58 7.63281 10.7117C7.63281 10.8434 7.73957 10.9502 7.87126 10.9502Z" stroke="white" stroke-miterlimit="10"/>
<path d="M11.3808 9.74437C11.4852 9.74437 11.5698 9.65977 11.5698 9.55541C11.5698 9.45105 11.4852 9.36646 11.3808 9.36646C11.2765 9.36646 11.1919 9.45105 11.1919 9.55541C11.1919 9.65977 11.2765 9.74437 11.3808 9.74437Z" stroke="white" stroke-miterlimit="10"/>
<path d="M13.0946 10.7297C13.2536 10.7297 13.3825 10.6008 13.3825 10.4417C13.3825 10.2827 13.2536 10.1538 13.0946 10.1538C12.9356 10.1538 12.8066 10.2827 12.8066 10.4417C12.8066 10.6008 12.9356 10.7297 13.0946 10.7297Z" stroke="white" stroke-miterlimit="10"/>
</svg>
