<svg width="23" height="23" viewBox="0 0 23 23" fill="none" xmlns="http://www.w3.org/2000/svg">
<g clip-path="url(#clip0)">
<path d="M10.7813 15.4082H1.52738C1.52738 15.4082 0.584017 15.6777 0.269564 16.8008C-0.0448892 17.9238 1.5723 18.4629 1.5723 18.4629H21.293C21.293 18.4629 22.5059 18.3775 22.7305 16.9849C22.7305 16.9849 22.7305 15.7092 21.1133 15.4082C19.4961 15.1072 10.7813 15.4082 10.7813 15.4082Z" stroke="white" stroke-miterlimit="10"/>
<path d="M7.04375 13.207L6.46875 15.3363" stroke="white" stroke-miterlimit="10"/>
<path d="M3.50404 15.4082C3.50404 15.4082 2.82572 15.5026 2.87513 14.4334L2.24623 11.2485C2.24623 11.2485 2.20131 10.3141 2.87513 9.80649C3.54896 9.29887 4.57318 9.11469 6.15443 8.27465C7.73568 7.43461 8.22084 6.52719 8.22084 6.52719L10.1525 4.72582C10.1525 4.72582 11.2306 4.07895 11.9494 4.49672C12.6681 4.91449 16.8458 6.20375 16.8458 6.20375" stroke="white" stroke-miterlimit="10"/>
<path d="M18.6021 6.73828C18.6021 6.73828 19.5724 7.23691 20.664 8.80918C21.7556 10.3814 21.4726 11.6393 22.1464 12.0031C22.8202 12.367 21.0233 15.4082 21.0233 15.4082" stroke="white" stroke-miterlimit="10"/>
<path d="M2.875 9.6582C2.875 9.6582 6.59453 10.6465 6.75625 10.7363C6.91797 10.8262 7.91523 11.1945 7.5873 12.4074" stroke="white" stroke-miterlimit="10"/>
<path d="M9.5459 10.6465L10.8711 10.2961" stroke="white" stroke-miterlimit="10"/>
<path d="M8.31055 8.44531L9.83789 8.98438" stroke="white" stroke-miterlimit="10"/>
<path d="M13.3418 14.3749L17.5824 12.4074C17.5824 12.4074 18.6426 11.9941 19.3613 13.207C20.0801 14.4199 20.4484 15.3363 20.4484 15.3363" stroke="white" stroke-miterlimit="10"/>
<path d="M16.895 10.4713L18.328 11.5" stroke="white" stroke-miterlimit="10"/>
<path d="M10.8711 4.42932L13.1621 8.74182C13.1621 8.74182 13.9303 9.85588 14.9051 9.73459C15.8799 9.61331 17.4342 9.29885 17.6139 8.9844C17.7936 8.66995 19.258 7.19651 19.258 7.19651" stroke="white" stroke-miterlimit="10"/>
</g>
<defs>
<clipPath id="clip0">
<rect width="23" height="23" fill="white"/>
</clipPath>
</defs>
</svg>
