<svg width="13" height="26" viewBox="0 0 13 26" fill="none" xmlns="http://www.w3.org/2000/svg">
<path d="M1 22.3292L8.08074 1L9.88644 1.74376L2.43864 23.5768L1 22.3292Z" stroke="white" stroke-width="0.75" stroke-miterlimit="10"/>
<path d="M3.80045 19.882L2.21973 18.2865" stroke="white" stroke-width="0.75" stroke-miterlimit="10"/>
<path d="M1.55029 20.7577L2.75804 22.3112" stroke="white" stroke-width="0.75" stroke-miterlimit="10"/>
<path d="M1.97705 19.546L3.1848 21.0935" stroke="white" stroke-width="0.75" stroke-miterlimit="10"/>
<path d="M2.72266 17.2668L4.09025 18.6764" stroke="white" stroke-width="0.75" stroke-miterlimit="10"/>
<path d="M3.11377 15.9293L4.48137 17.3389" stroke="white" stroke-width="0.75" stroke-miterlimit="10"/>
<path d="M3.66992 14.7776L5.03752 16.1811" stroke="white" stroke-width="0.75" stroke-miterlimit="10"/>
<path d="M3.93066 13.578L5.29826 14.9875" stroke="white" stroke-width="0.75" stroke-miterlimit="10"/>
<path d="M4.35059 12.2883L5.71818 13.6919" stroke="white" stroke-width="0.75" stroke-miterlimit="10"/>
<path d="M4.75928 10.8788L6.2512 12.4083" stroke="white" stroke-width="0.75" stroke-miterlimit="10"/>
<path d="M5.29248 9.57715L6.66008 10.9867" stroke="white" stroke-width="0.75" stroke-miterlimit="10"/>
<path d="M5.73047 8.18567L7.09807 9.58922" stroke="white" stroke-width="0.75" stroke-miterlimit="10"/>
<path d="M6.03809 6.99805L7.55961 8.56355" stroke="white" stroke-width="0.75" stroke-miterlimit="10"/>
<path d="M6.44678 5.9364L7.86174 7.27397" stroke="white" stroke-width="0.75" stroke-miterlimit="10"/>
<path d="M6.77246 4.61682L8.3532 6.2423" stroke="white" stroke-width="0.75" stroke-miterlimit="10"/>
<path d="M7.29346 3.61511L8.66698 5.02467" stroke="white" stroke-width="0.75" stroke-miterlimit="10"/>
<path d="M7.60156 2.40356L9.12901 3.97506" stroke="white" stroke-width="0.75" stroke-miterlimit="10"/>
<path d="M8.12793 1.29993L9.50145 2.70947" stroke="white" stroke-width="0.75" stroke-miterlimit="10"/>
<path d="M4.05469 23.6428L10.1645 2.00769L11.9998 2.66748L5.54661 24.8244L4.05469 23.6428Z" stroke="white" stroke-width="0.75" stroke-miterlimit="10"/>
<path d="M6.73668 21.0695L5.09082 19.546" stroke="white" stroke-width="0.75" stroke-miterlimit="10"/>
<path d="M4.52246 22.0592L5.81901 23.5347" stroke="white" stroke-width="0.75" stroke-miterlimit="10"/>
<path d="M4.88965 20.8237L6.18621 22.2993" stroke="white" stroke-width="0.75" stroke-miterlimit="10"/>
<path d="M5.54102 18.5084L6.97374 19.852" stroke="white" stroke-width="0.75" stroke-miterlimit="10"/>
<path d="M5.87256 17.1588L7.30528 18.4964" stroke="white" stroke-width="0.75" stroke-miterlimit="10"/>
<path d="M6.37598 15.9772L7.8087 17.3207" stroke="white" stroke-width="0.75" stroke-miterlimit="10"/>
<path d="M6.58301 14.7656L8.01573 16.1092" stroke="white" stroke-width="0.75" stroke-miterlimit="10"/>
<path d="M6.94971 13.458L8.37651 14.8016" stroke="white" stroke-width="0.75" stroke-miterlimit="10"/>
<path d="M7.29346 12.0365L8.84459 13.494" stroke="white" stroke-width="0.75" stroke-miterlimit="10"/>
<path d="M7.76074 10.7108L9.19347 12.0484" stroke="white" stroke-width="0.75" stroke-miterlimit="10"/>
<path d="M8.14014 9.29529L9.56694 10.6329" stroke="white" stroke-width="0.75" stroke-miterlimit="10"/>
<path d="M8.38818 8.0957L9.98076 9.58923" stroke="white" stroke-width="0.75" stroke-miterlimit="10"/>
<path d="M8.75586 7.01599L10.23 8.28758" stroke="white" stroke-width="0.75" stroke-miterlimit="10"/>
<path d="M9.01611 5.68457L10.6679 7.23208" stroke="white" stroke-width="0.75" stroke-miterlimit="10"/>
<path d="M9.49561 4.65881L10.9283 6.00238" stroke="white" stroke-width="0.75" stroke-miterlimit="10"/>
<path d="M9.74463 3.43518L11.3431 4.9347" stroke="white" stroke-width="0.75" stroke-miterlimit="10"/>
<path d="M10.2241 2.30762L11.6568 3.65119" stroke="white" stroke-width="0.75" stroke-miterlimit="10"/>
</svg>
