<svg width="30" height="30" viewBox="0 0 30 30" fill="none" xmlns="http://www.w3.org/2000/svg">
<path d="M11.7904 0.21842C11.9573 0.275198 12.1203 0.342729 12.2784 0.420584L14.1811 1.35732C14.6974 1.61154 15.3026 1.61154 15.8189 1.35732L17.7216 0.420584C19.7425 -0.574456 22.1876 0.257281 23.1826 2.2783L23.2916 2.51907L23.3847 2.76639L24.0677 4.77409C24.2532 5.31898 24.6811 5.74689 25.2259 5.93225L27.2336 6.61522C29.3663 7.3407 30.507 9.65771 29.7816 11.7904C29.7248 11.9573 29.6573 12.1203 29.5794 12.2784L28.6426 14.1811C28.3884 14.6974 28.3884 15.3026 28.6426 15.8189L29.5794 17.7216C30.5745 19.7425 29.7427 22.1876 27.7217 23.1826C27.5636 23.2604 27.4006 23.3281 27.2336 23.3847L25.2259 24.0677C24.6811 24.2532 24.2532 24.6811 24.0677 25.2259L23.3847 27.2336C22.6593 29.3663 20.3423 30.507 18.2096 29.7816C18.0427 29.7248 17.8797 29.6573 17.7216 29.5794L15.8189 28.6426C15.3026 28.3884 14.6974 28.3884 14.1811 28.6426L12.2784 29.5794C10.2574 30.5745 7.81242 29.7427 6.81738 27.7217C6.73951 27.5636 6.67198 27.4006 6.61522 27.2336L5.93225 25.2259C5.74689 24.6811 5.31898 24.2532 4.77409 24.0677L2.76639 23.3847C0.633695 22.6593 -0.507058 20.3423 0.21842 18.2096C0.275198 18.0427 0.342729 17.8797 0.420584 17.7216L1.35732 15.8189C1.61154 15.3026 1.61154 14.6974 1.35732 14.1811L0.420584 12.2784C-0.574456 10.2574 0.257281 7.81242 2.2783 6.81738C2.43646 6.73951 2.59949 6.67198 2.76639 6.61522L4.77409 5.93225C5.31898 5.74689 5.74689 5.31898 5.93225 4.77409L6.61522 2.76639C7.3407 0.633695 9.65771 -0.507058 11.7904 0.21842ZM20.1464 10.5053L12.1083 18.5433L9.18005 15.0295C8.78674 14.5574 8.08529 14.4936 7.61331 14.887C7.14134 15.2804 7.07757 15.9818 7.47088 16.4537L11.179 20.9034C11.5977 21.4059 12.3576 21.4405 12.8201 20.9779L21.7195 12.0785C22.1539 11.6441 22.1539 10.9398 21.7195 10.5053C21.2851 10.0709 20.5808 10.0709 20.1464 10.5053Z" fill="#FFB600"/>
</svg>
