<?xml version="1.0" encoding="utf-8"?>
<!-- Generator: Adobe Illustrator 24.0.1, SVG Export Plug-In . SVG Version: 6.00 Build 0)  -->
<svg version="1.1" id="Layer_2" xmlns="http://www.w3.org/2000/svg" xmlns:xlink="http://www.w3.org/1999/xlink" x="0px" y="0px"
	 viewBox="0 0 511 511" style="enable-background:new 0 0 511 511;" xml:space="preserve">
<g>
	<path style="fill:none;stroke:#FFB600;stroke-width:5;stroke-linecap:round;stroke-miterlimit:10;" d="M176,367V15c0,0,13-21,33,0
		v352c0,0,27-10,26,17l0,49H26c0,0-20,0-20-17.5V340c0,0,3-18,21-23l108.5,2c0,0,15.5-1,16.5,19s0,31,0,31L176,367z"/>
	
		<line style="fill:none;stroke:#FFB600;stroke-width:5;stroke-linecap:round;stroke-miterlimit:10;" x1="152" y1="369" x2="152" y2="433"/>
	
		<line style="fill:none;stroke:#FFB600;stroke-width:5;stroke-linecap:round;stroke-miterlimit:10;" x1="176" y1="367" x2="209" y2="367"/>
	<path style="fill:none;stroke:#FFB600;stroke-width:5;stroke-linecap:round;stroke-miterlimit:10;" d="M176,234l-24-14.7V55.5
		c0,0-6-17.5,16-17.5s41,0,41,0"/>
	
		<line style="fill:none;stroke:#FFB600;stroke-width:5;stroke-linecap:round;stroke-miterlimit:10;" x1="176" y1="72" x2="209" y2="72"/>
	
		<line style="fill:none;stroke:#FFB600;stroke-width:5;stroke-linecap:round;stroke-miterlimit:10;" x1="39" y1="351.5" x2="65" y2="351.5"/>
	
		<line style="fill:none;stroke:#FFB600;stroke-width:5;stroke-linecap:round;stroke-miterlimit:10;" x1="93" y1="351.5" x2="120.5" y2="351.5"/>
	<path style="fill:none;stroke:#FFB600;stroke-width:5;stroke-linecap:round;stroke-miterlimit:10;" d="M235,401h54c0,0-8-33,13-32
		l17,0c0,0,23-9,20,30.5h53v-24c0,0-2-9.5,16-8.5l68-0.1c0,0,19-6,19,17c0,23,0,64,0,64h-77l-19-15H235V401z"/>
	
		<line style="fill:none;stroke:#FFB600;stroke-width:5;stroke-linecap:round;stroke-miterlimit:10;" x1="159" y1="433" x2="159" y2="456"/>
	
		<line style="fill:none;stroke:#FFB600;stroke-width:5;stroke-linecap:round;stroke-miterlimit:10;" x1="349" y1="433" x2="349" y2="456"/>
	
		<line style="fill:none;stroke:#FFB600;stroke-width:5;stroke-linecap:round;stroke-miterlimit:10;" x1="392" y1="399.5" x2="392" y2="433"/>
	
		<line style="fill:none;stroke:#FFB600;stroke-width:5;stroke-linecap:round;stroke-miterlimit:10;" x1="359" y1="401" x2="359" y2="336"/>
	
		<line style="fill:none;stroke:#FFB600;stroke-width:5;stroke-linecap:round;stroke-miterlimit:10;" x1="344" y1="336" x2="375.5" y2="336"/>
	
		<line style="fill:none;stroke:#FFB600;stroke-width:5;stroke-linecap:round;stroke-miterlimit:10;" x1="413" y1="391.5" x2="433" y2="391.5"/>
	
		<line style="fill:none;stroke:#FFB600;stroke-width:5;stroke-linecap:round;stroke-miterlimit:10;" x1="408" y1="415.5" x2="433" y2="415.5"/>
	<polyline style="fill:none;stroke:#FFB600;stroke-width:5;stroke-linecap:round;stroke-miterlimit:10;" points="439,309 423.5,327 
		423.5,368.5 	"/>
	
		<line style="fill:none;stroke:#FFB600;stroke-width:5;stroke-linecap:round;stroke-miterlimit:10;" x1="495" y1="448" x2="511" y2="448"/>
	
		<line style="fill:none;stroke:#FFB600;stroke-width:5;stroke-linecap:round;stroke-miterlimit:10;" x1="159" y1="479.5" x2="349" y2="479.5"/>
	
		<circle style="fill:none;stroke:#FFB600;stroke-width:5;stroke-linecap:round;stroke-miterlimit:10;" cx="135.5" cy="479.5" r="5.9"/>
	
		<circle style="fill:none;stroke:#FFB600;stroke-width:5;stroke-linecap:round;stroke-miterlimit:10;" cx="375.5" cy="479.5" r="5.9"/>
	<path style="fill:none;stroke:#FFB600;stroke-width:5;stroke-linecap:round;stroke-miterlimit:10;" d="M129.6,456h251.8
		c0,0,14.6-3,21.6,23.5c0,0-4,24.5-20,25.5H135.5c0,0-23.8-2.3-23.5-24.6S129.6,456,129.6,456z"/>
</g>
</svg>
