<?xml version="1.0" encoding="utf-8"?>
<!-- Generator: Adobe Illustrator 24.0.1, SVG Export Plug-In . SVG Version: 6.00 Build 0)  -->
<svg version="1.1" id="Layer_2" xmlns="http://www.w3.org/2000/svg" xmlns:xlink="http://www.w3.org/1999/xlink" x="0px" y="0px"
	 viewBox="0 0 512 512" style="enable-background:new 0 0 512 512;" xml:space="preserve">
<g>
	<path style="fill:none;stroke:#FFB600;stroke-width:5;stroke-linecap:round;stroke-linejoin:round;stroke-miterlimit:10;" d="
		M168,400h272c0,0,48-2,48,48s-48,51-48,51H168c-3.7-0.3-25.2-2.6-38.7-20.9c-8.8-12-9.8-24.8-10-28.8c-0.3-4.8-0.8-12.8,3.1-21.6
		c7.5-17.2,25-23.3,29.3-24.8C158.4,400.6,164.2,400.1,168,400z"/>
	<path style="fill:none;stroke:#FFB600;stroke-width:5;stroke-linecap:round;stroke-linejoin:round;stroke-miterlimit:10;" d="
		M159.6,426c-1.5,0.7-11.3,5.2-14.3,15.8c-2.8,10.2,1.7,21.7,11.6,28.3c98,0,196,0,294,0c0,0,30-18.1,0-44
		C353.9,426,256.8,426,159.6,426z"/>
	
		<line style="fill:none;stroke:#FFB600;stroke-width:5;stroke-linecap:round;stroke-linejoin:round;stroke-miterlimit:10;" x1="304" y1="400" x2="304" y2="426"/>
	
		<line style="fill:none;stroke:#FFB600;stroke-width:5;stroke-linecap:round;stroke-linejoin:round;stroke-miterlimit:10;" x1="336" y1="400" x2="336" y2="426"/>
	
		<line style="fill:none;stroke:#FFB600;stroke-width:5;stroke-linecap:round;stroke-linejoin:round;stroke-miterlimit:10;" x1="368" y1="400" x2="368" y2="426"/>
	
		<line style="fill:none;stroke:#FFB600;stroke-width:5;stroke-linecap:round;stroke-linejoin:round;stroke-miterlimit:10;" x1="400" y1="400" x2="400" y2="426"/>
	
		<line style="fill:none;stroke:#FFB600;stroke-width:5;stroke-linecap:round;stroke-linejoin:round;stroke-miterlimit:10;" x1="432" y1="400" x2="432" y2="426"/>
	
		<line style="fill:none;stroke:#FFB600;stroke-width:5;stroke-linecap:round;stroke-linejoin:round;stroke-miterlimit:10;" x1="456" y1="430.8" x2="474.1" y2="412"/>
	
		<line style="fill:none;stroke:#FFB600;stroke-width:5;stroke-linecap:round;stroke-linejoin:round;stroke-miterlimit:10;" x1="464.3" y1="449.5" x2="488" y2="448"/>
	
		<line style="fill:none;stroke:#FFB600;stroke-width:5;stroke-linecap:round;stroke-linejoin:round;stroke-miterlimit:10;" x1="458" y1="464" x2="475" y2="484"/>
	
		<line style="fill:none;stroke:#FFB600;stroke-width:5;stroke-linecap:round;stroke-linejoin:round;stroke-miterlimit:10;" x1="432" y1="470" x2="432" y2="499"/>
	
		<line style="fill:none;stroke:#FFB600;stroke-width:5;stroke-linecap:round;stroke-linejoin:round;stroke-miterlimit:10;" x1="400" y1="470" x2="400" y2="499"/>
	
		<line style="fill:none;stroke:#FFB600;stroke-width:5;stroke-linecap:round;stroke-linejoin:round;stroke-miterlimit:10;" x1="368" y1="470" x2="368" y2="499"/>
	
		<line style="fill:none;stroke:#FFB600;stroke-width:5;stroke-linecap:round;stroke-linejoin:round;stroke-miterlimit:10;" x1="336" y1="470" x2="336" y2="499"/>
	
		<line style="fill:none;stroke:#FFB600;stroke-width:5;stroke-linecap:round;stroke-linejoin:round;stroke-miterlimit:10;" x1="304" y1="470" x2="304" y2="499"/>
	
		<line style="fill:none;stroke:#FFB600;stroke-width:5;stroke-linecap:round;stroke-linejoin:round;stroke-miterlimit:10;" x1="272" y1="470" x2="272" y2="499"/>
	
		<line style="fill:none;stroke:#FFB600;stroke-width:5;stroke-linecap:round;stroke-linejoin:round;stroke-miterlimit:10;" x1="240" y1="470" x2="240" y2="499"/>
	
		<line style="fill:none;stroke:#FFB600;stroke-width:5;stroke-linecap:round;stroke-linejoin:round;stroke-miterlimit:10;" x1="208" y1="470" x2="208" y2="499"/>
	
		<line style="fill:none;stroke:#FFB600;stroke-width:5;stroke-linecap:round;stroke-linejoin:round;stroke-miterlimit:10;" x1="176" y1="470" x2="176" y2="499"/>
	<path style="fill:none;stroke:#FFB600;stroke-width:5;stroke-linecap:round;stroke-linejoin:round;stroke-miterlimit:10;" d="
		M152,464.1c-6.5,5.8-13,11.7-19.5,17.5"/>
	<path style="fill:none;stroke:#FFB600;stroke-width:5;stroke-linecap:round;stroke-linejoin:round;stroke-miterlimit:10;" d="
		M145.1,448.3c-8.6,0.4-17.2,0.7-25.9,1.1"/>
	<path style="fill:none;stroke:#FFB600;stroke-width:5;stroke-linecap:round;stroke-linejoin:round;stroke-miterlimit:10;" d="
		M151.1,430.9c-5.7-5.4-11.4-10.7-17.1-16.1"/>
	
		<line style="fill:none;stroke:#FFB600;stroke-width:5;stroke-linecap:round;stroke-linejoin:round;stroke-miterlimit:10;" x1="176" y1="426" x2="176" y2="400"/>
	
		<line style="fill:none;stroke:#FFB600;stroke-width:5;stroke-linecap:round;stroke-linejoin:round;stroke-miterlimit:10;" x1="208" y1="426" x2="208" y2="400"/>
	
		<line style="fill:none;stroke:#FFB600;stroke-width:5;stroke-linecap:round;stroke-linejoin:round;stroke-miterlimit:10;" x1="240" y1="426" x2="240" y2="400"/>
	
		<circle style="fill:none;stroke:#FFB600;stroke-width:5;stroke-linecap:round;stroke-linejoin:round;stroke-miterlimit:10;" cx="208" cy="448" r="10"/>
	
		<circle style="fill:none;stroke:#FFB600;stroke-width:5;stroke-linecap:round;stroke-linejoin:round;stroke-miterlimit:10;" cx="272" cy="448" r="10"/>
	
		<circle style="fill:none;stroke:#FFB600;stroke-width:5;stroke-linecap:round;stroke-linejoin:round;stroke-miterlimit:10;" cx="208" cy="448" r="10"/>
	
		<ellipse style="fill:none;stroke:#FFB600;stroke-width:5;stroke-linecap:round;stroke-linejoin:round;stroke-miterlimit:10;" cx="400" cy="448.7" rx="10" ry="11.2"/>
	
		<line style="fill:none;stroke:#FFB600;stroke-width:5;stroke-linecap:round;stroke-linejoin:round;stroke-miterlimit:10;" x1="170.5" y1="448" x2="437.9" y2="449.4"/>
	<path style="fill:none;stroke:#FFB600;stroke-width:5;stroke-linecap:round;stroke-linejoin:round;stroke-miterlimit:10;" d="
		M184,336c0,0-19.8-3-24.4,16c-4.6,19,24.4,16.5,24.4,16.5l170.7,0.1V336H184z"/>
	<path style="fill:none;stroke:#FFB600;stroke-width:5;stroke-linecap:round;stroke-linejoin:round;stroke-miterlimit:10;" d="
		M354.7,336v-48H456c0,0,36.6-0.1,39.6,32c3.1,32.1,0,36.7,0,36.7s-1.2,11.3-20.6,11.9c-115.2,3.5-120.3,0-120.3,0V336z"/>
	
		<line style="fill:none;stroke:#FFB600;stroke-width:5;stroke-linecap:round;stroke-linejoin:round;stroke-miterlimit:10;" x1="212.5" y1="400" x2="212.5" y2="368.5"/>
	
		<line style="fill:none;stroke:#FFB600;stroke-width:5;stroke-linecap:round;stroke-linejoin:round;stroke-miterlimit:10;" x1="392" y1="400" x2="392" y2="370.1"/>
	
		<line style="fill:none;stroke:#FFB600;stroke-width:5;stroke-linecap:round;stroke-linejoin:round;stroke-miterlimit:10;" x1="376" y1="307.7" x2="376" y2="347"/>
	
		<line style="fill:none;stroke:#FFB600;stroke-width:5;stroke-linecap:round;stroke-linejoin:round;stroke-miterlimit:10;" x1="400" y1="307.7" x2="400" y2="347"/>
	
		<line style="fill:none;stroke:#FFB600;stroke-width:5;stroke-linecap:round;stroke-linejoin:round;stroke-miterlimit:10;" x1="425.9" y1="307.7" x2="425.9" y2="347"/>
	
		<polyline style="fill:none;stroke:#FFB600;stroke-width:5;stroke-linecap:round;stroke-linejoin:round;stroke-miterlimit:10;" points="
		384,288 384,256 400,256 445.6,256 445.6,288 	"/>
	<path style="fill:none;stroke:#FFB600;stroke-width:5;stroke-linecap:round;stroke-linejoin:round;stroke-miterlimit:10;" d="
		M425.9,256c0,0-11.4-30.8,21.8-24v-25.9c0,0-59-10-47.6,49.9"/>
	<path style="fill:none;stroke:#FFB600;stroke-width:5;stroke-linecap:round;stroke-linejoin:round;stroke-miterlimit:10;" d="
		M354.7,368.6"/>
	
		<line style="fill:none;stroke:#FFB600;stroke-width:5;stroke-linecap:round;stroke-linejoin:round;stroke-miterlimit:10;" x1="285.3" y1="312" x2="312" y2="312"/>
	
		<polygon style="fill:none;stroke:#FFB600;stroke-width:5;stroke-linecap:round;stroke-linejoin:round;stroke-miterlimit:10;" points="
		33,426 33,470 48,493.6 64,472.8 64,426 	"/>
	
		<circle style="fill:none;stroke:#FFB600;stroke-width:5;stroke-linecap:round;stroke-linejoin:round;stroke-miterlimit:10;" cx="220" cy="140" r="8.4"/>
	
		<circle style="fill:none;stroke:#FFB600;stroke-width:5;stroke-linecap:round;stroke-linejoin:round;stroke-miterlimit:10;" cx="52" cy="340" r="8.4"/>
	
		<circle style="fill:none;stroke:#FFB600;stroke-width:5;stroke-linecap:round;stroke-linejoin:round;stroke-miterlimit:10;" cx="52" cy="52" r="8.4"/>
	<path style="fill:none;stroke:#FFB600;stroke-width:5;stroke-linecap:round;stroke-linejoin:round;stroke-miterlimit:10;" d="
		M255.1,157.1c0,0,7.4-27.6-35.1-48.6L80.5,40l15.8,45.6l-2.6,10.8L198,183.1l98-0.5c26.6,1,24,16.9,24,16.9s1,43.9,0,64.5
		c-1,20.6-24,16-24,16h-64c-22.6,1.4-24,21.6-24,21.6v34.2h-32V235.7c0.7-24,10.2-40.8,22-52.6c21.2-21.2,50-26,50-26
		s54.1,0.5,82.2,0c28.1-0.5,24.5,22.5,24.5,22.5V288"/>
	
		<polygon style="fill:none;stroke:#FFB600;stroke-width:5;stroke-linecap:round;stroke-linejoin:round;stroke-miterlimit:10;" points="
		33,426 13.6,392 80.5,392 60.4,426 	"/>
	<path style="fill:none;stroke:#FFB600;stroke-width:5;stroke-linecap:round;stroke-linejoin:round;stroke-miterlimit:10;" d="
		M13.6,312v80h66.9v-58.7c0,0,1.7-23.1-20.1-21.3H13.6z"/>
	<path style="fill:none;stroke:#FFB600;stroke-width:5;stroke-linecap:round;stroke-linejoin:round;stroke-miterlimit:10;" d="
		M80.5,40c-6.1-26.7-24.7-24.4-24.7-24.4s-17.2-3.9-26.9,27.9l-12.8,42L13.6,312l26.4-0.1L93.7,96.4"/>
	
		<polyline style="fill:none;stroke:#FFB600;stroke-width:5;stroke-linecap:round;stroke-linejoin:round;stroke-miterlimit:10;" points="
		60.4,15.9 224,64 255.1,79 262.8,110.6 246.1,128 	"/>
	
		<polyline style="fill:none;stroke:#FFB600;stroke-width:5;stroke-linecap:round;stroke-linejoin:round;stroke-miterlimit:10;" points="
		187.5,92.6 192.8,78.4 216,78.4 224,64 	"/>
</g>
</svg>
