<?xml version="1.0" encoding="utf-8"?>
<!-- Generator: Adobe Illustrator 24.0.1, SVG Export Plug-In . SVG Version: 6.00 Build 0)  -->
<svg version="1.1" id="Layer_2" xmlns="http://www.w3.org/2000/svg" xmlns:xlink="http://www.w3.org/1999/xlink" x="0px" y="0px"
	 viewBox="0 0 512 512" style="enable-background:new 0 0 512 512;" xml:space="preserve">
<path style="fill:none;stroke:#FFB600;stroke-width:5;stroke-linecap:round;stroke-miterlimit:10;" d="M21,21
	c5.5-4.7,13.1-5.6,19.3-2.4c5.4,2.8,8.8,8.4,9.1,14.7c-3.1,6.3-6.8,16.6-5.4,28.6c0.6,4.7,1.5,9.3,3.5,13.9C52.1,87,60.1,93.6,63,96
	c23.6,19.9,43.9,37.1,48.7,57.5c2.6,11.1-2.9,7.9-5.7,43.7c-2.4,31.8,1.3,42.8,6.9,50.5c5.1,7,11.5,11,16.1,13.3
	c3.6,2.7,31.6,24.4,32.2,61c0.3,23.5-10.8,40.3-15.2,46.2c0,0-27,3-24-30.6c0,0,9.9-13,6.1-27.8c-3.6-14-18.2-20-26-25.5
	c-14.7-10.3-28.9-34.9-24.4-98.6c3.7-13.3,6.4-31.5-3.1-44.4c-5.7-7.8-11.1-7.3-21.5-14.3c-22.2-14.8-35-41.7-37.4-65.4
	C14.8,53.5,14.4,38.8,21,21z"/>
<path style="fill:none;stroke:#FFB600;stroke-width:5;stroke-linecap:round;stroke-miterlimit:10;" d="M184.9,168.8
	c0.4-8.7,3.9-15.4,9.1-17c4.8-1.5,9.6,1.9,11.6,3.2c18.2,12.4,13.4,54,13.4,54s-8,24-19,31c-11,7-34.1-4-25.5-17
	c6.4-9.7,10.8-17.3,12-19.1C190.3,198.6,192.5,188.7,184.9,168.8z"/>
<path style="fill:none;stroke:#FFB600;stroke-width:5;stroke-linecap:round;stroke-miterlimit:10;" d="M84.6,330.4
	c1,0.9,7.7,7.2,6.6,15.5c-1.2,9.6-11.7,13.9-12.8,14.3c-13,5.4-32.4-4.7-48.8-24.8c0,0-15.7-19.8-15.5-32.9
	c0.2-13.1,22-26.3,28.2-12.1c4.8,10.9,8.9,19.2,9.4,20.5C54,317.5,61.4,325.3,84.6,330.4z"/>
<line style="fill:none;stroke:#FFB600;stroke-width:5;stroke-linecap:round;stroke-miterlimit:10;" x1="214" y1="320" x2="281" y2="386.1"/>
<line style="fill:none;stroke:#FFB600;stroke-width:5;stroke-linecap:round;stroke-miterlimit:10;" x1="247.5" y1="285.4" x2="281" y2="328.4"/>
<path style="fill:none;stroke:#FFB600;stroke-width:5;stroke-linecap:round;stroke-miterlimit:10;" d="M14.1,394.5V501h485.3V394.5
	l-75.5,0c0,0-12.9,56.5-167.9,58.5S89.2,394.5,89.2,394.5L14.1,394.5z"/>
<line style="fill:none;stroke:#FFB600;stroke-width:5;stroke-linecap:round;stroke-miterlimit:10;" x1="42" y1="470" x2="53.2" y2="470"/>
<line style="fill:none;stroke:#FFB600;stroke-width:5;stroke-linecap:round;stroke-miterlimit:10;" x1="85.4" y1="470" x2="149" y2="470"/>
<line style="fill:none;stroke:#FFB600;stroke-width:5;stroke-linecap:round;stroke-miterlimit:10;" x1="398" y1="326.3" x2="432.3" y2="284.3"/>
<line style="fill:none;stroke:#FFB600;stroke-width:5;stroke-linecap:round;stroke-miterlimit:10;" x1="398" y1="386.1" x2="465.8" y2="320"/>
<path style="fill:none;stroke:#FFB600;stroke-width:5;stroke-linecap:round;stroke-miterlimit:10;" d="M205.6,25.2V91h268.7V25.2
	c0,0-2.3-10.4-21.3-7.8s-233.4-0.4-233.4-0.4S205.6,16.4,205.6,25.2z"/>
<line style="fill:none;stroke:#FFB600;stroke-width:5;stroke-linecap:round;stroke-miterlimit:10;" x1="238.8" y1="43" x2="238.8" y2="16.9"/>
<line style="fill:none;stroke:#FFB600;stroke-width:5;stroke-linecap:round;stroke-miterlimit:10;" x1="272" y1="43" x2="272" y2="16.9"/>
<line style="fill:none;stroke:#FFB600;stroke-width:5;stroke-linecap:round;stroke-miterlimit:10;" x1="306" y1="43" x2="306" y2="17.9"/>
<line style="fill:none;stroke:#FFB600;stroke-width:5;stroke-linecap:round;stroke-miterlimit:10;" x1="339.9" y1="44" x2="339.9" y2="17.9"/>
<line style="fill:none;stroke:#FFB600;stroke-width:5;stroke-linecap:round;stroke-miterlimit:10;" x1="375" y1="43" x2="375" y2="17.9"/>
<line style="fill:none;stroke:#FFB600;stroke-width:5;stroke-linecap:round;stroke-miterlimit:10;" x1="407" y1="44" x2="407" y2="17.9"/>
<line style="fill:none;stroke:#FFB600;stroke-width:5;stroke-linecap:round;stroke-miterlimit:10;" x1="440.6" y1="44" x2="440.6" y2="17.9"/>
<polyline style="fill:none;stroke:#FFB600;stroke-width:5;stroke-linecap:round;stroke-miterlimit:10;" points="247.5,91 
	247.6,142.7 306,242.2 375,242.2 431.9,142.7 431.9,91 "/>
<line style="fill:none;stroke:#FFB600;stroke-width:5;stroke-linecap:round;stroke-miterlimit:10;" x1="289.6" y1="142.7" x2="247.6" y2="142.7"/>
<line style="fill:none;stroke:#FFB600;stroke-width:5;stroke-linecap:round;stroke-miterlimit:10;" x1="335" y1="142.7" x2="431.9" y2="142.7"/>
<polyline style="fill:none;stroke:#FFB600;stroke-width:5;stroke-linecap:round;stroke-miterlimit:10;" points="313,242.2 
	313,394.5 339.9,413 366,394.5 366,242.2 "/>
<line style="fill:none;stroke:#FFB600;stroke-width:5;stroke-linecap:round;stroke-miterlimit:10;" x1="313" y1="302.2" x2="366" y2="269.1"/>
<line style="fill:none;stroke:#FFB600;stroke-width:5;stroke-linecap:round;stroke-miterlimit:10;" x1="313" y1="346.2" x2="366" y2="310.5"/>
<line style="fill:none;stroke:#FFB600;stroke-width:5;stroke-linecap:round;stroke-miterlimit:10;" x1="313" y1="384.7" x2="366" y2="352.5"/>
<circle style="fill:none;stroke:#FFB600;stroke-width:5;stroke-linecap:round;stroke-miterlimit:10;" cx="188.9" cy="293.7" r="6.4"/>
<circle style="fill:none;stroke:#FFB600;stroke-width:5;stroke-linecap:round;stroke-miterlimit:10;" cx="491" cy="293.8" r="6.4"/>
</svg>
