<?xml version="1.0" encoding="utf-8"?>
<!-- Generator: Adobe Illustrator 24.0.1, SVG Export Plug-In . SVG Version: 6.00 Build 0)  -->
<svg version="1.1" id="Layer_2" xmlns="http://www.w3.org/2000/svg" xmlns:xlink="http://www.w3.org/1999/xlink" x="0px" y="0px"
	 viewBox="0 0 512 512" style="enable-background:new 0 0 512 512;" xml:space="preserve">
<g>
	
		<line style="fill:#FFFFFF;stroke:#FFB600;stroke-width:5;stroke-linecap:round;stroke-miterlimit:10;" x1="153" y1="47" x2="291" y2="47"/>
	<polyline style="fill:none;stroke:#FFB600;stroke-width:5;stroke-linecap:round;stroke-miterlimit:10;" points="8,286.4 8,210.1 
		41,210.1 41,441 8,441 8.5,311.2 	"/>
	
		<line style="fill:none;stroke:#FFB600;stroke-width:5;stroke-linecap:round;stroke-miterlimit:10;" x1="84" y1="210.1" x2="41" y2="210.1"/>
	<path style="fill:none;stroke:#FFB600;stroke-width:5;stroke-linecap:round;stroke-miterlimit:10;" d="M8,133c0,0,24,21,21,34
		l0.3,43.1"/>
	<path style="fill:none;stroke:#FFB600;stroke-width:5;stroke-linecap:round;stroke-miterlimit:10;" d="M164,47l-54.1,77
		c0,0-9.9,15-8.9,39s-0.1,88.4-0.1,88.4S112,291,153,301h138c0,0,36-11,46-40v-46c0,0-19,2.7-16-14.6l1-19.3c0,0-4-11,15-9.5V154
		c0,0-0.3-9.1-8.2-33L276,47"/>
	
		<circle style="fill:none;stroke:#FFB600;stroke-width:5;stroke-linecap:round;stroke-miterlimit:10;" cx="418" cy="418.8" r="42.2"/>
	<path style="fill:none;stroke:#FFB600;stroke-width:5;stroke-linecap:round;stroke-miterlimit:10;" d="M430.1,262H489
		c0,0,20-6.6,18-25.3s4.2-31.1-9.7-55.6L456.1,139c0,0-22.3-7.9-26,7.5v231.8"/>
	
		<line style="fill:none;stroke:#FFB600;stroke-width:5;stroke-linecap:round;stroke-miterlimit:10;" x1="337" y1="171.5" x2="430.1" y2="171.5"/>
	
		<line style="fill:none;stroke:#FFB600;stroke-width:5;stroke-linecap:round;stroke-miterlimit:10;" x1="337" y1="215" x2="430.1" y2="215"/>
	
		<line style="fill:none;stroke:#FFB600;stroke-width:5;stroke-linecap:round;stroke-miterlimit:10;" x1="405.9" y1="378.3" x2="405.9" y2="215"/>
	
		<line style="fill:none;stroke:#FFB600;stroke-width:5;stroke-linecap:round;stroke-miterlimit:10;" x1="41" y1="366.7" x2="405.9" y2="366.7"/>
	
		<line style="fill:none;stroke:#FFB600;stroke-width:5;stroke-linecap:round;stroke-miterlimit:10;" x1="41" y1="390" x2="282" y2="390"/>
	
		<line style="fill:none;stroke:#FFB600;stroke-width:5;stroke-linecap:round;stroke-miterlimit:10;" x1="318" y1="390" x2="387.1" y2="390"/>
	
		<line style="fill:none;stroke:#FFB600;stroke-width:5;stroke-linecap:round;stroke-miterlimit:10;" x1="138" y1="145.9" x2="102" y2="146.5"/>
	
		<line style="fill:none;stroke:#FFB600;stroke-width:5;stroke-linecap:round;stroke-miterlimit:10;" x1="173" y1="145.9" x2="335.8" y2="145.9"/>
	
		<line style="fill:none;stroke:#FFB600;stroke-width:5;stroke-linecap:round;stroke-miterlimit:10;" x1="101" y1="246" x2="337" y2="246"/>
	<path style="fill:none;stroke:#FFB600;stroke-width:5;stroke-linecap:round;stroke-miterlimit:10;" d="M66.3,210.1
		c0,0-21.3,112.6,67.7,121.4l162.5,1.4c0,0,92.3,2.1,77.9-117.9"/>
	
		<line style="fill:none;stroke:#FFB600;stroke-width:5;stroke-linecap:round;stroke-miterlimit:10;" x1="221.1" y1="301" x2="219" y2="332.9"/>
	<polyline style="fill:none;stroke:#FFB600;stroke-width:5;stroke-linecap:round;stroke-miterlimit:10;" points="41,316.9 89,366.7 
		352.6,366.7 404.1,315.1 	"/>
	
		<circle style="fill:none;stroke:#FFB600;stroke-width:5;stroke-linecap:round;stroke-miterlimit:10;" cx="469" cy="200.5" r="6.9"/>
	
		<circle style="fill:none;stroke:#FFB600;stroke-width:5;stroke-linecap:round;stroke-miterlimit:10;" cx="469.2" cy="230.5" r="6.9"/>
</g>
</svg>
