<?xml version="1.0" encoding="utf-8"?>
<!-- Generator: Adobe Illustrator 24.0.1, SVG Export Plug-In . SVG Version: 6.00 Build 0)  -->
<svg version="1.1" id="Layer_2" xmlns="http://www.w3.org/2000/svg" xmlns:xlink="http://www.w3.org/1999/xlink" x="0px" y="0px"
	 viewBox="0 0 512 512" style="enable-background:new 0 0 512 512;" xml:space="preserve">
<circle style="fill:none;stroke:#FFB600;stroke-width:5;stroke-linecap:round;stroke-miterlimit:10;" cx="152" cy="40" r="15.9"/>
<circle style="fill:none;stroke:#FFB600;stroke-width:5;stroke-linecap:round;stroke-miterlimit:10;" cx="304" cy="464" r="21.8"/>
<circle style="fill:none;stroke:#FFB600;stroke-width:5;stroke-linecap:round;stroke-miterlimit:10;" cx="464" cy="464" r="21.8"/>
<line style="fill:none;stroke:#FFB600;stroke-width:5;stroke-linecap:round;stroke-miterlimit:10;" x1="304" y1="442.2" x2="464" y2="442.2"/>
<line style="fill:none;stroke:#FFB600;stroke-width:5;stroke-linecap:round;stroke-miterlimit:10;" x1="304" y1="485.8" x2="464" y2="485.8"/>
<path style="fill:none;stroke:#FFB600;stroke-width:5;stroke-linecap:round;stroke-miterlimit:10;" d="M308.7,442.7V379
	c0,0,0.9-19,17.1-18l53.2,0c0,0,13,1,14,17s0,64.2,0,64.2"/>
<path style="fill:none;stroke:#FFB600;stroke-width:5;stroke-linecap:round;stroke-miterlimit:10;" d="M468.7,442.7
	c0,0,17.3-31.7-20.7-50.7h-54.6"/>
<line style="fill:none;stroke:#FFB600;stroke-width:5;stroke-linecap:round;stroke-miterlimit:10;" x1="436.4" y1="442.2" x2="436.4" y2="424"/>
<polyline style="fill:none;stroke:#FFB600;stroke-width:5;stroke-linecap:round;stroke-miterlimit:10;" points="346,442.2 
	361.2,409 393.4,409 "/>
<polyline style="fill:none;stroke:#FFB600;stroke-width:5;stroke-linecap:round;stroke-miterlimit:10;" points="325.8,361 
	325.8,263 123,60 "/>
<polyline style="fill:none;stroke:#FFB600;stroke-width:5;stroke-linecap:round;stroke-miterlimit:10;" points="379,361 379,244 
	167.9,40 "/>
<line style="fill:none;stroke:#FFB600;stroke-width:5;stroke-linecap:round;stroke-miterlimit:10;" x1="325.8" y1="295" x2="379" y2="295"/>
<line style="fill:none;stroke:#FFB600;stroke-width:5;stroke-linecap:round;stroke-miterlimit:10;" x1="325.8" y1="263" x2="379" y2="244"/>
<line style="fill:none;stroke:#FFB600;stroke-width:5;stroke-linecap:round;stroke-miterlimit:10;" x1="286.8" y1="224" x2="321.9" y2="188.9"/>
<path style="fill:none;stroke:#FFB600;stroke-width:5;stroke-linecap:round;stroke-miterlimit:10;" d="M152,24.1h-48
	c0,0-40-1.1-48,39.9v101c-45,2.8-31,64.1-31,64.1h95c0,0,15.4-62.2-32-64.1c0,0,0-65,0-88s20-21.1,20-21.1h44"/>
<rect x="49" y="263" style="fill:none;stroke:#FFB600;stroke-width:5;stroke-linecap:round;stroke-miterlimit:10;" width="47.7" height="32"/>
<line style="fill:none;stroke:#FFB600;stroke-width:5;stroke-linecap:round;stroke-miterlimit:10;" x1="49" y1="263" x2="25" y2="229.1"/>
<line style="fill:none;stroke:#FFB600;stroke-width:5;stroke-linecap:round;stroke-miterlimit:10;" x1="96.7" y1="263" x2="120" y2="229.1"/>
<path style="fill:none;stroke:#FFB600;stroke-width:5;stroke-linecap:round;stroke-miterlimit:10;" d="M56,295
	c-2,149-1,191.6,0,190.8l32,0L87.5,295"/>
<path style="fill:none;stroke:#FFB600;stroke-width:5;stroke-linecap:round;stroke-miterlimit:10;" d="M56,229.1
	c0,0-3.5-34,16.9-29.1c0,0,22.1,2.2,14.6,29.1"/>
<line style="fill:none;stroke:#FFB600;stroke-width:5;stroke-linecap:round;stroke-miterlimit:10;" x1="56" y1="165" x2="88" y2="165"/>
</svg>
