<?xml version="1.0" encoding="utf-8"?>
<!-- Generator: Adobe Illustrator 24.0.1, SVG Export Plug-In . SVG Version: 6.00 Build 0)  -->
<svg version="1.1" id="Layer_2" xmlns="http://www.w3.org/2000/svg" xmlns:xlink="http://www.w3.org/1999/xlink" x="0px" y="0px"
	 viewBox="0 0 512 512" style="enable-background:new 0 0 512 512;" xml:space="preserve">
<g>
	
		<rect x="95" y="196" style="fill:none;stroke:#FFB600;stroke-width:5;stroke-linecap:round;stroke-miterlimit:10;" width="255" height="167.1"/>
	<path style="fill:none;stroke:#FFB600;stroke-width:5;stroke-linecap:round;stroke-miterlimit:10;" d="M52,7H9v49.4h101V90h57V43
		c0,0,2-35-38-36S73.5,7,73.5,7"/>
	<path style="fill:none;stroke:#FFB600;stroke-width:5;stroke-linecap:round;stroke-miterlimit:10;" d="M101.9,363.2
		c0,0-23.9-1.2-35.9-0.1c-12,1.1-13-6.6-13-6.6S53,240,53,215s11-19,11-19h31v-27.7c0,0,2-7.3,16-5.8s63.1-0.9,63.1-0.2
		c0,0,12,0.3,10,6s0.2,27.7,0.2,27.7"/>
	<path style="fill:none;stroke:#FFB600;stroke-width:5;stroke-linecap:round;stroke-miterlimit:10;" d="M349.4,196H388
		c0,0,13.7-6,13.7,19s0,141.5,0,141.5s-1.2,7.7-16.2,6.6c-14.9-1.1-44.7,0.1-44.7,0.1"/>
	<path style="fill:none;stroke:#FFB600;stroke-width:5;stroke-linecap:round;stroke-miterlimit:10;" d="M53,215
		c0,0-39.3,9.3-44,12.2v105.1L53,343"/>
	<path style="fill:none;stroke:#FFB600;stroke-width:5;stroke-linecap:round;stroke-miterlimit:10;" d="M110,90c0,0-21-6-22,18.5
		s22,19.5,22,19.5l57,0.4c0,0,18.2,1.3,17-19.9S167,90,167,90"/>
	
		<line style="fill:none;stroke:#FFB600;stroke-width:5;stroke-linecap:round;stroke-miterlimit:10;" x1="110" y1="128" x2="111" y2="162.5"/>
	
		<line style="fill:none;stroke:#FFB600;stroke-width:5;stroke-linecap:round;stroke-miterlimit:10;" x1="167" y1="128.4" x2="167" y2="162.5"/>
	<path style="fill:none;stroke:#FFB600;stroke-width:5;stroke-linecap:round;stroke-miterlimit:10;" d="M236,196
		c0,0-11.3-43,20-42.7c55,0.7,55,0.7,55,0.7s3.8-1.1,8.1,0.7c10.5,4.5,10.8,26,10.9,33.2c0,0.7,0.1,8.1,0.1,8.1l0,0"/>
	<path style="fill:none;stroke:#FFB600;stroke-width:5;stroke-linecap:round;stroke-miterlimit:10;" d="M401.6,256
		c17.9-4.4,44.2-7.7,73.4,0c5.7,1.5,11,3.3,15.9,5.3c2.4,1.2,5.5,3.2,8.3,6.4c5.7,6.7,6.7,14.9,6.8,19.5c6,173.8,0,195.8,0,195.8
		s6,30.1-27,22l-459.7,1.4c0,0-10.5-0.2-10.3-15.4c1-83,1-83,1-83c5.3-0.3,10.7-0.7,16-1"/>
	<polyline style="fill:none;stroke:#FFB600;stroke-width:5;stroke-linecap:round;stroke-miterlimit:10;" points="453,380.8 
		453,310.9 401.6,310.9 	"/>
	<path style="fill:none;stroke:#FFB600;stroke-width:5;stroke-linecap:round;stroke-miterlimit:10;" d="M58.5,405h320.2
		c0,0,24.6-7,22.9,19s-1.6,26-1.6,26"/>
	
		<line style="fill:none;stroke:#FFB600;stroke-width:5;stroke-linecap:round;stroke-miterlimit:10;" x1="371.2" y1="362.6" x2="371.2" y2="405"/>
	
		<line style="fill:none;stroke:#FFB600;stroke-width:5;stroke-linecap:round;stroke-miterlimit:10;" x1="77.4" y1="362.6" x2="77.4" y2="405"/>
	<path style="fill:none;stroke:#FFB600;stroke-width:5;stroke-linecap:round;stroke-miterlimit:10;" d="M9.6,441L48,463
		c0,0,29.6,10.4,47-4.2s64.1-14.6,79.1,7.8s63.2-17.6,66.6-16.6s29-11,56.2,13s66.9-13,66.9-13s12.9-16.9,63.6,15c0,0,35,17,81.3-24
		"/>
	
		<line style="fill:none;stroke:#FFB600;stroke-width:5;stroke-linecap:round;stroke-miterlimit:10;" x1="453" y1="409" x2="453" y2="468.2"/>
	
		<circle style="fill:none;stroke:#FFB600;stroke-width:5;stroke-linecap:round;stroke-miterlimit:10;" cx="311.1" cy="70.7" r="23"/>
	
		<line style="fill:none;stroke:#FFB600;stroke-width:5;stroke-linecap:round;stroke-miterlimit:10;" x1="282.1" y1="153.6" x2="305" y2="92.9"/>
</g>
</svg>
